<svg height="50" viewBox="0 0 60 60" width="50" xmlns="http://www.w3.org/2000/svg"
    xmlns:xlink="http://www.w3.org/1999/xlink">
    <linearGradient id="a" gradientTransform="matrix(1 0 0 -1 0 72)" gradientUnits="userSpaceOnUse"
        x1=".68572" x2="28.54286" y1="37.62857" y2="37.62857">
        <stop offset=".258" stop-color="#f97a12" />
        <stop offset=".459" stop-color="#b07b58" />
        <stop offset=".724" stop-color="#577bae" />
        <stop offset=".91" stop-color="#1e7ce5" />
        <stop offset="1" stop-color="#087cfa" />
    </linearGradient>
    <linearGradient id="b" gradientTransform="matrix(1 0 0 -1 0 72)" gradientUnits="userSpaceOnUse"
        x1="22.0759" x2="68.06762" y1="50.65603" y2="25.20746">
        <stop offset="0" stop-color="#f97a12" />
        <stop offset=".072" stop-color="#cb7a3e" />
        <stop offset=".154" stop-color="#9e7b6a" />
        <stop offset=".242" stop-color="#757b91" />
        <stop offset=".334" stop-color="#537bb1" />
        <stop offset=".432" stop-color="#387ccc" />
        <stop offset=".538" stop-color="#237ce0" />
        <stop offset=".655" stop-color="#147cef" />
        <stop offset=".792" stop-color="#0b7cf7" />
        <stop offset="1" stop-color="#087cfa" />
    </linearGradient>
    <linearGradient id="c" gradientTransform="matrix(1 0 0 -1 0 72)" gradientUnits="userSpaceOnUse"
        x1="54.20258" x2="41.39858" y1="35.21811" y2="73.47582">
        <stop offset="0" stop-color="#fe315d" />
        <stop offset=".078" stop-color="#cb417e" />
        <stop offset=".16" stop-color="#9e4e9b" />
        <stop offset=".247" stop-color="#755bb4" />
        <stop offset=".339" stop-color="#5365ca" />
        <stop offset=".436" stop-color="#386ddb" />
        <stop offset=".541" stop-color="#2374e9" />
        <stop offset=".658" stop-color="#1478f3" />
        <stop offset=".794" stop-color="#0b7bf8" />
        <stop offset="1" stop-color="#087cfa" />
    </linearGradient>
    <linearGradient id="d" gradientTransform="matrix(1 0 0 -1 0 72)" gradientUnits="userSpaceOnUse"
        x1="9.16342" x2="47.56685" y1="57.86508" y2="-5.65521">
        <stop offset="0" stop-color="#fe315d" />
        <stop offset=".04" stop-color="#f63462" />
        <stop offset=".104" stop-color="#df3a71" />
        <stop offset=".167" stop-color="#c24383" />
        <stop offset=".291" stop-color="#ad4a91" />
        <stop offset=".55" stop-color="#755bb4" />
        <stop offset=".917" stop-color="#1d76ed" />
        <stop offset="1" stop-color="#087cfa" />
    </linearGradient>
    <path d="m15.17143 46.8-14.48571-11.48572 7.2-13.37143 20.65714 8.05715z" fill="url(#a)" />
    <path
        d="m60 16.02857-1.11429 34.71429-23.05714 9.25714-13.88572-8.91429 20.31429-21.08571-8.91429-19.45714 7.97143-9.6z"
        fill="url(#b)" />
    <path d="m60 16.02857-18.25714 21.6-8.4-27.08571 7.97143-9.6z" fill="url(#c)" />
    <path
        d="m28.88571 49.8-24.08571 8.74285 3.85714-13.54285 5.05715-16.62857-13.71429-4.62857 8.65714-23.74286 18.85714 2.31428 18.51429 21.17143z"
        fill="url(#d)" />
    <path d="m11.74286 11.57143h37.02857v37.02857h-37.02857z" />
    <g fill="#fff">
        <path d="m15.17143 41.65714h13.88571v2.31429h-13.88571z" />
        <path
            d="m25.2 19.2v-2.82857h-7.71429v2.82857h2.22858v9.68571h-2.22858v2.82858h7.71429v-2.82858h-2.14286v-9.68571z" />
        <path
            d="m32.57143 31.97143a6.20935 6.20935 0 0 1 -3-.68572 7.41568 7.41568 0 0 1 -1.97143-1.62857l2.14286-2.4a4.975 4.975 0 0 0 1.28571 1.11429 2.88959 2.88959 0 0 0 1.45715.42857 2.0656 2.0656 0 0 0 1.54285-.6 3.01956 3.01956 0 0 0 .51429-1.97143v-9.85714h3.42857v10.02857a6.75878 6.75878 0 0 1 -.34286 2.4 4.56717 4.56717 0 0 1 -1.11429 1.71428 3.83834 3.83834 0 0 1 -1.71428 1.02858 6.07015 6.07015 0 0 1 -2.22857.42857" />
    </g>
</svg>