<svg xmlns="http://www.w3.org/2000/svg" xmlns:xlink="http://www.w3.org/1999/xlink" xmlns:lucid="lucid" width="1341" height="842"><g transform="translate(-499.4999999803548 -1618.4999999920785)" lucid:page-tab-id="0_0"><path d="M815 2026a6 6 0 0 1 6-6h218a6 6 0 0 1 6 6v316a6 6 0 0 1-6 6H821a6 6 0 0 1-6-6z" fill-opacity="0"/><path d="M815 2060v-34a6 6 0 0 1 6-6h218a6 6 0 0 1 6 6v34" fill="#0c8ce9"/><path d="M815 2026a6 6 0 0 1 6-6h218a6 6 0 0 1 6 6v316a6 6 0 0 1-6 6H821a6 6 0 0 1-6-6zM815 2060h230M861.87 2060v288" stroke="#0c8ce9" fill="none"/><use xlink:href="#a" transform="matrix(1,0,0,1,824.9963442273802,2020) translate(0 27.822222222222223)"/><use xlink:href="#b" transform="matrix(1,0,0,1,819.9963442273802,2062.5) translate(7.295000000000002 21.836)"/><use xlink:href="#c" transform="matrix(1,0,0,1,866.8672513084302,2062.5) translate(0 23.322222222222223)"/><use xlink:href="#d" transform="matrix(1,0,0,1,866.8672513084302,2098.5) translate(0 23.322222222222223)"/><use xlink:href="#e" transform="matrix(1,0,0,1,866.8672513084302,2134.5) translate(0 23.322222222222223)"/><use xlink:href="#f" transform="matrix(1,0,0,1,866.8672513084302,2170.5) translate(0 23.322222222222223)"/><use xlink:href="#g" transform="matrix(1,0,0,1,866.8672513084302,2206.5) translate(0 23.322222222222223)"/><use xlink:href="#h" transform="matrix(1,0,0,1,866.8672513084302,2242.5) translate(0 23.322222222222223)"/><use xlink:href="#i" transform="matrix(1,0,0,1,866.8672513084302,2278.5) translate(0 23.322222222222223)"/><use xlink:href="#j" transform="matrix(1,0,0,1,866.8672513084302,2314.5) translate(0 23.322222222222223)"/><path d="M1580 1626a6 6 0 0 1 6-6h248a6 6 0 0 1 6 6v496a6 6 0 0 1-6 6h-248a6 6 0 0 1-6-6z" fill-opacity="0"/><path d="M1580 1660v-34a6 6 0 0 1 6-6h248a6 6 0 0 1 6 6v34" fill="#0c8ce9"/><path d="M1580 1626a6 6 0 0 1 6-6h248a6 6 0 0 1 6 6v496a6 6 0 0 1-6 6h-248a6 6 0 0 1-6-6zM1580 1660h260M1628.98 1660v468" stroke="#0c8ce9" fill="none"/><use xlink:href="#k" transform="matrix(1,0,0,1,1590,1620) translate(0 27.04)"/><use xlink:href="#b" transform="matrix(1,0,0,1,1585,1662.5) translate(8.295000000000002 21.836)"/><use xlink:href="#c" transform="matrix(1,0,0,1,1633.982841997326,1662.5) translate(0 23.322222222222223)"/><use xlink:href="#l" transform="matrix(1,0,0,1,1633.982841997326,1698.5) translate(0 23.322222222222223)"/><use xlink:href="#m" transform="matrix(1,0,0,1,1633.982841997326,1734.5) translate(0 23.322222222222223)"/><use xlink:href="#n" transform="matrix(1,0,0,1,1633.982841997326,1770.5) translate(0 23.322222222222223)"/><use xlink:href="#o" transform="matrix(1,0,0,1,1633.982841997326,1806.5) translate(0 23.322222222222223)"/><use xlink:href="#p" transform="matrix(1,0,0,1,1633.982841997326,1842.5) translate(0 23.322222222222223)"/><use xlink:href="#q" transform="matrix(1,0,0,1,1633.982841997326,1878.5) translate(0 23.322222222222223)"/><use xlink:href="#r" transform="matrix(1,0,0,1,1633.982841997326,1914.5) translate(0 23.322222222222223)"/><use xlink:href="#s" transform="matrix(1,0,0,1,1633.982841997326,1950.5) translate(0 23.322222222222223)"/><use xlink:href="#t" transform="matrix(1,0,0,1,1633.982841997326,1986.5) translate(0 23.322222222222223)"/><use xlink:href="#u" transform="matrix(1,0,0,1,1633.982841997326,2022.5) translate(0 23.322222222222223)"/><use xlink:href="#v" transform="matrix(1,0,0,1,1633.982841997326,2058.5) translate(0 23.322222222222223)"/><use xlink:href="#w" transform="matrix(1,0,0,1,1633.982841997326,2094.5) translate(0 23.322222222222223)"/><path d="M1220 1938a6 6 0 0 1 6-6h248a6 6 0 0 1 6 6v244a6 6 0 0 1-6 6h-248a6 6 0 0 1-6-6z" fill-opacity="0"/><path d="M1220 1972v-34a6 6 0 0 1 6-6h248a6 6 0 0 1 6 6v34" fill="#0c8ce9"/><path d="M1220 1938a6 6 0 0 1 6-6h248a6 6 0 0 1 6 6v244a6 6 0 0 1-6 6h-248a6 6 0 0 1-6-6zM1220 1972h260M1265.48 1972v216" stroke="#0c8ce9" fill="none"/><use xlink:href="#x" transform="matrix(1,0,0,1,1230,1932) translate(0 27.04)"/><use xlink:href="#b" transform="matrix(1,0,0,1,1225,1974.5) translate(6.795000000000002 21.836)"/><use xlink:href="#c" transform="matrix(1,0,0,1,1270.485257549412,1974.5) translate(0 23.322222222222223)"/><use xlink:href="#y" transform="matrix(1,0,0,1,1270.485257549412,2010.5) translate(0 23.322222222222223)"/><use xlink:href="#z" transform="matrix(1,0,0,1,1270.485257549412,2046.5) translate(0 23.322222222222223)"/><use xlink:href="#A" transform="matrix(1,0,0,1,1270.485257549412,2082.5) translate(0 23.322222222222223)"/><use xlink:href="#B" transform="matrix(1,0,0,1,1225,2118.5) translate(7.434000000000001 21.836)"/><use xlink:href="#C" transform="matrix(1,0,0,1,1270.485257549412,2118.5) translate(0 23.322222222222223)"/><use xlink:href="#B" transform="matrix(1,0,0,1,1225,2154.5) translate(7.434000000000001 21.836)"/><use xlink:href="#D" transform="matrix(1,0,0,1,1270.485257549412,2154.5) translate(0 23.322222222222223)"/><path d="M1559.5 1678.06H1536a6 6 0 0 0-6 6V2128a6 6 0 0 1-6 6h-23.5" stroke="#0c8ce9" stroke-width="2" fill="none"/><path d="M1569.5 1668.06v20M1579.5 1678.06h-20M1559.5 1668.06v20M1490.5 2144v-20M1480.5 2134h20M1500.5 2144v-20" stroke="#0c8ce9" stroke-width="2" fill="#fff"/><path d="M1240 2246a6 6 0 0 1 6-6h208a6 6 0 0 1 6 6v208a6 6 0 0 1-6 6h-208a6 6 0 0 1-6-6z" fill-opacity="0"/><path d="M1240 2280v-34a6 6 0 0 1 6-6h208a6 6 0 0 1 6 6v34" fill="#0c8ce9"/><path d="M1240 2246a6 6 0 0 1 6-6h208a6 6 0 0 1 6 6v208a6 6 0 0 1-6 6h-208a6 6 0 0 1-6-6zM1240 2280h220M1287 2280v180" stroke="#0c8ce9" fill="none"/><use xlink:href="#E" transform="matrix(1,0,0,1,1250,2240) translate(0 27.822222222222223)"/><use xlink:href="#b" transform="matrix(1,0,0,1,1245,2282.5) translate(7.295000000000002 21.836)"/><use xlink:href="#c" transform="matrix(1,0,0,1,1292,2282.5) translate(0 23.322222222222223)"/><use xlink:href="#y" transform="matrix(1,0,0,1,1292,2318.5) translate(0 23.322222222222223)"/><use xlink:href="#A" transform="matrix(1,0,0,1,1292,2354.5) translate(0 23.322222222222223)"/><use xlink:href="#F" transform="matrix(1,0,0,1,1292,2390.5) translate(0 23.322222222222223)"/><use xlink:href="#G" transform="matrix(1,0,0,1,1245,2426.5) translate(7.934000000000003 21.836)"/><use xlink:href="#D" transform="matrix(1,0,0,1,1292,2426.5) translate(0 23.322222222222223)"/><path d="M1580.02 2206a6 6 0 0 1 6-6h188a6 6 0 0 1 6 6v208a6 6 0 0 1-6 6h-188a6 6 0 0 1-6-6z" fill-opacity="0"/><path d="M1580.02 2240v-34a6 6 0 0 1 6-6h188a6 6 0 0 1 6 6v34" fill="#0c8ce9"/><path d="M1580.02 2206a6 6 0 0 1 6-6h188a6 6 0 0 1 6 6v208a6 6 0 0 1-6 6h-188a6 6 0 0 1-6-6zM1580.02 2240h200M1634.67 2240v180" stroke="#0c8ce9" fill="none"/><use xlink:href="#H" transform="matrix(1,0,0,1,1590.0146230904795,2200) translate(0 27.822222222222223)"/><use xlink:href="#b" transform="matrix(1,0,0,1,1585.0146230904795,2242.5) translate(11.295000000000002 21.836)"/><use xlink:href="#c" transform="matrix(1,0,0,1,1639.6666666666667,2242.5) translate(0 23.322222222222223)"/><use xlink:href="#I" transform="matrix(1,0,0,1,1639.6666666666667,2278.5) translate(0 23.322222222222223)"/><use xlink:href="#J" transform="matrix(1,0,0,1,1639.6666666666667,2314.5) translate(0 23.322222222222223)"/><use xlink:href="#K" transform="matrix(1,0,0,1,1639.6666666666667,2350.5) translate(0 23.322222222222223)"/><use xlink:href="#B" transform="matrix(1,0,0,1,1585.0146230904795,2386.5) translate(11.934000000000001 21.836)"/><use xlink:href="#L" transform="matrix(1,0,0,1,1639.6666666666667,2386.5) translate(0 23.322222222222223)"/><path d="M1559.52 2402h-33.5a6 6 0 0 1-6-6v-92a6 6 0 0 0-6-6h-33.52" stroke="#0c8ce9" stroke-width="2" fill="none"/><path d="M1579.07 2412l-20-10 20-10" stroke="#0c8ce9" stroke-width="2" fill="#fff" fill-opacity="0"/><path d="M1579.07 2402h-20M1559.07 2392v20M1470.5 2308v-20M1460.5 2298h20M1480.5 2308v-20" stroke="#0c8ce9" stroke-width="2" fill="#fff"/><path d="M1206.97 1666a6 6 0 0 1 6-6H1474a6 6 0 0 1 6 6v208a6 6 0 0 1-6 6h-261.03a6 6 0 0 1-6-6z" fill-opacity="0"/><path d="M1206.97 1700v-34a6 6 0 0 1 6-6H1474a6 6 0 0 1 6 6v34" fill="#0c8ce9"/><path d="M1206.97 1666a6 6 0 0 1 6-6H1474a6 6 0 0 1 6 6v208a6 6 0 0 1-6 6h-261.03a6 6 0 0 1-6-6zM1206.97 1700H1480M1247 1700v180" stroke="#0c8ce9" fill="none"/><use xlink:href="#M" transform="matrix(1,0,0,1,1216.9705150988239,1660) translate(0 27.822222222222223)"/><use xlink:href="#b" transform="matrix(1,0,0,1,1211.9705150988239,1702.5) translate(4.295000000000002 21.836)"/><use xlink:href="#c" transform="matrix(1,0,0,1,1252,1702.5) translate(0 23.322222222222223)"/><use xlink:href="#N" transform="matrix(1,0,0,1,1252,1738.5) translate(0 23.322222222222223)"/><use xlink:href="#O" transform="matrix(1,0,0,1,1252,1774.5) translate(0 23.322222222222223)"/><use xlink:href="#B" transform="matrix(1,0,0,1,1211.9705150988239,1810.5) translate(4.934000000000001 21.836)"/><use xlink:href="#P" transform="matrix(1,0,0,1,1252,1810.5) translate(0 23.322222222222223)"/><use xlink:href="#B" transform="matrix(1,0,0,1,1211.9705150988239,1846.5) translate(4.934000000000001 21.836)"/><use xlink:href="#Q" transform="matrix(1,0,0,1,1252,1846.5) translate(0 23.322222222222223)"/><path d="M1167.47 1862H1156a6 6 0 0 0-6 6v116a6 6 0 0 0 6 6h43.5" stroke="#0c8ce9" stroke-width="2" fill="none"/><path d="M1206.02 1872l-20-10 20-10" stroke="#0c8ce9" stroke-width="2" fill="#fff" fill-opacity="0"/><path d="M1206.02 1862h-20M1186.02 1862c0 5.52-4.47 10-10 10-5.52 0-10-4.48-10-10s4.48-10 10-10c5.53 0 10 4.48 10 10M1209.5 1980v20M1219.5 1990h-20M1199.5 1980v20" stroke="#0c8ce9" stroke-width="2" fill="#fff"/><path d="M800 1625a6 6 0 0 1 6-6h248a6 6 0 0 1 6 6v349a6 6 0 0 1-6 6H806a6 6 0 0 1-6-6z" fill-opacity="0"/><path d="M800 1659v-34a6 6 0 0 1 6-6h248a6 6 0 0 1 6 6v34" fill="#0c8ce9"/><path d="M800 1625a6 6 0 0 1 6-6h248a6 6 0 0 1 6 6v349a6 6 0 0 1-6 6H806a6 6 0 0 1-6-6zM800 1659h260M842.28 1659v321" stroke="#0c8ce9" fill="none"/><use xlink:href="#R" transform="matrix(1,0,0,1,810,1619) translate(0 27.822222222222223)"/><use xlink:href="#b" transform="matrix(1,0,0,1,805,1661.5) translate(5.295000000000002 21.836)"/><use xlink:href="#c" transform="matrix(1,0,0,1,847.2805957672925,1661.5) translate(0 23.322222222222223)"/><use xlink:href="#d" transform="matrix(1,0,0,1,847.2805957672925,1697.5) translate(0 23.322222222222223)"/><use xlink:href="#e" transform="matrix(1,0,0,1,847.2805957672925,1733.5) translate(0 23.322222222222223)"/><use xlink:href="#S" transform="matrix(1,0,0,1,847.2805957672925,1769.5) translate(0 23.322222222222223)"/><use xlink:href="#T" transform="matrix(1,0,0,1,847.2805957672925,1805.5) translate(0 23.322222222222223)"/><use xlink:href="#U" transform="matrix(1,0,0,1,847.2805957672925,1841.5) translate(0 23.322222222222223)"/><use xlink:href="#V" transform="matrix(1,0,0,1,847.2805957672925,1877.5) translate(0 21.04)"/><use xlink:href="#i" transform="matrix(1,0,0,1,847.2805957672925,1910.5) translate(0 23.322222222222223)"/><use xlink:href="#B" transform="matrix(1,0,0,1,805,1946.5) translate(5.934000000000001 21.836)"/><use xlink:href="#W" transform="matrix(1,0,0,1,847.2805957672925,1946.5) translate(0 23.400444444444446)"/><path d="M1065.5 2078h48.5a6 6 0 0 1 6 6v80a6 6 0 0 0 6 6h54.5" stroke="#0c8ce9" stroke-width="2" fill="none"/><path d="M1055.5 2088v-20M1045.5 2078h20M1065.5 2088v-20" stroke="#0c8ce9" stroke-width="2" fill="#fff"/><path d="M1219.05 2180l-20-10 20-10" stroke="#0c8ce9" stroke-width="2" fill="#fff" fill-opacity="0"/><path d="M1219.05 2170h-20M1199.05 2170c0 5.5-4.47 10-10 10-5.52 0-10-4.5-10-10 0-5.53 4.48-10 10-10 5.53 0 10 4.47 10 10" stroke="#0c8ce9" stroke-width="2" fill="#fff"/><path d="M1065.5 2078h48.5a6 6 0 0 1 6 6v352a6 6 0 0 0 6 6h74.5" stroke="#0c8ce9" stroke-width="2" fill="none"/><path d="M1055.5 2088v-20M1045.5 2078h20M1065.5 2088v-20" stroke="#0c8ce9" stroke-width="2" fill="#fff"/><path d="M1239.05 2452l-20-10 20-10" stroke="#0c8ce9" stroke-width="2" fill="#fff" fill-opacity="0"/><path d="M1239.05 2442h-20M1219.05 2442c0 5.52-4.47 10-10 10-5.52 0-10-4.48-10-10s4.48-10 10-10c5.53 0 10 4.48 10 10" stroke="#0c8ce9" stroke-width="2" fill="#fff"/><path d="M1167.47 1826H1136a6 6 0 0 1-6-6v-137a6 6 0 0 0-6-6h-43.5" stroke="#0c8ce9" stroke-width="2" fill="none"/><path d="M1206.02 1836l-20-10 20-10" stroke="#0c8ce9" stroke-width="2" fill="#fff" fill-opacity="0"/><path d="M1206.02 1826h-20M1186.02 1826c0 5.52-4.47 10-10 10-5.52 0-10-4.48-10-10s4.48-10 10-10c5.53 0 10 4.48 10 10M1070.5 1687v-20M1060.5 1677h20M1080.5 1687v-20" stroke="#0c8ce9" stroke-width="2" fill="#fff"/><path d="M500 2026a6 6 0 0 1 6-6h228a6 6 0 0 1 6 6v100a6 6 0 0 1-6 6H506a6 6 0 0 1-6-6z" fill-opacity="0"/><path d="M500 2060v-34a6 6 0 0 1 6-6h228a6 6 0 0 1 6 6v34" fill="#0c8ce9"/><path d="M500 2026a6 6 0 0 1 6-6h228a6 6 0 0 1 6 6v100a6 6 0 0 1-6 6H506a6 6 0 0 1-6-6zM500 2060h240M545.8 2060v72" stroke="#0c8ce9" fill="none"/><use xlink:href="#X" transform="matrix(1,0,0,1,510,2020) translate(0 27.822222222222223)"/><use xlink:href="#Y" transform="matrix(1,0,0,1,505,2062.5) translate(7.434000000000001 21.836)"/><use xlink:href="#Z" transform="matrix(1,0,0,1,550.7911636183035,2062.5) translate(0 23.322222222222223)"/><use xlink:href="#Y" transform="matrix(1,0,0,1,505,2098.5) translate(7.434000000000001 21.836)"/><use xlink:href="#aa" transform="matrix(1,0,0,1,550.7911636183035,2098.5) translate(0 23.322222222222223)"/><path d="M520 2206a6 6 0 0 1 6-6h188a6 6 0 0 1 6 6v64a6 6 0 0 1-6 6H526a6 6 0 0 1-6-6z" fill-opacity="0"/><path d="M520 2240v-34a6 6 0 0 1 6-6h188a6 6 0 0 1 6 6v34" fill="#0c8ce9"/><path d="M520 2206a6 6 0 0 1 6-6h188a6 6 0 0 1 6 6v64a6 6 0 0 1-6 6H526a6 6 0 0 1-6-6zM520 2240h200M569.37 2240v36" stroke="#0c8ce9" fill="none"/><use xlink:href="#ab" transform="matrix(1,0,0,1,530,2200) translate(0 27.822222222222223)"/><use xlink:href="#b" transform="matrix(1,0,0,1,525,2242.5) translate(8.795000000000002 21.836)"/><use xlink:href="#y" transform="matrix(1,0,0,1,574.3657954357328,2242.5) translate(0 23.322222222222223)"/><path d="M794.5 2078h-35.18" stroke="#0c8ce9" stroke-width="2" fill="none"/><path d="M794.5 2068v20M814.5 2078h-20" stroke="#0c8ce9" stroke-width="2" fill="#fff"/><path d="M740.95 2068l20 10-20 10" stroke="#0c8ce9" stroke-width="2" fill="#fff" fill-opacity="0"/><path d="M740.95 2078h20" stroke="#0c8ce9" stroke-width="2" fill="#fff"/><path d="M740.5 2258h34a6 6 0 0 0 6-6v-132a6 6 0 0 0-6-6h-15.18" stroke="#0c8ce9" stroke-width="2" fill="none"/><path d="M740.5 2268v-20M720.5 2258h20" stroke="#0c8ce9" stroke-width="2" fill="#fff"/><path d="M740.95 2104l20 10-20 10" stroke="#0c8ce9" stroke-width="2" fill="#fff" fill-opacity="0"/><path d="M740.95 2114h20" stroke="#0c8ce9" stroke-width="2" fill="#fff"/><path d="M1079.32 1962H1114a6 6 0 0 1 6 6v104a6 6 0 0 1-6 6h-48.5" stroke="#0c8ce9" stroke-width="2" fill="none"/><path d="M1060.95 1952l20 10-20 10" stroke="#0c8ce9" stroke-width="2" fill="#fff" fill-opacity="0"/><path d="M1060.95 1962h20M1055.5 2088v-20M1045.5 2078h20M1065.5 2088v-20" stroke="#0c8ce9" stroke-width="2" fill="#fff"/><defs><path fill="#fff" d="M609-258C606-86 520 15 346 15S83-86 83-258v-435h97v424c-3 125 55 198 166 198 117 0 165-77 166-198v-424h97v435" id="ac"/><path fill="#fff" d="M59-97c36 13 83 32 144 30 63-2 112-9 112-63 0-99-160-93-221-153-24-24-44-52-44-100 0-151 196-178 331-127l-17 80c-60-35-257-49-214 69 69 92 264 59 259 227-2 107-89 146-206 146C133 12 82-2 42-17" id="ad"/><path fill="#fff" d="M315 12C141 9 53-87 53-259c0-164 81-274 237-274 163 0 227 118 216 298H150c9 108 58 165 175 165 54 0 101-11 133-25l13 78c-33 16-99 31-156 29zm95-322c8-101-82-177-178-132-47 22-73 71-80 132h258" id="ae"/><path fill="#fff" d="M82-498c73-28 204-47 296-18l-16 81c-44-19-138-19-187-2V0H82v-498" id="af"/><g id="a"><use transform="matrix(0.022222222222222223,0,0,0.022222222222222223,0,0)" xlink:href="#ac"/><use transform="matrix(0.022222222222222223,0,0,0.022222222222222223,15.377777777777778,0)" xlink:href="#ad"/><use transform="matrix(0.022222222222222223,0,0,0.022222222222222223,25.37777777777778,0)" xlink:href="#ae"/><use transform="matrix(0.022222222222222223,0,0,0.022222222222222223,37.88888888888889,0)" xlink:href="#af"/></g><path d="M88-683c49-13 125-17 184-17 175 0 303 59 303 221 0 202-179 229-390 222V0H88v-683zm385 203c0-140-156-141-288-132v272c146 2 288 4 288-140" id="ag"/><path d="M185-387c99-95 208-204 299-306h117c-98 108-210 222-315 324C416-272 538-140 625 0H511c-85-128-198-245-326-329V0H88v-693h97v306" id="ah"/><g id="b"><use transform="matrix(0.018,0,0,0.018,0,0)" xlink:href="#ag"/><use transform="matrix(0.018,0,0,0.018,11.016,0)" xlink:href="#ah"/></g><path d="M175 0H82v-520h93V0zm13-675c0 35-26 61-60 61s-60-26-60-61 26-61 60-61 60 26 60 61" id="ai"/><path d="M315-70c41 0 75-4 103-11v-329c-24-19-73-42-119-40-110 2-147 80-149 190-2 113 59 189 165 190zm-28-462c51-2 103 18 131 35v-263l93-16v761C458-1 388 13 314 12 145 7 53-90 53-260c0-162 75-266 234-272" id="aj"/><g id="c"><use transform="matrix(0.022222222222222223,0,0,0.022222222222222223,0,0)" xlink:href="#ai"/><use transform="matrix(0.022222222222222223,0,0,0.022222222222222223,5.711111111111111,0)" xlink:href="#aj"/></g><path d="M82-567C68-745 227-812 397-759l-17 80c-21-10-52-17-88-17-102 0-122 72-117 176h200v78H175V0H82v-567" id="ak"/><path d="M82-498c73-28 204-47 296-18l-16 81c-44-19-138-19-187-2V0H82v-498" id="al"/><path d="M59-97c36 13 83 32 144 30 63-2 112-9 112-63 0-99-160-93-221-153-24-24-44-52-44-100 0-151 196-178 331-127l-17 80c-60-35-257-49-214 69 69 92 264 59 259 227-2 107-89 146-206 146C133 12 82-2 42-17" id="am"/><path d="M257 11C121 11 76-66 76-201v-464l93-16v161h197v78H169v240c-1 80 17 131 96 131 43 0 79-13 103-23l18 77c-27 12-82 28-129 28" id="an"/><path d="M-2 106h500v79H-2v-79" id="ao"/><path d="M279-449c-36 1-74 4-104 10V0H82v-505c55-13 130-26 207-26 153 0 213 87 213 239V0h-93v-272c1-107-22-180-130-177" id="ap"/><path d="M139-156c0 106 132 93 220 82v-155c-78-22-220-23-220 73zm-94 1c-2-152 173-180 314-148 5-94-26-150-117-150-50 0-101 8-132 20l-11-77c32-13 99-23 151-23 135 0 201 66 200 199V-9C390 1 319 11 247 11 126 11 46-34 45-155" id="aq"/><path d="M278-449c-36 0-74 4-103 10V0H82v-505c94-23 290-55 347 27 41-28 96-52 166-53 149-3 194 91 194 239V0h-93v-272c0-100-11-177-111-177-50 0-96 17-119 35 30 114 10 276 16 414h-93v-272c0-99-12-179-111-177" id="ar"/><path d="M315 12C141 9 53-87 53-259c0-164 81-274 237-274 163 0 227 118 216 298H150c9 108 58 165 175 165 54 0 101-11 133-25l13 78c-33 16-99 31-156 29zm95-322c8-101-82-177-178-132-47 22-73 71-80 132h258" id="as"/><g id="d"><use transform="matrix(0.022222222222222223,0,0,0.022222222222222223,0,0)" xlink:href="#ak"/><use transform="matrix(0.022222222222222223,0,0,0.022222222222222223,8.666666666666668,0)" xlink:href="#ai"/><use transform="matrix(0.022222222222222223,0,0,0.022222222222222223,14.37777777777778,0)" xlink:href="#al"/><use transform="matrix(0.022222222222222223,0,0,0.022222222222222223,23.044444444444444,0)" xlink:href="#am"/><use transform="matrix(0.022222222222222223,0,0,0.022222222222222223,33.04444444444445,0)" xlink:href="#an"/><use transform="matrix(0.022222222222222223,0,0,0.022222222222222223,42.06666666666668,0)" xlink:href="#ao"/><use transform="matrix(0.022222222222222223,0,0,0.022222222222222223,53.0888888888889,0)" xlink:href="#ap"/><use transform="matrix(0.022222222222222223,0,0,0.022222222222222223,65.93333333333335,0)" xlink:href="#aq"/><use transform="matrix(0.022222222222222223,0,0,0.022222222222222223,77.62222222222223,0)" xlink:href="#ar"/><use transform="matrix(0.022222222222222223,0,0,0.022222222222222223,96.84444444444446,0)" xlink:href="#as"/></g><path d="M173-151c-3 59 26 79 78 83l-13 78C129 7 80-30 80-136v-624l93-16v625" id="at"/><g id="e"><use transform="matrix(0.022222222222222223,0,0,0.022222222222222223,0,0)" xlink:href="#at"/><use transform="matrix(0.022222222222222223,0,0,0.022222222222222223,6.155555555555556,0)" xlink:href="#aq"/><use transform="matrix(0.022222222222222223,0,0,0.022222222222222223,17.844444444444445,0)" xlink:href="#am"/><use transform="matrix(0.022222222222222223,0,0,0.022222222222222223,27.844444444444445,0)" xlink:href="#an"/><use transform="matrix(0.022222222222222223,0,0,0.022222222222222223,36.86666666666667,0)" xlink:href="#ao"/><use transform="matrix(0.022222222222222223,0,0,0.022222222222222223,47.88888888888889,0)" xlink:href="#ap"/><use transform="matrix(0.022222222222222223,0,0,0.022222222222222223,60.733333333333334,0)" xlink:href="#aq"/><use transform="matrix(0.022222222222222223,0,0,0.022222222222222223,72.42222222222222,0)" xlink:href="#ar"/><use transform="matrix(0.022222222222222223,0,0,0.022222222222222223,91.64444444444445,0)" xlink:href="#as"/></g><g id="f"><use transform="matrix(0.022222222222222223,0,0,0.022222222222222223,0,0)" xlink:href="#as"/><use transform="matrix(0.022222222222222223,0,0,0.022222222222222223,12.511111111111111,0)" xlink:href="#ar"/><use transform="matrix(0.022222222222222223,0,0,0.022222222222222223,31.733333333333334,0)" xlink:href="#aq"/><use transform="matrix(0.022222222222222223,0,0,0.022222222222222223,43.422222222222224,0)" xlink:href="#ai"/><use transform="matrix(0.022222222222222223,0,0,0.022222222222222223,49.13333333333333,0)" xlink:href="#at"/></g><path d="M294-70c109-2 147-79 149-189 2-113-59-188-165-189-45 0-73 2-103 10v328c24 19 73 42 119 40zm-15-461c169 5 261 102 261 272C540-98 465 6 306 12c-51 2-103-18-131-35v208H82v-689c54-12 122-29 197-27" id="au"/><path d="M761-520C714-334 656-153 588 0h-81c-40-105-86-236-117-357-31 122-76 252-116 357h-81C125-153 67-334 20-520h100c31 138 71 286 118 407 45-126 85-269 117-407h77c30 140 70 281 115 407 46-123 88-268 118-407h96" id="av"/><path d="M297-533c160 0 244 110 244 273S457 13 297 13 53-97 53-260s84-273 244-273zm0 464c98 0 147-85 147-191s-49-191-147-191-147 85-147 191S199-69 297-69" id="aw"/><path d="M279-449c-38 1-76 8-104 17V0H82v-760l93-16v266c32-12 72-21 114-21 153-1 213 87 213 239V0h-93v-272c1-107-22-181-130-177" id="ax"/><g id="g"><use transform="matrix(0.022222222222222223,0,0,0.022222222222222223,0,0)" xlink:href="#au"/><use transform="matrix(0.022222222222222223,0,0,0.022222222222222223,13.177777777777779,0)" xlink:href="#aq"/><use transform="matrix(0.022222222222222223,0,0,0.022222222222222223,24.866666666666667,0)" xlink:href="#am"/><use transform="matrix(0.022222222222222223,0,0,0.022222222222222223,34.86666666666667,0)" xlink:href="#am"/><use transform="matrix(0.022222222222222223,0,0,0.022222222222222223,44.86666666666667,0)" xlink:href="#av"/><use transform="matrix(0.022222222222222223,0,0,0.022222222222222223,61.955555555555556,0)" xlink:href="#aw"/><use transform="matrix(0.022222222222222223,0,0,0.022222222222222223,75.15555555555557,0)" xlink:href="#al"/><use transform="matrix(0.022222222222222223,0,0,0.022222222222222223,83.82222222222224,0)" xlink:href="#aj"/><use transform="matrix(0.022222222222222223,0,0,0.022222222222222223,97.00000000000003,0)" xlink:href="#ao"/><use transform="matrix(0.022222222222222223,0,0,0.022222222222222223,108.02222222222224,0)" xlink:href="#ax"/><use transform="matrix(0.022222222222222223,0,0,0.022222222222222223,120.80000000000001,0)" xlink:href="#aq"/><use transform="matrix(0.022222222222222223,0,0,0.022222222222222223,132.4888888888889,0)" xlink:href="#am"/><use transform="matrix(0.022222222222222223,0,0,0.022222222222222223,142.4888888888889,0)" xlink:href="#ax"/></g><path d="M252 108c114 0 161-44 156-160-25 15-79 35-127 33-151-6-228-96-228-252 0-162 90-254 252-260 75-2 141 15 195 27v464c0 164-85 227-250 228-62 1-124-12-168-27l17-81c38 15 98 28 153 28zm38-207c46 2 92-16 117-35v-304c-29-7-58-11-101-11-102-1-157 76-156 179 2 102 44 167 140 171" id="ay"/><g id="h"><use transform="matrix(0.022222222222222223,0,0,0.022222222222222223,0,0)" xlink:href="#ai"/><use transform="matrix(0.022222222222222223,0,0,0.022222222222222223,5.711111111111111,0)" xlink:href="#ar"/><use transform="matrix(0.022222222222222223,0,0,0.022222222222222223,24.933333333333334,0)" xlink:href="#aq"/><use transform="matrix(0.022222222222222223,0,0,0.022222222222222223,36.62222222222222,0)" xlink:href="#ay"/><use transform="matrix(0.022222222222222223,0,0,0.022222222222222223,49.55555555555556,0)" xlink:href="#as"/></g><path d="M490-520c-69 78-147 159-220 234 93 75 176 181 240 286H401c-59-95-136-186-226-250V0H82v-760l93-16v474c70-69 142-144 206-218h109" id="az"/><path d="M266-100c50-137 84-270 119-420h96C435-330 371-148 306 16 261 129 164 226 4 172l17-75c41 21 118 16 149-11 20-17 39-42 56-79C145-149 66-333 18-520h100c37 148 89 293 148 420" id="aA"/><g id="i"><use transform="matrix(0.022222222222222223,0,0,0.022222222222222223,0,0)" xlink:href="#at"/><use transform="matrix(0.022222222222222223,0,0,0.022222222222222223,6.155555555555556,0)" xlink:href="#aq"/><use transform="matrix(0.022222222222222223,0,0,0.022222222222222223,17.844444444444445,0)" xlink:href="#ap"/><use transform="matrix(0.022222222222222223,0,0,0.022222222222222223,30.68888888888889,0)" xlink:href="#ay"/><use transform="matrix(0.022222222222222223,0,0,0.022222222222222223,43.62222222222222,0)" xlink:href="#ao"/><use transform="matrix(0.022222222222222223,0,0,0.022222222222222223,54.644444444444446,0)" xlink:href="#az"/><use transform="matrix(0.022222222222222223,0,0,0.022222222222222223,65.75555555555556,0)" xlink:href="#as"/><use transform="matrix(0.022222222222222223,0,0,0.022222222222222223,78.26666666666667,0)" xlink:href="#aA"/></g><path d="M447-14c-35 17-88 26-139 26C139 12 53-90 53-259c0-187 118-299 319-268 23 4 46 10 67 19l-21 79c-28-13-66-22-107-22-111 1-162 75-161 192 1 118 51 189 170 189 43 1 87-10 114-22" id="aB"/><path d="M255-109c52-125 101-269 137-411h96C441-339 364-151 295 0h-84C142-151 64-339 18-520h100c36 142 85 286 137 411" id="aC"/><g id="j"><use transform="matrix(0.022222222222222223,0,0,0.022222222222222223,0,0)" xlink:href="#aq"/><use transform="matrix(0.022222222222222223,0,0,0.022222222222222223,11.68888888888889,0)" xlink:href="#aB"/><use transform="matrix(0.022222222222222223,0,0,0.022222222222222223,22.111111111111114,0)" xlink:href="#an"/><use transform="matrix(0.022222222222222223,0,0,0.022222222222222223,31.133333333333333,0)" xlink:href="#ai"/><use transform="matrix(0.022222222222222223,0,0,0.022222222222222223,36.84444444444445,0)" xlink:href="#aC"/><use transform="matrix(0.022222222222222223,0,0,0.022222222222222223,48.08888888888889,0)" xlink:href="#aq"/><use transform="matrix(0.022222222222222223,0,0,0.022222222222222223,59.77777777777779,0)" xlink:href="#an"/><use transform="matrix(0.022222222222222223,0,0,0.022222222222222223,68.57777777777778,0)" xlink:href="#as"/><use transform="matrix(0.022222222222222223,0,0,0.022222222222222223,81.08888888888889,0)" xlink:href="#aj"/></g><path fill="#fff" d="M64-114c42 22 110 45 185 45 127 0 189-72 139-159-74-129-329-76-337-288-8-203 271-234 423-150l-31 79c-73-47-295-73-292 60 2 88 82 103 147 131 102 44 200 79 205 222C510 40 191 50 35-34" id="aD"/><path fill="#fff" d="M255-109c52-125 101-269 137-411h96C441-339 364-151 295 0h-84C142-151 64-339 18-520h100c36 142 85 286 137 411" id="aE"/><path fill="#fff" d="M175 0H82v-520h93V0zm13-675c0 35-26 61-60 61s-60-26-60-61 26-61 60-61 60 26 60 61" id="aF"/><path fill="#fff" d="M447-14c-35 17-88 26-139 26C139 12 53-90 53-259c0-187 118-299 319-268 23 4 46 10 67 19l-21 79c-28-13-66-22-107-22-111 1-162 75-161 192 1 118 51 189 170 189 43 1 87-10 114-22" id="aG"/><path fill="#fff" d="M88-683c49-13 125-17 184-17 175 0 303 59 303 221 0 202-179 229-390 222V0H88v-683zm385 203c0-140-156-141-288-132v272c146 2 288 4 288-140" id="aH"/><path fill="#fff" d="M297-533c160 0 244 110 244 273S457 13 297 13 53-97 53-260s84-273 244-273zm0 464c98 0 147-85 147-191s-49-191-147-191-147 85-147 191S199-69 297-69" id="aI"/><path fill="#fff" d="M315-70c41 0 75-4 103-11v-329c-24-19-73-42-119-40-110 2-147 80-149 190-2 113 59 189 165 190zm-28-462c51-2 103 18 131 35v-263l93-16v761C458-1 388 13 314 12 145 7 53-90 53-260c0-162 75-266 234-272" id="aJ"/><g id="k"><use transform="matrix(0.02,0,0,0.02,0,0)" xlink:href="#aD"/><use transform="matrix(0.02,0,0,0.02,10.72,0)" xlink:href="#ae"/><use transform="matrix(0.02,0,0,0.02,21.98,0)" xlink:href="#af"/><use transform="matrix(0.02,0,0,0.02,30.2,0)" xlink:href="#aE"/><use transform="matrix(0.02,0,0,0.02,40.32000000000001,0)" xlink:href="#aF"/><use transform="matrix(0.02,0,0,0.02,45.46000000000001,0)" xlink:href="#aG"/><use transform="matrix(0.02,0,0,0.02,54.84000000000001,0)" xlink:href="#ae"/><use transform="matrix(0.02,0,0,0.02,66.10000000000001,0)" xlink:href="#aH"/><use transform="matrix(0.02,0,0,0.02,78.34,0)" xlink:href="#af"/><use transform="matrix(0.02,0,0,0.02,86.14,0)" xlink:href="#aI"/><use transform="matrix(0.02,0,0,0.02,97.74000000000001,0)" xlink:href="#aE"/><use transform="matrix(0.02,0,0,0.02,107.86,0)" xlink:href="#aF"/><use transform="matrix(0.02,0,0,0.02,113,0)" xlink:href="#aJ"/><use transform="matrix(0.02,0,0,0.02,124.86,0)" xlink:href="#ae"/><use transform="matrix(0.02,0,0,0.02,136.12,0)" xlink:href="#af"/></g><g id="l"><use transform="matrix(0.022222222222222223,0,0,0.022222222222222223,0,0)" xlink:href="#au"/><use transform="matrix(0.022222222222222223,0,0,0.022222222222222223,13.177777777777779,0)" xlink:href="#al"/><use transform="matrix(0.022222222222222223,0,0,0.022222222222222223,21.84444444444445,0)" xlink:href="#aw"/><use transform="matrix(0.022222222222222223,0,0,0.022222222222222223,34.73333333333334,0)" xlink:href="#aC"/><use transform="matrix(0.022222222222222223,0,0,0.022222222222222223,45.97777777777779,0)" xlink:href="#ai"/><use transform="matrix(0.022222222222222223,0,0,0.022222222222222223,51.688888888888904,0)" xlink:href="#aj"/><use transform="matrix(0.022222222222222223,0,0,0.022222222222222223,64.86666666666667,0)" xlink:href="#as"/><use transform="matrix(0.022222222222222223,0,0,0.022222222222222223,77.37777777777778,0)" xlink:href="#al"/><use transform="matrix(0.022222222222222223,0,0,0.022222222222222223,86.04444444444445,0)" xlink:href="#ao"/><use transform="matrix(0.022222222222222223,0,0,0.022222222222222223,97.06666666666668,0)" xlink:href="#ai"/><use transform="matrix(0.022222222222222223,0,0,0.022222222222222223,102.77777777777779,0)" xlink:href="#aj"/></g><g id="m"><use transform="matrix(0.022222222222222223,0,0,0.022222222222222223,0,0)" xlink:href="#ax"/><use transform="matrix(0.022222222222222223,0,0,0.022222222222222223,12.777777777777779,0)" xlink:href="#aw"/><use transform="matrix(0.022222222222222223,0,0,0.022222222222222223,25.977777777777785,0)" xlink:href="#am"/><use transform="matrix(0.022222222222222223,0,0,0.022222222222222223,35.97777777777778,0)" xlink:href="#an"/></g><g id="n"><use transform="matrix(0.022222222222222223,0,0,0.022222222222222223,0,0)" xlink:href="#au"/><use transform="matrix(0.022222222222222223,0,0,0.022222222222222223,13.177777777777779,0)" xlink:href="#aw"/><use transform="matrix(0.022222222222222223,0,0,0.022222222222222223,26.37777777777778,0)" xlink:href="#al"/><use transform="matrix(0.022222222222222223,0,0,0.022222222222222223,35.04444444444445,0)" xlink:href="#an"/></g><g id="o"><use transform="matrix(0.022222222222222223,0,0,0.022222222222222223,0,0)" xlink:href="#as"/><use transform="matrix(0.022222222222222223,0,0,0.022222222222222223,12.511111111111111,0)" xlink:href="#ap"/><use transform="matrix(0.022222222222222223,0,0,0.022222222222222223,25.355555555555558,0)" xlink:href="#aB"/><use transform="matrix(0.022222222222222223,0,0,0.022222222222222223,35.77777777777778,0)" xlink:href="#al"/><use transform="matrix(0.022222222222222223,0,0,0.022222222222222223,44.91111111111111,0)" xlink:href="#aA"/><use transform="matrix(0.022222222222222223,0,0,0.022222222222222223,56.044444444444444,0)" xlink:href="#au"/><use transform="matrix(0.022222222222222223,0,0,0.022222222222222223,69.22222222222223,0)" xlink:href="#an"/><use transform="matrix(0.022222222222222223,0,0,0.022222222222222223,78.24444444444445,0)" xlink:href="#ai"/><use transform="matrix(0.022222222222222223,0,0,0.022222222222222223,83.95555555555556,0)" xlink:href="#aw"/><use transform="matrix(0.022222222222222223,0,0,0.022222222222222223,97.15555555555557,0)" xlink:href="#ap"/></g><path d="M300-71c36 0 74-3 103-10v-439h93v505C441-2 367 11 290 11 138 11 76-78 76-228v-292h93v272c2 116 24 177 131 177" id="aK"/><g id="p"><use transform="matrix(0.022222222222222223,0,0,0.022222222222222223,0,0)" xlink:href="#aK"/><use transform="matrix(0.022222222222222223,0,0,0.022222222222222223,12.844444444444445,0)" xlink:href="#am"/><use transform="matrix(0.022222222222222223,0,0,0.022222222222222223,22.844444444444445,0)" xlink:href="#as"/><use transform="matrix(0.022222222222222223,0,0,0.022222222222222223,35.355555555555554,0)" xlink:href="#al"/><use transform="matrix(0.022222222222222223,0,0,0.022222222222222223,44.022222222222226,0)" xlink:href="#ap"/><use transform="matrix(0.022222222222222223,0,0,0.022222222222222223,56.86666666666668,0)" xlink:href="#aq"/><use transform="matrix(0.022222222222222223,0,0,0.022222222222222223,68.55555555555557,0)" xlink:href="#ar"/><use transform="matrix(0.022222222222222223,0,0,0.022222222222222223,87.7777777777778,0)" xlink:href="#as"/></g><g id="q"><use transform="matrix(0.022222222222222223,0,0,0.022222222222222223,0,0)" xlink:href="#au"/><use transform="matrix(0.022222222222222223,0,0,0.022222222222222223,13.177777777777779,0)" xlink:href="#aq"/><use transform="matrix(0.022222222222222223,0,0,0.022222222222222223,24.866666666666667,0)" xlink:href="#am"/><use transform="matrix(0.022222222222222223,0,0,0.022222222222222223,34.86666666666667,0)" xlink:href="#am"/><use transform="matrix(0.022222222222222223,0,0,0.022222222222222223,44.86666666666667,0)" xlink:href="#av"/><use transform="matrix(0.022222222222222223,0,0,0.022222222222222223,61.955555555555556,0)" xlink:href="#aw"/><use transform="matrix(0.022222222222222223,0,0,0.022222222222222223,75.15555555555557,0)" xlink:href="#al"/><use transform="matrix(0.022222222222222223,0,0,0.022222222222222223,83.82222222222224,0)" xlink:href="#aj"/></g><g id="r"><use transform="matrix(0.022222222222222223,0,0,0.022222222222222223,0,0)" xlink:href="#ak"/><use transform="matrix(0.022222222222222223,0,0,0.022222222222222223,8.666666666666668,0)" xlink:href="#aw"/><use transform="matrix(0.022222222222222223,0,0,0.022222222222222223,21.866666666666667,0)" xlink:href="#al"/><use transform="matrix(0.022222222222222223,0,0,0.022222222222222223,30.533333333333335,0)" xlink:href="#ar"/></g><g id="s"><use transform="matrix(0.022222222222222223,0,0,0.022222222222222223,0,0)" xlink:href="#ai"/><use transform="matrix(0.022222222222222223,0,0,0.022222222222222223,5.711111111111111,0)" xlink:href="#aj"/><use transform="matrix(0.022222222222222223,0,0,0.022222222222222223,18.88888888888889,0)" xlink:href="#as"/><use transform="matrix(0.022222222222222223,0,0,0.022222222222222223,31.399999999999995,0)" xlink:href="#ap"/><use transform="matrix(0.022222222222222223,0,0,0.022222222222222223,44.24444444444444,0)" xlink:href="#an"/><use transform="matrix(0.022222222222222223,0,0,0.022222222222222223,53.266666666666666,0)" xlink:href="#ai"/><use transform="matrix(0.022222222222222223,0,0,0.022222222222222223,58.97777777777777,0)" xlink:href="#ak"/><use transform="matrix(0.022222222222222223,0,0,0.022222222222222223,67.64444444444445,0)" xlink:href="#ai"/><use transform="matrix(0.022222222222222223,0,0,0.022222222222222223,73.35555555555555,0)" xlink:href="#as"/><use transform="matrix(0.022222222222222223,0,0,0.022222222222222223,85.86666666666666,0)" xlink:href="#al"/></g><g id="t"><use transform="matrix(0.022222222222222223,0,0,0.022222222222222223,0,0)" xlink:href="#an"/><use transform="matrix(0.022222222222222223,0,0,0.022222222222222223,8.71111111111111,0)" xlink:href="#aw"/><use transform="matrix(0.022222222222222223,0,0,0.022222222222222223,21.91111111111111,0)" xlink:href="#az"/><use transform="matrix(0.022222222222222223,0,0,0.022222222222222223,33.022222222222226,0)" xlink:href="#as"/><use transform="matrix(0.022222222222222223,0,0,0.022222222222222223,45.53333333333334,0)" xlink:href="#ap"/></g><g id="u"><use transform="matrix(0.022222222222222223,0,0,0.022222222222222223,0,0)" xlink:href="#ar"/><use transform="matrix(0.022222222222222223,0,0,0.022222222222222223,19.22222222222222,0)" xlink:href="#as"/><use transform="matrix(0.022222222222222223,0,0,0.022222222222222223,31.733333333333334,0)" xlink:href="#am"/><use transform="matrix(0.022222222222222223,0,0,0.022222222222222223,41.733333333333334,0)" xlink:href="#am"/><use transform="matrix(0.022222222222222223,0,0,0.022222222222222223,51.733333333333334,0)" xlink:href="#aq"/><use transform="matrix(0.022222222222222223,0,0,0.022222222222222223,63.422222222222224,0)" xlink:href="#ay"/><use transform="matrix(0.022222222222222223,0,0,0.022222222222222223,76.35555555555555,0)" xlink:href="#ai"/><use transform="matrix(0.022222222222222223,0,0,0.022222222222222223,82.06666666666666,0)" xlink:href="#ap"/><use transform="matrix(0.022222222222222223,0,0,0.022222222222222223,94.91111111111111,0)" xlink:href="#ay"/><use transform="matrix(0.022222222222222223,0,0,0.022222222222222223,107.84444444444445,0)" xlink:href="#ao"/><use transform="matrix(0.022222222222222223,0,0,0.022222222222222223,118.86666666666667,0)" xlink:href="#am"/><use transform="matrix(0.022222222222222223,0,0,0.022222222222222223,128.86666666666667,0)" xlink:href="#as"/><use transform="matrix(0.022222222222222223,0,0,0.022222222222222223,141.3777777777778,0)" xlink:href="#al"/><use transform="matrix(0.022222222222222223,0,0,0.022222222222222223,150.51111111111112,0)" xlink:href="#aC"/><use transform="matrix(0.022222222222222223,0,0,0.022222222222222223,161.75555555555556,0)" xlink:href="#ai"/><use transform="matrix(0.022222222222222223,0,0,0.022222222222222223,167.46666666666667,0)" xlink:href="#aB"/><use transform="matrix(0.022222222222222223,0,0,0.022222222222222223,177.88888888888889,0)" xlink:href="#as"/></g><g id="v"><use transform="matrix(0.022222222222222223,0,0,0.022222222222222223,0,0)" xlink:href="#aB"/><use transform="matrix(0.022222222222222223,0,0,0.022222222222222223,10.422222222222222,0)" xlink:href="#ax"/><use transform="matrix(0.022222222222222223,0,0,0.022222222222222223,23.2,0)" xlink:href="#aq"/><use transform="matrix(0.022222222222222223,0,0,0.022222222222222223,34.88888888888889,0)" xlink:href="#ap"/><use transform="matrix(0.022222222222222223,0,0,0.022222222222222223,47.733333333333334,0)" xlink:href="#ap"/><use transform="matrix(0.022222222222222223,0,0,0.022222222222222223,60.57777777777778,0)" xlink:href="#as"/><use transform="matrix(0.022222222222222223,0,0,0.022222222222222223,73.08888888888889,0)" xlink:href="#at"/><use transform="matrix(0.022222222222222223,0,0,0.022222222222222223,79.24444444444444,0)" xlink:href="#ao"/><use transform="matrix(0.022222222222222223,0,0,0.022222222222222223,90.26666666666667,0)" xlink:href="#am"/><use transform="matrix(0.022222222222222223,0,0,0.022222222222222223,100.26666666666667,0)" xlink:href="#as"/><use transform="matrix(0.022222222222222223,0,0,0.022222222222222223,112.77777777777776,0)" xlink:href="#aB"/><use transform="matrix(0.022222222222222223,0,0,0.022222222222222223,123.19999999999999,0)" xlink:href="#al"/><use transform="matrix(0.022222222222222223,0,0,0.022222222222222223,131.86666666666665,0)" xlink:href="#as"/><use transform="matrix(0.022222222222222223,0,0,0.022222222222222223,144.37777777777777,0)" xlink:href="#an"/></g><g id="w"><use transform="matrix(0.022222222222222223,0,0,0.022222222222222223,0,0)" xlink:href="#am"/><use transform="matrix(0.022222222222222223,0,0,0.022222222222222223,10,0)" xlink:href="#as"/><use transform="matrix(0.022222222222222223,0,0,0.022222222222222223,22.511111111111113,0)" xlink:href="#al"/><use transform="matrix(0.022222222222222223,0,0,0.022222222222222223,31.644444444444446,0)" xlink:href="#aC"/><use transform="matrix(0.022222222222222223,0,0,0.022222222222222223,42.88888888888889,0)" xlink:href="#ai"/><use transform="matrix(0.022222222222222223,0,0,0.022222222222222223,48.6,0)" xlink:href="#aB"/><use transform="matrix(0.022222222222222223,0,0,0.022222222222222223,59.022222222222226,0)" xlink:href="#as"/><use transform="matrix(0.022222222222222223,0,0,0.022222222222222223,71.53333333333333,0)" xlink:href="#ao"/><use transform="matrix(0.022222222222222223,0,0,0.022222222222222223,82.55555555555556,0)" xlink:href="#aq"/><use transform="matrix(0.022222222222222223,0,0,0.022222222222222223,94.24444444444445,0)" xlink:href="#aB"/><use transform="matrix(0.022222222222222223,0,0,0.022222222222222223,104.66666666666666,0)" xlink:href="#aB"/><use transform="matrix(0.022222222222222223,0,0,0.022222222222222223,114.79999999999998,0)" xlink:href="#aw"/><use transform="matrix(0.022222222222222223,0,0,0.022222222222222223,127.99999999999999,0)" xlink:href="#aK"/><use transform="matrix(0.022222222222222223,0,0,0.022222222222222223,140.84444444444443,0)" xlink:href="#ap"/><use transform="matrix(0.022222222222222223,0,0,0.022222222222222223,153.68888888888887,0)" xlink:href="#an"/></g><path fill="#fff" d="M597-29C545 0 469 15 386 15 168 15 67-125 60-347c-8-284 240-432 510-326 11 4 18 9 22 12l-28 80c-42-23-98-43-163-43-163 0-238 111-238 277 0 165 69 273 232 277 73 3 134-19 177-39" id="aL"/><path fill="#fff" d="M279-449c-38 1-76 8-104 17V0H82v-760l93-16v266c32-12 72-21 114-21 153-1 213 87 213 239V0h-93v-272c1-107-22-181-130-177" id="aM"/><path fill="#fff" d="M139-156c0 106 132 93 220 82v-155c-78-22-220-23-220 73zm-94 1c-2-152 173-180 314-148 5-94-26-150-117-150-50 0-101 8-132 20l-11-77c32-13 99-23 151-23 135 0 201 66 200 199V-9C390 1 319 11 247 11 126 11 46-34 45-155" id="aN"/><path fill="#fff" d="M279-449c-36 1-74 4-104 10V0H82v-505c55-13 130-26 207-26 153 0 213 87 213 239V0h-93v-272c1-107-22-180-130-177" id="aO"/><path fill="#fff" d="M173-151c-3 59 26 79 78 83l-13 78C129 7 80-30 80-136v-624l93-16v625" id="aP"/><g id="x"><use transform="matrix(0.02,0,0,0.02,0,0)" xlink:href="#aL"/><use transform="matrix(0.02,0,0,0.02,12.48,0)" xlink:href="#aM"/><use transform="matrix(0.02,0,0,0.02,23.98,0)" xlink:href="#aN"/><use transform="matrix(0.02,0,0,0.02,34.5,0)" xlink:href="#aO"/><use transform="matrix(0.02,0,0,0.02,46.06,0)" xlink:href="#aO"/><use transform="matrix(0.02,0,0,0.02,57.620000000000005,0)" xlink:href="#ae"/><use transform="matrix(0.02,0,0,0.02,68.88000000000001,0)" xlink:href="#aP"/></g><g id="y"><use transform="matrix(0.022222222222222223,0,0,0.022222222222222223,0,0)" xlink:href="#ap"/><use transform="matrix(0.022222222222222223,0,0,0.022222222222222223,12.844444444444445,0)" xlink:href="#aq"/><use transform="matrix(0.022222222222222223,0,0,0.022222222222222223,24.533333333333335,0)" xlink:href="#ar"/><use transform="matrix(0.022222222222222223,0,0,0.022222222222222223,43.75555555555556,0)" xlink:href="#as"/></g><g id="z"><use transform="matrix(0.022222222222222223,0,0,0.022222222222222223,0,0)" xlink:href="#aB"/><use transform="matrix(0.022222222222222223,0,0,0.022222222222222223,10.422222222222222,0)" xlink:href="#ax"/><use transform="matrix(0.022222222222222223,0,0,0.022222222222222223,23.2,0)" xlink:href="#aq"/><use transform="matrix(0.022222222222222223,0,0,0.022222222222222223,34.88888888888889,0)" xlink:href="#ap"/><use transform="matrix(0.022222222222222223,0,0,0.022222222222222223,47.733333333333334,0)" xlink:href="#ap"/><use transform="matrix(0.022222222222222223,0,0,0.022222222222222223,60.57777777777778,0)" xlink:href="#as"/><use transform="matrix(0.022222222222222223,0,0,0.022222222222222223,73.08888888888889,0)" xlink:href="#at"/><use transform="matrix(0.022222222222222223,0,0,0.022222222222222223,79.24444444444444,0)" xlink:href="#ao"/><use transform="matrix(0.022222222222222223,0,0,0.022222222222222223,90.26666666666667,0)" xlink:href="#an"/><use transform="matrix(0.022222222222222223,0,0,0.022222222222222223,99.28888888888889,0)" xlink:href="#aA"/><use transform="matrix(0.022222222222222223,0,0,0.022222222222222223,110.42222222222223,0)" xlink:href="#au"/><use transform="matrix(0.022222222222222223,0,0,0.022222222222222223,123.60000000000001,0)" xlink:href="#as"/></g><g id="A"><use transform="matrix(0.022222222222222223,0,0,0.022222222222222223,0,0)" xlink:href="#aB"/><use transform="matrix(0.022222222222222223,0,0,0.022222222222222223,10.422222222222222,0)" xlink:href="#al"/><use transform="matrix(0.022222222222222223,0,0,0.022222222222222223,19.08888888888889,0)" xlink:href="#as"/><use transform="matrix(0.022222222222222223,0,0,0.022222222222222223,31.6,0)" xlink:href="#aq"/><use transform="matrix(0.022222222222222223,0,0,0.022222222222222223,43.28888888888889,0)" xlink:href="#an"/><use transform="matrix(0.022222222222222223,0,0,0.022222222222222223,52.31111111111111,0)" xlink:href="#ai"/><use transform="matrix(0.022222222222222223,0,0,0.022222222222222223,58.022222222222226,0)" xlink:href="#aw"/><use transform="matrix(0.022222222222222223,0,0,0.022222222222222223,71.22222222222223,0)" xlink:href="#ap"/><use transform="matrix(0.022222222222222223,0,0,0.022222222222222223,84.06666666666668,0)" xlink:href="#ao"/><use transform="matrix(0.022222222222222223,0,0,0.022222222222222223,95.08888888888892,0)" xlink:href="#aj"/><use transform="matrix(0.022222222222222223,0,0,0.022222222222222223,108.26666666666667,0)" xlink:href="#aq"/><use transform="matrix(0.022222222222222223,0,0,0.022222222222222223,119.95555555555558,0)" xlink:href="#an"/><use transform="matrix(0.022222222222222223,0,0,0.022222222222222223,128.75555555555556,0)" xlink:href="#as"/></g><path d="M88 0v-693h418v83H185v209h285v82H185V0H88" id="aQ"/><g id="B"><use transform="matrix(0.018,0,0,0.018,0,0)" xlink:href="#aQ"/><use transform="matrix(0.018,0,0,0.018,9.738,0)" xlink:href="#ah"/></g><g id="C"><use transform="matrix(0.022222222222222223,0,0,0.022222222222222223,0,0)" xlink:href="#am"/><use transform="matrix(0.022222222222222223,0,0,0.022222222222222223,10,0)" xlink:href="#as"/><use transform="matrix(0.022222222222222223,0,0,0.022222222222222223,22.511111111111113,0)" xlink:href="#al"/><use transform="matrix(0.022222222222222223,0,0,0.022222222222222223,31.644444444444446,0)" xlink:href="#aC"/><use transform="matrix(0.022222222222222223,0,0,0.022222222222222223,42.88888888888889,0)" xlink:href="#ai"/><use transform="matrix(0.022222222222222223,0,0,0.022222222222222223,48.6,0)" xlink:href="#aB"/><use transform="matrix(0.022222222222222223,0,0,0.022222222222222223,59.022222222222226,0)" xlink:href="#as"/><use transform="matrix(0.022222222222222223,0,0,0.022222222222222223,71.53333333333333,0)" xlink:href="#ao"/><use transform="matrix(0.022222222222222223,0,0,0.022222222222222223,82.55555555555556,0)" xlink:href="#au"/><use transform="matrix(0.022222222222222223,0,0,0.022222222222222223,95.73333333333333,0)" xlink:href="#al"/><use transform="matrix(0.022222222222222223,0,0,0.022222222222222223,104.4,0)" xlink:href="#aw"/><use transform="matrix(0.022222222222222223,0,0,0.022222222222222223,117.28888888888889,0)" xlink:href="#aC"/><use transform="matrix(0.022222222222222223,0,0,0.022222222222222223,128.53333333333333,0)" xlink:href="#ai"/><use transform="matrix(0.022222222222222223,0,0,0.022222222222222223,134.24444444444444,0)" xlink:href="#aj"/><use transform="matrix(0.022222222222222223,0,0,0.022222222222222223,147.42222222222222,0)" xlink:href="#as"/><use transform="matrix(0.022222222222222223,0,0,0.022222222222222223,159.93333333333334,0)" xlink:href="#al"/><use transform="matrix(0.022222222222222223,0,0,0.022222222222222223,168.6,0)" xlink:href="#ao"/><use transform="matrix(0.022222222222222223,0,0,0.022222222222222223,179.6222222222222,0)" xlink:href="#ai"/><use transform="matrix(0.022222222222222223,0,0,0.022222222222222223,185.3333333333333,0)" xlink:href="#aj"/></g><g id="D"><use transform="matrix(0.022222222222222223,0,0,0.022222222222222223,0,0)" xlink:href="#aB"/><use transform="matrix(0.022222222222222223,0,0,0.022222222222222223,10.422222222222222,0)" xlink:href="#al"/><use transform="matrix(0.022222222222222223,0,0,0.022222222222222223,19.08888888888889,0)" xlink:href="#as"/><use transform="matrix(0.022222222222222223,0,0,0.022222222222222223,31.6,0)" xlink:href="#aq"/><use transform="matrix(0.022222222222222223,0,0,0.022222222222222223,43.28888888888889,0)" xlink:href="#an"/><use transform="matrix(0.022222222222222223,0,0,0.022222222222222223,52,0)" xlink:href="#aw"/><use transform="matrix(0.022222222222222223,0,0,0.022222222222222223,65.2,0)" xlink:href="#al"/><use transform="matrix(0.022222222222222223,0,0,0.022222222222222223,73.86666666666667,0)" xlink:href="#ao"/><use transform="matrix(0.022222222222222223,0,0,0.022222222222222223,84.8888888888889,0)" xlink:href="#ai"/><use transform="matrix(0.022222222222222223,0,0,0.022222222222222223,90.60000000000001,0)" xlink:href="#aj"/></g><path fill="#fff" d="M10 0c89-244 173-472 279-693h89C484-472 568-243 657 0H551c-23-60-41-116-63-177H174L111 0H10zm450-257c-42-112-82-221-129-325-48 103-88 212-129 325h258" id="aR"/><path fill="#fff" d="M300-71c36 0 74-3 103-10v-439h93v505C441-2 367 11 290 11 138 11 76-78 76-228v-292h93v272c2 116 24 177 131 177" id="aS"/><g id="E"><use transform="matrix(0.022222222222222223,0,0,0.022222222222222223,0,0)" xlink:href="#aR"/><use transform="matrix(0.022222222222222223,0,0,0.022222222222222223,14.488888888888889,0)" xlink:href="#aS"/><use transform="matrix(0.022222222222222223,0,0,0.022222222222222223,27.333333333333336,0)" xlink:href="#aJ"/><use transform="matrix(0.022222222222222223,0,0,0.022222222222222223,40.51111111111111,0)" xlink:href="#aF"/><use transform="matrix(0.022222222222222223,0,0,0.022222222222222223,46.22222222222222,0)" xlink:href="#ae"/><use transform="matrix(0.022222222222222223,0,0,0.022222222222222223,58.733333333333334,0)" xlink:href="#aO"/><use transform="matrix(0.022222222222222223,0,0,0.022222222222222223,71.57777777777778,0)" xlink:href="#aG"/><use transform="matrix(0.022222222222222223,0,0,0.022222222222222223,82,0)" xlink:href="#ae"/></g><path d="M427-450C332-341 227-207 149-78h286V0H38v-62c75-133 178-267 271-380H52v-78h375v70" id="aT"/><g id="F"><use transform="matrix(0.022222222222222223,0,0,0.022222222222222223,0,0)" xlink:href="#am"/><use transform="matrix(0.022222222222222223,0,0,0.022222222222222223,10,0)" xlink:href="#ai"/><use transform="matrix(0.022222222222222223,0,0,0.022222222222222223,15.711111111111112,0)" xlink:href="#aT"/><use transform="matrix(0.022222222222222223,0,0,0.022222222222222223,25.844444444444445,0)" xlink:href="#as"/><use transform="matrix(0.022222222222222223,0,0,0.022222222222222223,38.355555555555554,0)" xlink:href="#ao"/><use transform="matrix(0.022222222222222223,0,0,0.022222222222222223,49.37777777777778,0)" xlink:href="#as"/><use transform="matrix(0.022222222222222223,0,0,0.022222222222222223,61.88888888888889,0)" xlink:href="#am"/><use transform="matrix(0.022222222222222223,0,0,0.022222222222222223,71.88888888888889,0)" xlink:href="#an"/><use transform="matrix(0.022222222222222223,0,0,0.022222222222222223,80.91111111111111,0)" xlink:href="#ai"/><use transform="matrix(0.022222222222222223,0,0,0.022222222222222223,86.62222222222222,0)" xlink:href="#ar"/><use transform="matrix(0.022222222222222223,0,0,0.022222222222222223,105.84444444444443,0)" xlink:href="#aq"/><use transform="matrix(0.022222222222222223,0,0,0.022222222222222223,117.53333333333333,0)" xlink:href="#an"/><use transform="matrix(0.022222222222222223,0,0,0.022222222222222223,126.33333333333334,0)" xlink:href="#as"/></g><g id="G"><use transform="matrix(0.017999999999999995,0,0,0.017999999999999995,0,0)" xlink:href="#aQ"/><use transform="matrix(0.017999999999999995,0,0,0.017999999999999995,9.737999999999998,0)" xlink:href="#ah"/></g><path fill="#fff" d="M257 11C121 11 76-66 76-201v-464l93-16v161h197v78H169v240c-1 80 17 131 96 131 43 0 79-13 103-23l18 77c-27 12-82 28-129 28" id="aU"/><g id="H"><use transform="matrix(0.022222222222222223,0,0,0.022222222222222223,0,0)" xlink:href="#aL"/><use transform="matrix(0.022222222222222223,0,0,0.022222222222222223,13.866666666666667,0)" xlink:href="#af"/><use transform="matrix(0.022222222222222223,0,0,0.022222222222222223,22.533333333333335,0)" xlink:href="#aF"/><use transform="matrix(0.022222222222222223,0,0,0.022222222222222223,28.244444444444447,0)" xlink:href="#aU"/><use transform="matrix(0.022222222222222223,0,0,0.022222222222222223,37.04444444444445,0)" xlink:href="#ae"/><use transform="matrix(0.022222222222222223,0,0,0.022222222222222223,49.555555555555564,0)" xlink:href="#af"/><use transform="matrix(0.022222222222222223,0,0,0.022222222222222223,58.22222222222222,0)" xlink:href="#aF"/><use transform="matrix(0.022222222222222223,0,0,0.022222222222222223,63.93333333333334,0)" xlink:href="#aN"/></g><g id="I"><use transform="matrix(0.022222222222222223,0,0,0.022222222222222223,0,0)" xlink:href="#ak"/><use transform="matrix(0.022222222222222223,0,0,0.022222222222222223,8.666666666666668,0)" xlink:href="#ai"/><use transform="matrix(0.022222222222222223,0,0,0.022222222222222223,14.37777777777778,0)" xlink:href="#at"/><use transform="matrix(0.022222222222222223,0,0,0.022222222222222223,20.533333333333335,0)" xlink:href="#an"/><use transform="matrix(0.022222222222222223,0,0,0.022222222222222223,29.333333333333336,0)" xlink:href="#as"/><use transform="matrix(0.022222222222222223,0,0,0.022222222222222223,41.84444444444445,0)" xlink:href="#al"/></g><g id="J"><use transform="matrix(0.022222222222222223,0,0,0.022222222222222223,0,0)" xlink:href="#aw"/><use transform="matrix(0.022222222222222223,0,0,0.022222222222222223,13.200000000000001,0)" xlink:href="#au"/><use transform="matrix(0.022222222222222223,0,0,0.022222222222222223,26.37777777777778,0)" xlink:href="#as"/><use transform="matrix(0.022222222222222223,0,0,0.022222222222222223,38.88888888888889,0)" xlink:href="#al"/><use transform="matrix(0.022222222222222223,0,0,0.022222222222222223,47.55555555555556,0)" xlink:href="#aq"/><use transform="matrix(0.022222222222222223,0,0,0.022222222222222223,59.24444444444445,0)" xlink:href="#an"/><use transform="matrix(0.022222222222222223,0,0,0.022222222222222223,67.95555555555556,0)" xlink:href="#aw"/><use transform="matrix(0.022222222222222223,0,0,0.022222222222222223,81.15555555555557,0)" xlink:href="#al"/></g><g id="K"><use transform="matrix(0.022222222222222223,0,0,0.022222222222222223,0,0)" xlink:href="#aC"/><use transform="matrix(0.022222222222222223,0,0,0.022222222222222223,11.244444444444445,0)" xlink:href="#aq"/><use transform="matrix(0.022222222222222223,0,0,0.022222222222222223,22.93333333333334,0)" xlink:href="#at"/><use transform="matrix(0.022222222222222223,0,0,0.022222222222222223,29.08888888888889,0)" xlink:href="#aK"/><use transform="matrix(0.022222222222222223,0,0,0.022222222222222223,41.93333333333334,0)" xlink:href="#as"/></g><g id="L"><use transform="matrix(0.022222222222222223,0,0,0.022222222222222223,0,0)" xlink:href="#aq"/><use transform="matrix(0.022222222222222223,0,0,0.022222222222222223,11.68888888888889,0)" xlink:href="#aK"/><use transform="matrix(0.022222222222222223,0,0,0.022222222222222223,24.533333333333335,0)" xlink:href="#aj"/><use transform="matrix(0.022222222222222223,0,0,0.022222222222222223,37.711111111111116,0)" xlink:href="#ai"/><use transform="matrix(0.022222222222222223,0,0,0.022222222222222223,43.422222222222224,0)" xlink:href="#as"/><use transform="matrix(0.022222222222222223,0,0,0.022222222222222223,55.93333333333334,0)" xlink:href="#ap"/><use transform="matrix(0.022222222222222223,0,0,0.022222222222222223,68.77777777777779,0)" xlink:href="#aB"/><use transform="matrix(0.022222222222222223,0,0,0.022222222222222223,79.2,0)" xlink:href="#as"/><use transform="matrix(0.022222222222222223,0,0,0.022222222222222223,91.71111111111111,0)" xlink:href="#ao"/><use transform="matrix(0.022222222222222223,0,0,0.022222222222222223,102.73333333333333,0)" xlink:href="#ai"/><use transform="matrix(0.022222222222222223,0,0,0.022222222222222223,108.44444444444444,0)" xlink:href="#aj"/></g><path fill="#fff" d="M563 0C450-189 321-377 183-541V0H88v-693h77c137 151 274 337 384 513v-513h95V0h-81" id="aV"/><path fill="#fff" d="M82-567C68-745 227-812 397-759l-17 80c-21-10-52-17-88-17-102 0-122 72-117 176h200v78H175V0H82v-567" id="aW"/><path fill="#fff" d="M279 12C204 13 135-1 82-15v-745l93-16v279c28-17 80-37 131-35 159 6 234 110 234 272C540-90 448 7 279 12zm15-462c-46-2-95 21-119 40v329c28 7 62 11 103 11 106 0 167-77 165-190-2-110-39-188-149-190" id="aX"/><path fill="#fff" d="M294-70c109-2 147-79 149-189 2-113-59-188-165-189-45 0-73 2-103 10v328c24 19 73 42 119 40zm-15-461c169 5 261 102 261 272C540-98 465 6 306 12c-51 2-103-18-131-35v208H82v-689c54-12 122-29 197-27" id="aY"/><g id="M"><use transform="matrix(0.022222222222222223,0,0,0.022222222222222223,0,0)" xlink:href="#aV"/><use transform="matrix(0.022222222222222223,0,0,0.022222222222222223,16.266666666666666,0)" xlink:href="#aI"/><use transform="matrix(0.022222222222222223,0,0,0.022222222222222223,29.46666666666667,0)" xlink:href="#aU"/><use transform="matrix(0.022222222222222223,0,0,0.022222222222222223,38.488888888888894,0)" xlink:href="#aF"/><use transform="matrix(0.022222222222222223,0,0,0.022222222222222223,44.2,0)" xlink:href="#aW"/><use transform="matrix(0.022222222222222223,0,0,0.022222222222222223,52.86666666666668,0)" xlink:href="#aF"/><use transform="matrix(0.022222222222222223,0,0,0.022222222222222223,58.57777777777778,0)" xlink:href="#aG"/><use transform="matrix(0.022222222222222223,0,0,0.022222222222222223,69,0)" xlink:href="#aN"/><use transform="matrix(0.022222222222222223,0,0,0.022222222222222223,80.6888888888889,0)" xlink:href="#aU"/><use transform="matrix(0.022222222222222223,0,0,0.022222222222222223,89.71111111111112,0)" xlink:href="#aF"/><use transform="matrix(0.022222222222222223,0,0,0.022222222222222223,95.42222222222223,0)" xlink:href="#aI"/><use transform="matrix(0.022222222222222223,0,0,0.022222222222222223,108.62222222222222,0)" xlink:href="#aO"/><use transform="matrix(0.022222222222222223,0,0,0.022222222222222223,121.4666666666667,0)" xlink:href="#aD"/><use transform="matrix(0.022222222222222223,0,0,0.022222222222222223,133.3777777777778,0)" xlink:href="#aS"/><use transform="matrix(0.022222222222222223,0,0,0.022222222222222223,146.22222222222223,0)" xlink:href="#aX"/><use transform="matrix(0.022222222222222223,0,0,0.022222222222222223,159.4,0)" xlink:href="#ad"/><use transform="matrix(0.022222222222222223,0,0,0.022222222222222223,169.4,0)" xlink:href="#aG"/><use transform="matrix(0.022222222222222223,0,0,0.022222222222222223,179.82222222222222,0)" xlink:href="#af"/><use transform="matrix(0.022222222222222223,0,0,0.022222222222222223,188.4888888888889,0)" xlink:href="#aF"/><use transform="matrix(0.022222222222222223,0,0,0.022222222222222223,194.20000000000002,0)" xlink:href="#aY"/><use transform="matrix(0.022222222222222223,0,0,0.022222222222222223,207.3777777777778,0)" xlink:href="#aU"/><use transform="matrix(0.022222222222222223,0,0,0.022222222222222223,216.39999999999998,0)" xlink:href="#aF"/><use transform="matrix(0.022222222222222223,0,0,0.022222222222222223,222.1111111111111,0)" xlink:href="#aI"/><use transform="matrix(0.022222222222222223,0,0,0.022222222222222223,235.31111111111107,0)" xlink:href="#aO"/></g><path d="M279 12C204 13 135-1 82-15v-745l93-16v279c28-17 80-37 131-35 159 6 234 110 234 272C540-90 448 7 279 12zm15-462c-46-2-95 21-119 40v329c28 7 62 11 103 11 106 0 167-77 165-190-2-110-39-188-149-190" id="aZ"/><g id="N"><use transform="matrix(0.022222222222222223,0,0,0.022222222222222223,0,0)" xlink:href="#as"/><use transform="matrix(0.022222222222222223,0,0,0.022222222222222223,12.511111111111111,0)" xlink:href="#ap"/><use transform="matrix(0.022222222222222223,0,0,0.022222222222222223,25.355555555555558,0)" xlink:href="#aq"/><use transform="matrix(0.022222222222222223,0,0,0.022222222222222223,37.044444444444444,0)" xlink:href="#aZ"/><use transform="matrix(0.022222222222222223,0,0,0.022222222222222223,50.22222222222222,0)" xlink:href="#at"/><use transform="matrix(0.022222222222222223,0,0,0.022222222222222223,56.37777777777778,0)" xlink:href="#as"/><use transform="matrix(0.022222222222222223,0,0,0.022222222222222223,68.88888888888889,0)" xlink:href="#aj"/></g><g id="O"><use transform="matrix(0.022222222222222223,0,0,0.022222222222222223,0,0)" xlink:href="#aj"/><use transform="matrix(0.022222222222222223,0,0,0.022222222222222223,13.177777777777779,0)" xlink:href="#as"/><use transform="matrix(0.022222222222222223,0,0,0.022222222222222223,25.68888888888889,0)" xlink:href="#aC"/><use transform="matrix(0.022222222222222223,0,0,0.022222222222222223,36.93333333333334,0)" xlink:href="#ai"/><use transform="matrix(0.022222222222222223,0,0,0.022222222222222223,42.644444444444446,0)" xlink:href="#aB"/><use transform="matrix(0.022222222222222223,0,0,0.022222222222222223,53.06666666666667,0)" xlink:href="#as"/><use transform="matrix(0.022222222222222223,0,0,0.022222222222222223,65.57777777777778,0)" xlink:href="#ao"/><use transform="matrix(0.022222222222222223,0,0,0.022222222222222223,76.60000000000001,0)" xlink:href="#an"/><use transform="matrix(0.022222222222222223,0,0,0.022222222222222223,85.31111111111112,0)" xlink:href="#aw"/><use transform="matrix(0.022222222222222223,0,0,0.022222222222222223,98.51111111111112,0)" xlink:href="#az"/><use transform="matrix(0.022222222222222223,0,0,0.022222222222222223,109.62222222222222,0)" xlink:href="#as"/><use transform="matrix(0.022222222222222223,0,0,0.022222222222222223,122.13333333333334,0)" xlink:href="#ap"/></g><g id="P"><use transform="matrix(0.022222222222222223,0,0,0.022222222222222223,0,0)" xlink:href="#ap"/><use transform="matrix(0.022222222222222223,0,0,0.022222222222222223,12.844444444444445,0)" xlink:href="#aw"/><use transform="matrix(0.022222222222222223,0,0,0.022222222222222223,26.044444444444444,0)" xlink:href="#an"/><use transform="matrix(0.022222222222222223,0,0,0.022222222222222223,35.06666666666666,0)" xlink:href="#ai"/><use transform="matrix(0.022222222222222223,0,0,0.022222222222222223,40.77777777777777,0)" xlink:href="#ak"/><use transform="matrix(0.022222222222222223,0,0,0.022222222222222223,49.44444444444444,0)" xlink:href="#ai"/><use transform="matrix(0.022222222222222223,0,0,0.022222222222222223,55.155555555555544,0)" xlink:href="#aB"/><use transform="matrix(0.022222222222222223,0,0,0.022222222222222223,65.57777777777777,0)" xlink:href="#aq"/><use transform="matrix(0.022222222222222223,0,0,0.022222222222222223,77.26666666666665,0)" xlink:href="#an"/><use transform="matrix(0.022222222222222223,0,0,0.022222222222222223,86.28888888888888,0)" xlink:href="#ai"/><use transform="matrix(0.022222222222222223,0,0,0.022222222222222223,91.99999999999999,0)" xlink:href="#aw"/><use transform="matrix(0.022222222222222223,0,0,0.022222222222222223,105.19999999999999,0)" xlink:href="#ap"/><use transform="matrix(0.022222222222222223,0,0,0.022222222222222223,118.04444444444442,0)" xlink:href="#ao"/><use transform="matrix(0.022222222222222223,0,0,0.022222222222222223,129.06666666666666,0)" xlink:href="#aK"/><use transform="matrix(0.022222222222222223,0,0,0.022222222222222223,141.9111111111111,0)" xlink:href="#am"/><use transform="matrix(0.022222222222222223,0,0,0.022222222222222223,151.9111111111111,0)" xlink:href="#as"/><use transform="matrix(0.022222222222222223,0,0,0.022222222222222223,164.42222222222222,0)" xlink:href="#al"/><use transform="matrix(0.022222222222222223,0,0,0.022222222222222223,173.08888888888887,0)" xlink:href="#ao"/><use transform="matrix(0.022222222222222223,0,0,0.022222222222222223,184.1111111111111,0)" xlink:href="#ai"/><use transform="matrix(0.022222222222222223,0,0,0.022222222222222223,189.8222222222222,0)" xlink:href="#aj"/></g><g id="Q"><use transform="matrix(0.022222222222222223,0,0,0.022222222222222223,0,0)" xlink:href="#aB"/><use transform="matrix(0.022222222222222223,0,0,0.022222222222222223,10.422222222222222,0)" xlink:href="#ax"/><use transform="matrix(0.022222222222222223,0,0,0.022222222222222223,23.2,0)" xlink:href="#aq"/><use transform="matrix(0.022222222222222223,0,0,0.022222222222222223,34.88888888888889,0)" xlink:href="#ap"/><use transform="matrix(0.022222222222222223,0,0,0.022222222222222223,47.733333333333334,0)" xlink:href="#ap"/><use transform="matrix(0.022222222222222223,0,0,0.022222222222222223,60.57777777777778,0)" xlink:href="#as"/><use transform="matrix(0.022222222222222223,0,0,0.022222222222222223,73.08888888888889,0)" xlink:href="#at"/><use transform="matrix(0.022222222222222223,0,0,0.022222222222222223,79.24444444444444,0)" xlink:href="#ao"/><use transform="matrix(0.022222222222222223,0,0,0.022222222222222223,90.26666666666667,0)" xlink:href="#ai"/><use transform="matrix(0.022222222222222223,0,0,0.022222222222222223,95.97777777777779,0)" xlink:href="#aj"/></g><g id="R"><use transform="matrix(0.022222222222222223,0,0,0.022222222222222223,0,0)" xlink:href="#aV"/><use transform="matrix(0.022222222222222223,0,0,0.022222222222222223,16.266666666666666,0)" xlink:href="#aI"/><use transform="matrix(0.022222222222222223,0,0,0.022222222222222223,29.46666666666667,0)" xlink:href="#aU"/><use transform="matrix(0.022222222222222223,0,0,0.022222222222222223,38.488888888888894,0)" xlink:href="#aF"/><use transform="matrix(0.022222222222222223,0,0,0.022222222222222223,44.2,0)" xlink:href="#aW"/><use transform="matrix(0.022222222222222223,0,0,0.022222222222222223,52.86666666666668,0)" xlink:href="#aF"/><use transform="matrix(0.022222222222222223,0,0,0.022222222222222223,58.57777777777778,0)" xlink:href="#aG"/><use transform="matrix(0.022222222222222223,0,0,0.022222222222222223,69,0)" xlink:href="#aN"/><use transform="matrix(0.022222222222222223,0,0,0.022222222222222223,80.6888888888889,0)" xlink:href="#aU"/><use transform="matrix(0.022222222222222223,0,0,0.022222222222222223,89.71111111111112,0)" xlink:href="#aF"/><use transform="matrix(0.022222222222222223,0,0,0.022222222222222223,95.42222222222223,0)" xlink:href="#aI"/><use transform="matrix(0.022222222222222223,0,0,0.022222222222222223,108.62222222222222,0)" xlink:href="#aO"/><use transform="matrix(0.022222222222222223,0,0,0.022222222222222223,121.4666666666667,0)" xlink:href="#ac"/><use transform="matrix(0.022222222222222223,0,0,0.022222222222222223,136.84444444444446,0)" xlink:href="#ad"/><use transform="matrix(0.022222222222222223,0,0,0.022222222222222223,146.84444444444446,0)" xlink:href="#ae"/><use transform="matrix(0.022222222222222223,0,0,0.022222222222222223,159.35555555555558,0)" xlink:href="#af"/></g><g id="S"><use transform="matrix(0.02222222222222222,0,0,0.02222222222222222,0,0)" xlink:href="#as"/><use transform="matrix(0.02222222222222222,0,0,0.02222222222222222,12.51111111111111,0)" xlink:href="#ar"/><use transform="matrix(0.02222222222222222,0,0,0.02222222222222222,31.73333333333333,0)" xlink:href="#aq"/><use transform="matrix(0.02222222222222222,0,0,0.02222222222222222,43.42222222222222,0)" xlink:href="#ai"/><use transform="matrix(0.02222222222222222,0,0,0.02222222222222222,49.133333333333326,0)" xlink:href="#at"/></g><g id="T"><use transform="matrix(0.022222222222222223,0,0,0.022222222222222223,0,0)" xlink:href="#au"/><use transform="matrix(0.022222222222222223,0,0,0.022222222222222223,13.177777777777779,0)" xlink:href="#ax"/><use transform="matrix(0.022222222222222223,0,0,0.022222222222222223,25.955555555555556,0)" xlink:href="#aw"/><use transform="matrix(0.022222222222222223,0,0,0.022222222222222223,39.15555555555556,0)" xlink:href="#ap"/><use transform="matrix(0.022222222222222223,0,0,0.022222222222222223,52,0)" xlink:href="#as"/><use transform="matrix(0.022222222222222223,0,0,0.022222222222222223,64.5111111111111,0)" xlink:href="#ao"/><use transform="matrix(0.022222222222222223,0,0,0.022222222222222223,75.53333333333333,0)" xlink:href="#ap"/><use transform="matrix(0.022222222222222223,0,0,0.022222222222222223,88.37777777777778,0)" xlink:href="#aK"/><use transform="matrix(0.022222222222222223,0,0,0.022222222222222223,101.22222222222223,0)" xlink:href="#ar"/><use transform="matrix(0.022222222222222223,0,0,0.022222222222222223,120.44444444444444,0)" xlink:href="#aZ"/><use transform="matrix(0.022222222222222223,0,0,0.022222222222222223,133.62222222222223,0)" xlink:href="#as"/><use transform="matrix(0.022222222222222223,0,0,0.022222222222222223,146.13333333333335,0)" xlink:href="#al"/></g><g id="U"><use transform="matrix(0.022222222222222223,0,0,0.022222222222222223,0,0)" xlink:href="#aB"/><use transform="matrix(0.022222222222222223,0,0,0.022222222222222223,10.133333333333333,0)" xlink:href="#aw"/><use transform="matrix(0.022222222222222223,0,0,0.022222222222222223,23.333333333333336,0)" xlink:href="#aK"/><use transform="matrix(0.022222222222222223,0,0,0.022222222222222223,36.17777777777778,0)" xlink:href="#ap"/><use transform="matrix(0.022222222222222223,0,0,0.022222222222222223,49.022222222222226,0)" xlink:href="#an"/><use transform="matrix(0.022222222222222223,0,0,0.022222222222222223,58.044444444444444,0)" xlink:href="#al"/><use transform="matrix(0.022222222222222223,0,0,0.022222222222222223,67.17777777777779,0)" xlink:href="#aA"/></g><g id="V"><use transform="matrix(0.02,0,0,0.02,0,0)" xlink:href="#aZ"/><use transform="matrix(0.02,0,0,0.02,11.86,0)" xlink:href="#ai"/><use transform="matrix(0.02,0,0,0.02,17,0)" xlink:href="#al"/><use transform="matrix(0.02,0,0,0.02,24.8,0)" xlink:href="#an"/><use transform="matrix(0.02,0,0,0.02,32.92,0)" xlink:href="#ax"/><use transform="matrix(0.02,0,0,0.02,44.42,0)" xlink:href="#aj"/><use transform="matrix(0.02,0,0,0.02,56.28,0)" xlink:href="#aq"/><use transform="matrix(0.02,0,0,0.02,66.8,0)" xlink:href="#an"/><use transform="matrix(0.02,0,0,0.02,74.72,0)" xlink:href="#as"/></g><g id="W"><use transform="matrix(0.02244444444444444,0,0,0.02244444444444444,0,0)" xlink:href="#aB"/><use transform="matrix(0.02244444444444444,0,0,0.02244444444444444,10.526444444444442,0)" xlink:href="#al"/><use transform="matrix(0.02244444444444444,0,0,0.02244444444444444,19.279777777777774,0)" xlink:href="#as"/><use transform="matrix(0.02244444444444444,0,0,0.02244444444444444,31.915999999999993,0)" xlink:href="#aq"/><use transform="matrix(0.02244444444444444,0,0,0.02244444444444444,43.72177777777777,0)" xlink:href="#an"/><use transform="matrix(0.02244444444444444,0,0,0.02244444444444444,52.51999999999999,0)" xlink:href="#aw"/><use transform="matrix(0.02244444444444444,0,0,0.02244444444444444,65.85199999999999,0)" xlink:href="#al"/><use transform="matrix(0.02244444444444444,0,0,0.02244444444444444,74.60533333333332,0)" xlink:href="#ao"/><use transform="matrix(0.02244444444444444,0,0,0.02244444444444444,85.73777777777777,0)" xlink:href="#ai"/><use transform="matrix(0.02244444444444444,0,0,0.02244444444444444,91.50599999999999,0)" xlink:href="#aj"/></g><path fill="#fff" d="M266-100c50-137 84-270 119-420h96C435-330 371-148 306 16 261 129 164 226 4 172l17-75c41 21 118 16 149-11 20-17 39-42 56-79C145-149 66-333 18-520h100c37 148 89 293 148 420" id="ba"/><g id="X"><use transform="matrix(0.022222222222222223,0,0,0.022222222222222223,0,0)" xlink:href="#ac"/><use transform="matrix(0.022222222222222223,0,0,0.022222222222222223,15.377777777777778,0)" xlink:href="#ad"/><use transform="matrix(0.022222222222222223,0,0,0.022222222222222223,25.37777777777778,0)" xlink:href="#ae"/><use transform="matrix(0.022222222222222223,0,0,0.022222222222222223,37.88888888888889,0)" xlink:href="#af"/><use transform="matrix(0.022222222222222223,0,0,0.022222222222222223,46.55555555555556,0)" xlink:href="#aR"/><use transform="matrix(0.022222222222222223,0,0,0.022222222222222223,61.044444444444444,0)" xlink:href="#aS"/><use transform="matrix(0.022222222222222223,0,0,0.022222222222222223,73.88888888888889,0)" xlink:href="#aU"/><use transform="matrix(0.022222222222222223,0,0,0.022222222222222223,82.91111111111111,0)" xlink:href="#aM"/><use transform="matrix(0.022222222222222223,0,0,0.022222222222222223,95.6888888888889,0)" xlink:href="#aI"/><use transform="matrix(0.022222222222222223,0,0,0.022222222222222223,108.8888888888889,0)" xlink:href="#af"/><use transform="matrix(0.022222222222222223,0,0,0.022222222222222223,117.55555555555559,0)" xlink:href="#aF"/><use transform="matrix(0.022222222222222223,0,0,0.022222222222222223,123.26666666666667,0)" xlink:href="#aU"/><use transform="matrix(0.022222222222222223,0,0,0.022222222222222223,132.2888888888889,0)" xlink:href="#ba"/></g><g id="Y"><use transform="matrix(0.018,0,0,0.018,0,0)" xlink:href="#aQ"/><use transform="matrix(0.018,0,0,0.018,9.738,0)" xlink:href="#ah"/></g><g id="Z"><use transform="matrix(0.022222222222222223,0,0,0.022222222222222223,0,0)" xlink:href="#aK"/><use transform="matrix(0.022222222222222223,0,0,0.022222222222222223,12.844444444444445,0)" xlink:href="#am"/><use transform="matrix(0.022222222222222223,0,0,0.022222222222222223,22.844444444444445,0)" xlink:href="#as"/><use transform="matrix(0.022222222222222223,0,0,0.022222222222222223,35.355555555555554,0)" xlink:href="#al"/><use transform="matrix(0.022222222222222223,0,0,0.022222222222222223,44.022222222222226,0)" xlink:href="#ao"/><use transform="matrix(0.022222222222222223,0,0,0.022222222222222223,55.044444444444444,0)" xlink:href="#ai"/><use transform="matrix(0.022222222222222223,0,0,0.022222222222222223,60.75555555555556,0)" xlink:href="#aj"/></g><g id="aa"><use transform="matrix(0.022222222222222223,0,0,0.022222222222222223,0,0)" xlink:href="#aq"/><use transform="matrix(0.022222222222222223,0,0,0.022222222222222223,11.68888888888889,0)" xlink:href="#aK"/><use transform="matrix(0.022222222222222223,0,0,0.022222222222222223,24.533333333333335,0)" xlink:href="#an"/><use transform="matrix(0.022222222222222223,0,0,0.022222222222222223,33.55555555555556,0)" xlink:href="#ax"/><use transform="matrix(0.022222222222222223,0,0,0.022222222222222223,46.333333333333336,0)" xlink:href="#aw"/><use transform="matrix(0.022222222222222223,0,0,0.022222222222222223,59.53333333333334,0)" xlink:href="#al"/><use transform="matrix(0.022222222222222223,0,0,0.022222222222222223,68.2,0)" xlink:href="#ai"/><use transform="matrix(0.022222222222222223,0,0,0.022222222222222223,73.91111111111111,0)" xlink:href="#an"/><use transform="matrix(0.022222222222222223,0,0,0.022222222222222223,82.93333333333334,0)" xlink:href="#aA"/><use transform="matrix(0.022222222222222223,0,0,0.022222222222222223,94.06666666666668,0)" xlink:href="#ao"/><use transform="matrix(0.022222222222222223,0,0,0.022222222222222223,105.08888888888889,0)" xlink:href="#ap"/><use transform="matrix(0.022222222222222223,0,0,0.022222222222222223,117.93333333333335,0)" xlink:href="#aq"/><use transform="matrix(0.022222222222222223,0,0,0.022222222222222223,129.62222222222223,0)" xlink:href="#ar"/><use transform="matrix(0.022222222222222223,0,0,0.022222222222222223,148.84444444444446,0)" xlink:href="#as"/></g><g id="ab"><use transform="matrix(0.022222222222222223,0,0,0.022222222222222223,0,0)" xlink:href="#aR"/><use transform="matrix(0.022222222222222223,0,0,0.022222222222222223,14.488888888888889,0)" xlink:href="#aS"/><use transform="matrix(0.022222222222222223,0,0,0.022222222222222223,27.333333333333336,0)" xlink:href="#aU"/><use transform="matrix(0.022222222222222223,0,0,0.022222222222222223,36.355555555555554,0)" xlink:href="#aM"/><use transform="matrix(0.022222222222222223,0,0,0.022222222222222223,49.13333333333333,0)" xlink:href="#aI"/><use transform="matrix(0.022222222222222223,0,0,0.022222222222222223,62.333333333333336,0)" xlink:href="#af"/><use transform="matrix(0.022222222222222223,0,0,0.022222222222222223,71,0)" xlink:href="#aF"/><use transform="matrix(0.022222222222222223,0,0,0.022222222222222223,76.71111111111111,0)" xlink:href="#aU"/><use transform="matrix(0.022222222222222223,0,0,0.022222222222222223,85.73333333333333,0)" xlink:href="#ba"/></g></defs></g></svg>