<svg xmlns="http://www.w3.org/2000/svg" xmlns:xlink="http://www.w3.org/1999/xlink" xmlns:lucid="lucid" width="1157.11" height="964.57"><g transform="translate(1469.3864262745462 375.2107211470021)" lucid:page-tab-id="0_0"><path d="M-745.2-351.8a18.14 18.14 0 0 0 10.8 3.6h415.12a6 6 0 0 1 6 6v924.56a6 6 0 0 1-6 6h-1143.1a6 6 0 0 1-6-6V-368.2a6 6 0 0 1 6-6h681a18.14 18.14 0 0 1 10.8 3.57zm-723.2 3.6h728" stroke="#0c8ce9" stroke-width="2" fill-opacity="0"/><use xlink:href="#a" transform="matrix(1,0,0,1,-1460.3864262704128,-374.2107211446564) translate(0 20.822222222222223)"/><path d="M-550.33 6.95a8.74 8.74 0 0 0 8.16 5.6h110.48a6 6 0 0 1 6 6v100.7a6 6 0 0 1-6 6h-318.47a6 6 0 0 1-6-6V-7.44a6 6 0 0 1 6-6h186a8.74 8.74 0 0 1 8.15 5.6zm-205.84 5.6h208" stroke="#ba23f6" stroke-width="2" fill="#ba23f6" fill-opacity=".3"/><use xlink:href="#b" transform="matrix(1,0,0,1,-748.1726141937584,-13.446587927519133) translate(0 20.822222222222223)"/><path d="M-550.33 206.6a8.74 8.74 0 0 0 8.16 5.6h110.48a6 6 0 0 1 6 6v101a6 6 0 0 1-6 6h-318.47a6 6 0 0 1-6-6v-127a6 6 0 0 1 6-6h186a8.74 8.74 0 0 1 8.15 5.6zm-205.84 5.6h208" stroke="#1071e5" stroke-width="2" fill-opacity="0"/><use xlink:href="#c" transform="matrix(1,0,0,1,-748.1726141937584,186.19418937208786) translate(0 20.822222222222223)"/><path d="M-550.33 406.53a8.74 8.74 0 0 0 8.16 5.6h110.48a6 6 0 0 1 6 6v128.2a6 6 0 0 1-6 6h-318.47a6 6 0 0 1-6-6v-154.2a6 6 0 0 1 6-6h186a8.74 8.74 0 0 1 8.15 5.6zm-205.84 5.6h208" stroke="#c03221" stroke-width="2" fill="#c03221" fill-opacity=".3"/><use xlink:href="#d" transform="matrix(1,0,0,1,-748.1726141937584,386.12867782690876) translate(0 20.822222222222223)"/><path d="M-609.1 455.77a7.54 7.54 0 0 0 7.34 5.85h53.1a6 6 0 0 1 6 6v47.32a6 6 0 0 1-6 6h-165.1a6 6 0 0 1-6-6v-73.32a6 6 0 0 1 6-6h94a7.54 7.54 0 0 1 7.35 5.84zm-110.66 5.85h112" stroke="#c03221" fill="#c03221" fill-opacity=".3"/><use xlink:href="#e" transform="matrix(1,0,0,1,-711.7558837283322,435.6184677081176) translate(0 20.822222222222223)"/><path d="M-1079.37 299.95a10.4 10.4 0 0 0 9 5.2h178.82a6 6 0 0 1 6 6v235.18a6 6 0 0 1-6 6h-502.83a6 6 0 0 1-6-6V285.15a6 6 0 0 1 6-6h297a10.4 10.4 0 0 1 9 5.2zm-321 5.2h324" stroke="#008a0e" stroke-width="2" fill="#008a0e" fill-opacity=".3"/><use xlink:href="#f" transform="matrix(1,0,0,1,-1392.3750301997493,279.1505914547412) translate(0 20.822222222222223)"/><path d="M-1169.7-298.64a9.05 9.05 0 0 0 8.33 5.52h124.8a6 6 0 0 1 6 6v197.26a6 6 0 0 1-6 6h-357.8a6 6 0 0 1-6-6v-223.26a6 6 0 0 1 6-6h210a9.05 9.05 0 0 1 8.33 5.53zm-230.67 5.52h233" stroke="#1071e5" stroke-width="2" fill="#0c8ce9" fill-opacity=".2"/><use xlink:href="#g" transform="matrix(1,0,0,1,-1392.3750301997497,-319.11773956437145) translate(0 20.822222222222223)"/><path d="M-1195.73-238.55a8.12 8.12 0 0 0 7.77 5.73h80.64a6 6 0 0 1 6 6v72.03a6 6 0 0 1-6 6h-239.64a6 6 0 0 1-6-6v-98.02a6 6 0 0 1 6-6h139a8.12 8.12 0 0 1 7.76 5.74zm-157.23 5.73h159" stroke="#1071e5" fill="#0c8ce9" fill-opacity=".2"/><use xlink:href="#h" transform="matrix(1,0,0,1,-1344.960994794691,-258.81736287804705) translate(0 20.822222222222223)"/><path d="M-948.1-30.43v-9.16m0-9.16v-18.35m0-9.18v-18.34m0-9.17v-18.33m0-9.17v-18.34m0-9.17v-18.35m0-9.17v-9.17l-.07-.93-.22-.9-.35-.88-.5-.82-.6-.7-.72-.62-.8-.5-.87-.35-.92-.22-.94-.07h-12.27m-12.28 0h-24.56m-12.28 0h-12.28" stroke="#3a414a" stroke-width="2" fill="none"/><path d="M-947.1-29.43h-2v-1.02h2z" stroke="#3a414a" stroke-width=".05" fill="#3a414a"/><path d="M-1010.4-211.67l-17.2 10.18 17.2 10.2M-825.5-201.5h-12.4l-.94.1-.92.2-.87.36-.8.5-.72.6-.6.72-.5.8-.36.88-.23.9-.07.95v10.2m0 10.2v20.37m0 10.2v20.37m0 10.2v20.37m0 10.2V-63m0 10.17v20.4m0 10.18v20.38m0 10.2V18.5l-.08.95-.22.9-.36.88-.5.8-.6.72-.72.6-.8.5-.87.36-.92.23-.93.08h-10.95m-10.94 0h-10.93" stroke="#3a414a" stroke-width="2" fill="none"/><path d="M-824.5-200.5h-1.02v-2h1.02z" stroke="#3a414a" stroke-width=".05" fill="#3a414a"/><path d="M-865.37 14.33l-17.2 10.18 17.2 10.2M-374-201.5h7.04m7.03 0h7.03l.94.1.9.2.88.36.8.5.72.6.6.72.5.8.36.88.22.9.08.95v10.16m0 10.16v20.3m0 10.15v20.3m0 10.16v20.3m0 10.16v20.3m0 10.15v20.3m0 10.15v20.3m0 10.16v20.3m0 10.16v20.3m0 10.16v20.3m0 10.15v20.3m0 10.16v20.3m0 10.15v20.3m0 10.16v20.3m0 10.16v20.3m0 10.16v20.3m0 10.16v20.3m0 10.15v20.3m0 10.16v20.3m0 10.15v20.3m0 10.16v20.3m0 10.16v20.3m0 10.16v20.3m0 10.16v10.15l-.08.94-.22.92-.36.86-.5.8-.6.7-.72.63-.8.48-.87.36-.9.22-.95.07h-11.67m-11.66 0h-23.32m-11.66 0h-11.67" stroke="#3a414a" stroke-width="2" fill="none"/><path d="M-373.97-200.5H-375v-2h1.03z" stroke="#3a414a" stroke-width=".05" fill="#3a414a"/><path d="M-405.5 500.85l-17.23 10.18 17.22 10.18M-1402.38 415.74h-10.16m-10.16 0h-10.17l-.94-.07-.92-.22-.87-.36-.8-.5-.7-.62-.62-.7-.5-.8-.36-.88-.22-.92-.07-.94v-10.1m0-10.07V369.4m0-10.1v-20.17m0-10.1v-20.16m0-10.1v-20.16m0-10.08v-20.17m0-10.1V218.1m0-10.1v-20.18m0-10.08v-20.18m0-10.1v-20.16m0-10.1V97.05m0-10.1V66.8m0-10.1V36.53m0-10.1V6.26m0-10.08V-24m0-10.1v-20.17m0-10.1v-20.16m0-10.1v-20.16m0-10.08v-20.17m0-10.1v-20.16m0-10.1v-10.1l.07-.93.22-.9.36-.88.5-.82.6-.7.72-.62.8-.5.88-.35.9-.22.95-.07h9.9m9.88 0h9.9" stroke="#3a414a" stroke-width="2" fill="none"/><path d="M-1401.38 416.74h-1.02v-2h1.03z" stroke="#3a414a" stroke-width=".05" fill="#3a414a"/><path d="M-1420.55-191.3l17.2-10.2-17.2-10.17M-758.17 469.23h-9.45m-9.45 0h-18.9m-9.44 0h-9.46l-.94-.07-.9-.22-.88-.36-.8-.5-.72-.6-.6-.72-.5-.8-.37-.88-.22-.9-.06-.95v-9.7m0-9.68v-19.38m0-9.7V395.4m0-9.7v-19.38m0-9.7v-19.37m0-9.7v-19.38m0-9.7V279.1m0-9.7v-19.37m0-9.7v-19.38m0-9.7V191.9m0-9.7v-9.68l-.07-.94-.22-.9-.36-.88-.5-.8-.62-.72-.7-.6-.82-.5-.87-.37-.92-.23-.94-.07h-9.3m-9.32 0h-18.63m-9.32 0h-9.3" stroke="#3a414a" stroke-width="2" fill="none"/><path d="M-757.17 470.23h-1.03v-2h1.03z" stroke="#3a414a" stroke-width=".05" fill="#3a414a"/><path d="M-865.37 156.32l-17.2 10.18 17.2 10.18M-486.92-81.86v7.64m0 7.64v15.3m0 7.63V-35.96l.02.05.02.05.03.05.04.04.03.04.04.03.06.03h.05l.06.02h.09l.06.03.04.03.04.05.04.04.03.04.02.05v.04l.02.06v7.5m0 7.5v15.02m0 7.5v7.5" stroke="#3a414a" stroke-width="2" fill="none"/><path d="M-485.92-81.83h-2v-1.03h2z" stroke="#3a414a" stroke-width=".05" fill="#3a414a"/><path d="M-496.4-7.63l10.2 17.22 10.17-17.23M-758.17 77.14h-10.38m-10.38 0h-20.76m-10.37 0h-20.76m-10.38 0h-20.77m-10.38 0h-10.38" stroke="#3a414a" stroke-width="2" fill="none"/><path d="M-757.17 78.14h-1.03v-2h1.03z" stroke="#3a414a" stroke-width=".05" fill="#3a414a"/><path d="M-865.37 66.95l-17.2 10.2 17.2 10.17M-386.1-81.86v9.2m0 9.17v18.38m0 9.2v18.36m0 9.18V10m0 9.18v18.37m0 9.2V65.1m0 9.2v9.26l-.02.07-.03.06-.04.06-.04.05-.05.06-.05.04-.07.03h-.07l-.07.02h-.07l-.07.02-.08.03-.06.04-.06.05-.05.04-.03.06-.03.07-.03.08v10.77m0 10.68v21.38m0 10.7v21.36m0 10.7v21.37m0 10.7v21.38m0 10.7v10.68l-.08.94-.23.9-.36.88-.48.8-.6.72-.73.6-.8.5-.88.37-.92.2-.93.1-9.95-.02m-9.95 0h-9.94" stroke="#3a414a" stroke-width="2" fill="none"/><path d="M-385.1-81.83h-2v-1.03h2z" stroke="#3a414a" stroke-width=".05" fill="#3a414a"/><path d="M-405.5 240.57l-17.23 10.18 17.2 10.18M-423.7 469.23h10.24m10.23 0H-393l.94-.07.92-.22.87-.36.8-.5.7-.6.63-.72.5-.8.35-.88.23-.9.07-.95v-9.6m0-9.6v-19.18m0-9.6v-19.18m0-9.6v-19.2m0-9.58v-19.2m0-9.6v-19.2m0-9.58v-9.6l-.07-.93-.22-.93-.35-.87-.5-.8-.6-.72-.72-.6-.8-.5-.87-.36-.92-.22-.94-.08h-9.96m-9.96 0h-9.95" stroke="#3a414a" stroke-width="2" fill="none"/><path d="M-423.67 470.23h-1.02v-2h1.03z" stroke="#3a414a" stroke-width=".05" fill="#3a414a"/><path d="M-405.5 274.34l-17.23 10.2 17.22 10.17M-759 255.7h-9.86m-9.86 0h-9.86l-.94-.08-.92-.22-.87-.36-.8-.5-.73-.6-.6-.72-.5-.8-.36-.87-.2-.92-.08-.94v-10.02m0-10.02v-20.03m0-10.02V179.6m0-10v-20.05m0-10V129.5l-.08-.94-.22-.9-.36-.88-.5-.8-.6-.72-.72-.6-.8-.5-.87-.36-.9-.22-.95-.08h-9.22m-9.22 0h-18.44m-9.2 0h-18.45m-9.23 0h-9.22M-776.35 265.88l17.2-10.2-17.2-10.17" stroke="#3a414a" stroke-width="2" fill="none"/><path d="M-883.52 124.5h-1.03v-2h1.03z" stroke="#3a414a" stroke-width=".05" fill="#3a414a"/><path d="M-883.55 217.56h7.68m7.67 0h7.68l.94.07.9.22.88.36.8.5.72.6.6.73.5.8.36.87.22.92.08.94v10.6m0 10.63V266m0 10.63v21.23m0 10.6v21.24m0 10.62v21.22m0 10.62v21.23m0 10.6v21.23m0 10.62v21.22m0 10.62v10.6l-.08.94-.22.92-.36.87-.5.8-.6.72-.72.6-.8.5-.87.36-.9.23-.95.07h-7.4m-7.4 0h-7.4" stroke="#3a414a" stroke-width="2" fill="none"/><path d="M-883.52 218.56h-1.03v-2h1.03z" stroke="#3a414a" stroke-width=".05" fill="#3a414a"/><path d="M-865.37 474.12l-17.2 10.18 17.2 10.18" stroke="#3a414a" stroke-width="2" fill="none"/><path d="M-1079.37-33.62a10.4 10.4 0 0 0 9 5.2h178.82a6 6 0 0 1 6 6V243.7a6 6 0 0 1-6 6.02h-502.83a6 6 0 0 1-6-6V-48.42a6 6 0 0 1 6-6h297a10.4 10.4 0 0 1 9 5.2zm-321 5.2h324" stroke="#e8b900" stroke-width="2" fill="#e8b900" fill-opacity=".3"/><use xlink:href="#i" transform="matrix(1,0,0,1,-1392.3750301997493,-54.42475028229103) translate(0 20.822222222222223)"/><path d="M-1255.6 26.43a7.26 7.26 0 0 0 7.14 5.9h59.56a6 6 0 0 1 6 6V90.1a6 6 0 0 1-6 6h-180.56a6 6 0 0 1-6-6V12.34a6 6 0 0 1 6-6h104a7.26 7.26 0 0 1 7.14 5.9zm-119.86 5.9h121" stroke="#e8b900" fill="#e8b900" fill-opacity=".3"/><use xlink:href="#j" transform="matrix(1,0,0,1,-1367.456153483191,6.3248959387144055) translate(0 20.822222222222223)"/><path d="M-941.64 174.08h6.7m6.72 0h6.7l.95-.08.9-.22.88-.36.82-.5.7-.6.62-.72.5-.8.36-.87.22-.92.07-.92v-10.84m0-10.83v-21.66m0-10.83V92.25m0-10.84V70.57l-.08-.94-.22-.9-.36-.88-.5-.8-.6-.72-.72-.6-.8-.5-.88-.37-.9-.22-.95-.07h-19.33" stroke="#3a414a" stroke-width="2" fill="none"/><path d="M-941.62 175.08h-1.02v-2h1.02z" stroke="#3a414a" stroke-width=".05" fill="#3a414a"/><path d="M-923.46 54.4l-17.22 10.17 17.22 10.18" stroke="#3a414a" stroke-width="2" fill="none"/><path d="M-1255.6 135.94a7.26 7.26 0 0 0 7.14 5.9h59.56a6 6 0 0 1 6 6v51.78a6 6 0 0 1-6 6h-180.56a6 6 0 0 1-6-6v-77.8a6 6 0 0 1 6-6h104a7.26 7.26 0 0 1 7.14 5.9zm-119.86 5.9h121" stroke="#e8b900" fill="#e8b900" fill-opacity=".3"/><use xlink:href="#k" transform="matrix(1,0,0,1,-1367.456153483191,115.83213529024863) translate(0 20.822222222222223)"/><path d="M-1015.84 135.94a7.26 7.26 0 0 0 7.14 5.9h59.56a6 6 0 0 1 6 6v51.78a6 6 0 0 1-6 6h-180.56a6 6 0 0 1-6-6v-77.8a6 6 0 0 1 6-6h104a7.26 7.26 0 0 1 7.13 5.9zm-119.86 5.9h121" stroke="#e8b900" fill="#e8b900" fill-opacity=".3"/><use xlink:href="#l" transform="matrix(1,0,0,1,-1127.70156022946,115.83213529024863) translate(0 20.822222222222223)"/><path d="M-1015.84 26.43a7.26 7.26 0 0 0 7.14 5.9h59.56a6 6 0 0 1 6 6V90.1a6 6 0 0 1-6 6h-180.56a6 6 0 0 1-6-6V12.34a6 6 0 0 1 6-6h104a7.26 7.26 0 0 1 7.13 5.9zm-119.86 5.9h121" stroke="#e8b900" fill="#e8b900" fill-opacity=".3"/><use xlink:href="#m" transform="matrix(1,0,0,1,-1127.70156022946,6.3248959387144055) translate(0 20.822222222222223)"/><path d="M-544.18-298.48a9.7 9.7 0 0 0 8.68 5.36H-382a6 6 0 0 1 6 6v197.26a6 6 0 0 1-6 6h-435.5a6 6 0 0 1-6-6v-223.26a6 6 0 0 1 6-6h257a9.7 9.7 0 0 1 8.68 5.37zm-279.32 5.36h282" stroke="#01161e" stroke-width="2" fill="#01161e" fill-opacity=".3"/><use xlink:href="#n" transform="matrix(1,0,0,1,-815.499546612943,-319.11773956437145) translate(0 20.822222222222223)"/><path d="M-680.62-236.08a7.26 7.26 0 0 0 7.13 5.9h49.84a6 6 0 0 1 6 6v71.4a6 6 0 0 1-6 6H-779.5a6 6 0 0 1-6-6v-97.4a6 6 0 0 1 6-6h89a7.26 7.26 0 0 1 7.14 5.88zm-104.87 5.9h106" stroke="#01161e" fill="#01161e" fill-opacity=".3"/><use xlink:href="#o" transform="matrix(1,0,0,1,-777.4878689845888,-256.19213767221527) translate(0 20.822222222222223)"/><path d="M-471.04-236.08a7.26 7.26 0 0 0 7.14 5.9h49.82a6 6 0 0 1 6 6v71.4a6 6 0 0 1-6 6H-569.9a6 6 0 0 1-6-6v-97.4a6 6 0 0 1 6-6h89a7.26 7.26 0 0 1 7.13 5.88zm-104.86 5.9h106" stroke="#01161e" fill="#01161e" fill-opacity=".3"/><use xlink:href="#p" transform="matrix(1,0,0,1,-567.9045990485887,-256.19213767221527) translate(0 20.822222222222223)"/><path d="M-1181.4 160.72h11.25l.94-.07.9-.22.88-.36.8-.5.7-.6.63-.72.5-.8.36-.87.22-.92.07-.94V143.9m0-10.84v-21.67m0-10.85V78.9m0-10.85V57.22l.08-.94.2-.92.38-.87.5-.8.6-.73.72-.6.8-.5.88-.36.9-.2.95-.08h6.7m6.72 0h6.7" stroke="#3a414a" stroke-width="2" fill="none"/><path d="M-1181.37 161.72h-1.03v-2h1.03z" stroke="#3a414a" stroke-width=".05" fill="#3a414a"/><path d="M-1155.38 61.4l17.2-10.18-17.2-10.18M-1181.4 183.3h14.46m14.46 0h14.46" stroke="#3a414a" stroke-width="2" fill="none"/><path d="M-1181.37 184.3h-1.03v-2h1.03z" stroke="#3a414a" stroke-width=".05" fill="#3a414a"/><path d="M-1155.38 193.47l17.2-10.18-17.2-10.2" stroke="#3a414a" stroke-width="2" fill="none"/><defs><path d="M447-14c-35 17-88 26-139 26C139 12 53-90 53-259c0-187 118-299 319-268 23 4 46 10 67 19l-21 79c-28-13-66-22-107-22-111 1-162 75-161 192 1 118 51 189 170 189 43 1 87-10 114-22" id="q"/><path d="M297-533c160 0 244 110 244 273S457 13 297 13 53-97 53-260s84-273 244-273zm0 464c98 0 147-85 147-191s-49-191-147-191-147 85-147 191S199-69 297-69" id="r"/><path d="M278-449c-36 0-74 4-103 10V0H82v-505c94-23 290-55 347 27 41-28 96-52 166-53 149-3 194 91 194 239V0h-93v-272c0-100-11-177-111-177-50 0-96 17-119 35 30 114 10 276 16 414h-93v-272c0-99-12-179-111-177" id="s"/><path d="M125-121c39 0 67 30 67 67s-28 67-67 67-67-30-67-67 28-67 67-67" id="t"/><path d="M59-97c36 13 83 32 144 30 63-2 112-9 112-63 0-99-160-93-221-153-24-24-44-52-44-100 0-151 196-178 331-127l-17 80c-60-35-257-49-214 69 69 92 264 59 259 227-2 107-89 146-206 146C133 12 82-2 42-17" id="u"/><path d="M139-156c0 106 132 93 220 82v-155c-78-22-220-23-220 73zm-94 1c-2-152 173-180 314-148 5-94-26-150-117-150-50 0-101 8-132 20l-11-77c32-13 99-23 151-23 135 0 201 66 200 199V-9C390 1 319 11 247 11 126 11 46-34 45-155" id="v"/><path d="M257 11C121 11 76-66 76-201v-464l93-16v161h197v78H169v240c-1 80 17 131 96 131 43 0 79-13 103-23l18 77c-27 12-82 28-129 28" id="w"/><path d="M82-498c73-28 204-47 296-18l-16 81c-44-19-138-19-187-2V0H82v-498" id="x"/><path d="M175 0H82v-520h93V0zm13-675c0 35-26 61-60 61s-60-26-60-61 26-61 60-61 60 26 60 61" id="y"/><path d="M294-70c109-2 147-79 149-189 2-113-59-188-165-189-45 0-73 2-103 10v328c24 19 73 42 119 40zm-15-461c169 5 261 102 261 272C540-98 465 6 306 12c-51 2-103-18-131-35v208H82v-689c54-12 122-29 197-27" id="z"/><path d="M279-449c-36 1-74 4-104 10V0H82v-505c55-13 130-26 207-26 153 0 213 87 213 239V0h-93v-272c1-107-22-180-130-177" id="A"/><path d="M255-109c52-125 101-269 137-411h96C441-339 364-151 295 0h-84C142-151 64-339 18-520h100c36 142 85 286 137 411" id="B"/><path d="M315 12C141 9 53-87 53-259c0-164 81-274 237-274 163 0 227 118 216 298H150c9 108 58 165 175 165 54 0 101-11 133-25l13 78c-33 16-99 31-156 29zm95-322c8-101-82-177-178-132-47 22-73 71-80 132h258" id="C"/><path d="M252 108c114 0 161-44 156-160-25 15-79 35-127 33-151-6-228-96-228-252 0-162 90-254 252-260 75-2 141 15 195 27v464c0 164-85 227-250 228-62 1-124-12-168-27l17-81c38 15 98 28 153 28zm38-207c46 2 92-16 117-35v-304c-29-7-58-11-101-11-102-1-157 76-156 179 2 102 44 167 140 171" id="D"/><path d="M82-567C68-745 227-812 397-759l-17 80c-21-10-52-17-88-17-102 0-122 72-117 176h200v78H175V0H82v-567" id="E"/><g id="a"><use transform="matrix(0.02222222222222222,0,0,0.02222222222222222,0,0)" xlink:href="#q"/><use transform="matrix(0.02222222222222222,0,0,0.02222222222222222,10.133333333333331,0)" xlink:href="#r"/><use transform="matrix(0.02222222222222222,0,0,0.02222222222222222,23.333333333333332,0)" xlink:href="#s"/><use transform="matrix(0.02222222222222222,0,0,0.02222222222222222,42.55555555555555,0)" xlink:href="#t"/><use transform="matrix(0.02222222222222222,0,0,0.02222222222222222,48.11111111111111,0)" xlink:href="#u"/><use transform="matrix(0.02222222222222222,0,0,0.02222222222222222,58.11111111111111,0)" xlink:href="#v"/><use transform="matrix(0.02222222222222222,0,0,0.02222222222222222,69.8,0)" xlink:href="#w"/><use transform="matrix(0.02222222222222222,0,0,0.02222222222222222,78.5111111111111,0)" xlink:href="#r"/><use transform="matrix(0.02222222222222222,0,0,0.02222222222222222,91.7111111111111,0)" xlink:href="#x"/><use transform="matrix(0.02222222222222222,0,0,0.02222222222222222,100.37777777777778,0)" xlink:href="#y"/><use transform="matrix(0.02222222222222222,0,0,0.02222222222222222,106.0888888888889,0)" xlink:href="#z"/><use transform="matrix(0.02222222222222222,0,0,0.02222222222222222,119.26666666666667,0)" xlink:href="#r"/><use transform="matrix(0.02222222222222222,0,0,0.02222222222222222,132.46666666666667,0)" xlink:href="#z"/><use transform="matrix(0.02222222222222222,0,0,0.02222222222222222,145.64444444444445,0)" xlink:href="#t"/><use transform="matrix(0.02222222222222222,0,0,0.02222222222222222,151.2,0)" xlink:href="#q"/><use transform="matrix(0.02222222222222222,0,0,0.02222222222222222,161.33333333333331,0)" xlink:href="#r"/><use transform="matrix(0.02222222222222222,0,0,0.02222222222222222,174.5333333333333,0)" xlink:href="#A"/><use transform="matrix(0.02222222222222222,0,0,0.02222222222222222,187.0222222222222,0)" xlink:href="#B"/><use transform="matrix(0.02222222222222222,0,0,0.02222222222222222,197.95555555555552,0)" xlink:href="#C"/><use transform="matrix(0.02222222222222222,0,0,0.02222222222222222,210.46666666666664,0)" xlink:href="#x"/><use transform="matrix(0.02222222222222222,0,0,0.02222222222222222,219.1333333333333,0)" xlink:href="#D"/><use transform="matrix(0.02222222222222222,0,0,0.02222222222222222,232.06666666666663,0)" xlink:href="#C"/><use transform="matrix(0.02222222222222222,0,0,0.02222222222222222,244.57777777777775,0)" xlink:href="#A"/><use transform="matrix(0.02222222222222222,0,0,0.02222222222222222,257.4222222222222,0)" xlink:href="#q"/><use transform="matrix(0.02222222222222222,0,0,0.02222222222222222,267.84444444444443,0)" xlink:href="#C"/><use transform="matrix(0.02222222222222222,0,0,0.02222222222222222,280.35555555555555,0)" xlink:href="#t"/><use transform="matrix(0.02222222222222222,0,0,0.02222222222222222,285.9111111111111,0)" xlink:href="#A"/><use transform="matrix(0.02222222222222222,0,0,0.02222222222222222,298.75555555555553,0)" xlink:href="#r"/><use transform="matrix(0.02222222222222222,0,0,0.02222222222222222,311.9555555555555,0)" xlink:href="#w"/><use transform="matrix(0.02222222222222222,0,0,0.02222222222222222,320.97777777777776,0)" xlink:href="#y"/><use transform="matrix(0.02222222222222222,0,0,0.02222222222222222,326.68888888888887,0)" xlink:href="#E"/><use transform="matrix(0.02222222222222222,0,0,0.02222222222222222,335.35555555555555,0)" xlink:href="#y"/><use transform="matrix(0.02222222222222222,0,0,0.02222222222222222,341.06666666666666,0)" xlink:href="#q"/><use transform="matrix(0.02222222222222222,0,0,0.02222222222222222,351.4888888888889,0)" xlink:href="#v"/><use transform="matrix(0.02222222222222222,0,0,0.02222222222222222,363.17777777777775,0)" xlink:href="#w"/><use transform="matrix(0.02222222222222222,0,0,0.02222222222222222,372.19999999999993,0)" xlink:href="#y"/><use transform="matrix(0.02222222222222222,0,0,0.02222222222222222,377.91111111111104,0)" xlink:href="#r"/><use transform="matrix(0.02222222222222222,0,0,0.02222222222222222,391.1111111111111,0)" xlink:href="#A"/><use transform="matrix(0.02222222222222222,0,0,0.02222222222222222,403.9555555555555,0)" xlink:href="#q"/><use transform="matrix(0.02222222222222222,0,0,0.02222222222222222,414.37777777777774,0)" xlink:href="#C"/><use transform="matrix(0.02222222222222222,0,0,0.02222222222222222,426.88888888888886,0)" xlink:href="#A"/><use transform="matrix(0.02222222222222222,0,0,0.02222222222222222,439.7333333333333,0)" xlink:href="#w"/><use transform="matrix(0.02222222222222222,0,0,0.02222222222222222,448.5333333333333,0)" xlink:href="#C"/><use transform="matrix(0.02222222222222222,0,0,0.02222222222222222,461.04444444444437,0)" xlink:href="#x"/></g><g id="b"><use transform="matrix(0.02222222222222222,0,0,0.02222222222222222,0,0)" xlink:href="#q"/><use transform="matrix(0.02222222222222222,0,0,0.02222222222222222,10.133333333333331,0)" xlink:href="#r"/><use transform="matrix(0.02222222222222222,0,0,0.02222222222222222,23.333333333333332,0)" xlink:href="#A"/><use transform="matrix(0.02222222222222222,0,0,0.02222222222222222,36.17777777777777,0)" xlink:href="#E"/><use transform="matrix(0.02222222222222222,0,0,0.02222222222222222,44.844444444444434,0)" xlink:href="#y"/><use transform="matrix(0.02222222222222222,0,0,0.02222222222222222,50.55555555555554,0)" xlink:href="#D"/></g><path d="M173-151c-3 59 26 79 78 83l-13 78C129 7 80-30 80-136v-624l93-16v625" id="F"/><g id="c"><use transform="matrix(0.02222222222222222,0,0,0.02222222222222222,0,0)" xlink:href="#v"/><use transform="matrix(0.02222222222222222,0,0,0.02222222222222222,11.688888888888888,0)" xlink:href="#r"/><use transform="matrix(0.02222222222222222,0,0,0.02222222222222222,24.888888888888886,0)" xlink:href="#z"/><use transform="matrix(0.02222222222222222,0,0,0.02222222222222222,38.06666666666666,0)" xlink:href="#t"/><use transform="matrix(0.02222222222222222,0,0,0.02222222222222222,43.62222222222222,0)" xlink:href="#F"/><use transform="matrix(0.02222222222222222,0,0,0.02222222222222222,49.77777777777777,0)" xlink:href="#r"/><use transform="matrix(0.02222222222222222,0,0,0.02222222222222222,62.97777777777777,0)" xlink:href="#D"/><use transform="matrix(0.02222222222222222,0,0,0.02222222222222222,75.91111111111111,0)" xlink:href="#D"/><use transform="matrix(0.02222222222222222,0,0,0.02222222222222222,88.84444444444445,0)" xlink:href="#y"/><use transform="matrix(0.02222222222222222,0,0,0.02222222222222222,94.55555555555557,0)" xlink:href="#A"/><use transform="matrix(0.02222222222222222,0,0,0.02222222222222222,107.4,0)" xlink:href="#D"/></g><path d="M300-71c36 0 74-3 103-10v-439h93v505C441-2 367 11 290 11 138 11 76-78 76-228v-292h93v272c2 116 24 177 131 177" id="G"/><path d="M266-100c50-137 84-270 119-420h96C435-330 371-148 306 16 261 129 164 226 4 172l17-75c41 21 118 16 149-11 20-17 39-42 56-79C145-149 66-333 18-520h100c37 148 89 293 148 420" id="H"/><g id="d"><use transform="matrix(0.02222222222222222,0,0,0.02222222222222222,0,0)" xlink:href="#u"/><use transform="matrix(0.02222222222222222,0,0,0.02222222222222222,9.999999999999998,0)" xlink:href="#C"/><use transform="matrix(0.02222222222222222,0,0,0.02222222222222222,22.511111111111106,0)" xlink:href="#q"/><use transform="matrix(0.02222222222222222,0,0,0.02222222222222222,32.93333333333332,0)" xlink:href="#G"/><use transform="matrix(0.02222222222222222,0,0,0.02222222222222222,45.777777777777764,0)" xlink:href="#x"/><use transform="matrix(0.02222222222222222,0,0,0.02222222222222222,54.44444444444443,0)" xlink:href="#y"/><use transform="matrix(0.02222222222222222,0,0,0.02222222222222222,60.15555555555554,0)" xlink:href="#w"/><use transform="matrix(0.02222222222222222,0,0,0.02222222222222222,69.17777777777776,0)" xlink:href="#H"/></g><path d="M186-70c105-3 137-50 138-162v-461h97v470C453 10 177 74 10-41l38-77c33 22 77 50 138 48" id="I"/><path d="M903-693C857-438 808-218 734 0h-97c-62-154-117-299-170-470C414-299 357-155 296 0h-97C124-217 75-438 30-693h102c36 196 74 394 125 572 56-149 122-324 169-490h84c47 166 115 341 171 490 50-178 88-377 123-572h99" id="J"/><path d="M551-693v84H333V0h-97v-609H18v-84h533" id="K"/><g id="e"><use transform="matrix(0.02222222222222222,0,0,0.02222222222222222,0,0)" xlink:href="#I"/><use transform="matrix(0.02222222222222222,0,0,0.02222222222222222,11.2,0)" xlink:href="#J"/><use transform="matrix(0.02222222222222222,0,0,0.02222222222222222,32.355555555555554,0)" xlink:href="#K"/></g><g id="f"><use transform="matrix(0.02222222222222222,0,0,0.02222222222222222,0,0)" xlink:href="#x"/><use transform="matrix(0.02222222222222222,0,0,0.02222222222222222,8.666666666666666,0)" xlink:href="#C"/><use transform="matrix(0.02222222222222222,0,0,0.02222222222222222,21.177777777777777,0)" xlink:href="#z"/><use transform="matrix(0.02222222222222222,0,0,0.02222222222222222,34.355555555555554,0)" xlink:href="#r"/><use transform="matrix(0.02222222222222222,0,0,0.02222222222222222,47.55555555555556,0)" xlink:href="#u"/><use transform="matrix(0.02222222222222222,0,0,0.02222222222222222,57.55555555555556,0)" xlink:href="#y"/><use transform="matrix(0.02222222222222222,0,0,0.02222222222222222,63.26666666666667,0)" xlink:href="#w"/><use transform="matrix(0.02222222222222222,0,0,0.02222222222222222,71.97777777777777,0)" xlink:href="#r"/><use transform="matrix(0.02222222222222222,0,0,0.02222222222222222,85.17777777777778,0)" xlink:href="#x"/><use transform="matrix(0.02222222222222222,0,0,0.02222222222222222,94.31111111111112,0)" xlink:href="#H"/></g><path d="M315-70c41 0 75-4 103-11v-329c-24-19-73-42-119-40-110 2-147 80-149 190-2 113 59 189 165 190zm-28-462c51-2 103 18 131 35v-263l93-16v761C458-1 388 13 314 12 145 7 53-90 53-260c0-162 75-266 234-272" id="L"/><g id="g"><use transform="matrix(0.02222222222222222,0,0,0.02222222222222222,0,0)" xlink:href="#L"/><use transform="matrix(0.02222222222222222,0,0,0.02222222222222222,13.177777777777775,0)" xlink:href="#r"/><use transform="matrix(0.02222222222222222,0,0,0.02222222222222222,26.377777777777776,0)" xlink:href="#s"/><use transform="matrix(0.02222222222222222,0,0,0.02222222222222222,45.599999999999994,0)" xlink:href="#v"/><use transform="matrix(0.02222222222222222,0,0,0.02222222222222222,57.288888888888884,0)" xlink:href="#y"/><use transform="matrix(0.02222222222222222,0,0,0.02222222222222222,62.99999999999999,0)" xlink:href="#A"/></g><g id="h"><use transform="matrix(0.02222222222222222,0,0,0.02222222222222222,0,0)" xlink:href="#C"/><use transform="matrix(0.02222222222222222,0,0,0.02222222222222222,12.51111111111111,0)" xlink:href="#A"/><use transform="matrix(0.02222222222222222,0,0,0.02222222222222222,25.355555555555554,0)" xlink:href="#G"/><use transform="matrix(0.02222222222222222,0,0,0.02222222222222222,38.199999999999996,0)" xlink:href="#s"/><use transform="matrix(0.02222222222222222,0,0,0.02222222222222222,57.42222222222222,0)" xlink:href="#C"/><use transform="matrix(0.02222222222222222,0,0,0.02222222222222222,69.93333333333332,0)" xlink:href="#x"/><use transform="matrix(0.02222222222222222,0,0,0.02222222222222222,78.6,0)" xlink:href="#v"/><use transform="matrix(0.02222222222222222,0,0,0.02222222222222222,90.28888888888888,0)" xlink:href="#w"/><use transform="matrix(0.02222222222222222,0,0,0.02222222222222222,99.3111111111111,0)" xlink:href="#y"/><use transform="matrix(0.02222222222222222,0,0,0.02222222222222222,105.02222222222221,0)" xlink:href="#r"/><use transform="matrix(0.02222222222222222,0,0,0.02222222222222222,118.22222222222221,0)" xlink:href="#A"/></g><g id="i"><use transform="matrix(0.02222222222222222,0,0,0.02222222222222222,0,0)" xlink:href="#u"/><use transform="matrix(0.02222222222222222,0,0,0.02222222222222222,9.999999999999998,0)" xlink:href="#C"/><use transform="matrix(0.02222222222222222,0,0,0.02222222222222222,22.511111111111106,0)" xlink:href="#x"/><use transform="matrix(0.02222222222222222,0,0,0.02222222222222222,31.644444444444442,0)" xlink:href="#B"/><use transform="matrix(0.02222222222222222,0,0,0.02222222222222222,42.888888888888886,0)" xlink:href="#y"/><use transform="matrix(0.02222222222222222,0,0,0.02222222222222222,48.599999999999994,0)" xlink:href="#q"/><use transform="matrix(0.02222222222222222,0,0,0.02222222222222222,59.02222222222222,0)" xlink:href="#C"/></g><g id="j"><use transform="matrix(0.02222222222222222,0,0,0.02222222222222222,0,0)" xlink:href="#q"/><use transform="matrix(0.02222222222222222,0,0,0.02222222222222222,10.42222222222222,0)" xlink:href="#x"/><use transform="matrix(0.02222222222222222,0,0,0.02222222222222222,19.08888888888889,0)" xlink:href="#y"/><use transform="matrix(0.02222222222222222,0,0,0.02222222222222222,24.799999999999997,0)" xlink:href="#w"/><use transform="matrix(0.02222222222222222,0,0,0.02222222222222222,33.599999999999994,0)" xlink:href="#C"/><use transform="matrix(0.02222222222222222,0,0,0.02222222222222222,46.11111111111109,0)" xlink:href="#x"/><use transform="matrix(0.02222222222222222,0,0,0.02222222222222222,54.777777777777764,0)" xlink:href="#y"/><use transform="matrix(0.02222222222222222,0,0,0.02222222222222222,60.48888888888887,0)" xlink:href="#v"/></g><g id="k"><use transform="matrix(0.02222222222222222,0,0,0.02222222222222222,0,0)" xlink:href="#y"/><use transform="matrix(0.02222222222222222,0,0,0.02222222222222222,5.71111111111111,0)" xlink:href="#s"/><use transform="matrix(0.02222222222222222,0,0,0.02222222222222222,24.93333333333333,0)" xlink:href="#z"/><use transform="matrix(0.02222222222222222,0,0,0.02222222222222222,38.11111111111111,0)" xlink:href="#F"/></g><g id="l"><use transform="matrix(0.02222222222222222,0,0,0.02222222222222222,0,0)" xlink:href="#s"/><use transform="matrix(0.02222222222222222,0,0,0.02222222222222222,19.22222222222222,0)" xlink:href="#v"/><use transform="matrix(0.02222222222222222,0,0,0.02222222222222222,30.91111111111111,0)" xlink:href="#z"/><use transform="matrix(0.02222222222222222,0,0,0.02222222222222222,44.08888888888889,0)" xlink:href="#z"/><use transform="matrix(0.02222222222222222,0,0,0.02222222222222222,57.26666666666667,0)" xlink:href="#C"/><use transform="matrix(0.02222222222222222,0,0,0.02222222222222222,69.77777777777777,0)" xlink:href="#x"/></g><g id="m"><use transform="matrix(0.02222222222222222,0,0,0.02222222222222222,0,0)" xlink:href="#L"/><use transform="matrix(0.02222222222222222,0,0,0.02222222222222222,13.177777777777775,0)" xlink:href="#w"/><use transform="matrix(0.02222222222222222,0,0,0.02222222222222222,21.888888888888886,0)" xlink:href="#r"/></g><path d="M761-520C714-334 656-153 588 0h-81c-40-105-86-236-117-357-31 122-76 252-116 357h-81C125-153 67-334 20-520h100c31 138 71 286 118 407 45-126 85-269 117-407h77c30 140 70 281 115 407 46-123 88-268 118-407h96" id="M"/><path d="M279 12C204 13 135-1 82-15v-745l93-16v279c28-17 80-37 131-35 159 6 234 110 234 272C540-90 448 7 279 12zm15-462c-46-2-95 21-119 40v329c28 7 62 11 103 11 106 0 167-77 165-190-2-110-39-188-149-190" id="N"/><g id="n"><use transform="matrix(0.02222222222222222,0,0,0.02222222222222222,0,0)" xlink:href="#M"/><use transform="matrix(0.02222222222222222,0,0,0.02222222222222222,17.355555555555554,0)" xlink:href="#C"/><use transform="matrix(0.02222222222222222,0,0,0.02222222222222222,29.866666666666664,0)" xlink:href="#N"/><use transform="matrix(0.02222222222222222,0,0,0.02222222222222222,43.04444444444444,0)" xlink:href="#t"/><use transform="matrix(0.02222222222222222,0,0,0.02222222222222222,48.599999999999994,0)" xlink:href="#x"/><use transform="matrix(0.02222222222222222,0,0,0.02222222222222222,57.26666666666666,0)" xlink:href="#C"/><use transform="matrix(0.02222222222222222,0,0,0.02222222222222222,69.77777777777777,0)" xlink:href="#u"/><use transform="matrix(0.02222222222222222,0,0,0.02222222222222222,79.77777777777777,0)" xlink:href="#w"/></g><g id="o"><use transform="matrix(0.02222222222222222,0,0,0.02222222222222222,0,0)" xlink:href="#C"/><use transform="matrix(0.02222222222222222,0,0,0.02222222222222222,12.51111111111111,0)" xlink:href="#x"/><use transform="matrix(0.02222222222222222,0,0,0.02222222222222222,21.177777777777777,0)" xlink:href="#x"/><use transform="matrix(0.02222222222222222,0,0,0.02222222222222222,29.84444444444444,0)" xlink:href="#r"/><use transform="matrix(0.02222222222222222,0,0,0.02222222222222222,43.04444444444444,0)" xlink:href="#x"/></g><g id="p"><use transform="matrix(0.02222222222222222,0,0,0.02222222222222222,0,0)" xlink:href="#B"/><use transform="matrix(0.02222222222222222,0,0,0.02222222222222222,11.244444444444444,0)" xlink:href="#s"/></g></defs></g></svg>