<svg xmlns="http://www.w3.org/2000/svg" xmlns:xlink="http://www.w3.org/1999/xlink" xmlns:lucid="lucid" width="772.46" height="782"><g transform="translate(-588.5377777777778 -579)" lucid:page-tab-id="0_0"><path d="M780 608a8 8 0 0 1 8-8h544a8 8 0 0 1 8 8v724a8 8 0 0 1-8 8H788a8 8 0 0 1-8-8z" stroke="#0c8ce9" stroke-width="2" fill-opacity="0"/><use xlink:href="#a" transform="matrix(1,0,0,1,788,608) translate(0 16.568888888888885)"/><use xlink:href="#b" transform="matrix(1,0,0,1,788,608) translate(101.35111111111108 16.568888888888885)"/><use xlink:href="#c" transform="matrix(1,0,0,1,788,608) translate(158.13333333333327 16.568888888888885)"/><use xlink:href="#d" transform="matrix(1,0,0,1,788,608) translate(212.95999999999992 16.568888888888885)"/><use xlink:href="#e" transform="matrix(1,0,0,1,788,608) translate(245.42222222222213 16.568888888888885)"/><path d="M678.92 692.25c0 6.76-5.5 12.25-12.25 12.25-6.77 0-12.25-5.5-12.25-12.25 0-6.76 5.48-12.25 12.25-12.25 6.76 0 12.25 5.5 12.25 12.25z" stroke="#0c8ce9" stroke-width="2" fill="#fff"/><path d="M666.67 704.5v29.3a16.24 16.24 0 0 0 2.8 9.13L693.34 778m-26.66-39.2L640 778m0-61.25h53.33" stroke="#0c8ce9" stroke-width="2" fill="none"/><path d="M640 685a5 5 0 0 1 5-5h43.33a5 5 0 0 1 5 5v110a5 5 0 0 1-5 5H645a5 5 0 0 1-5-5z" fill="none"/><use xlink:href="#f" transform="matrix(1,0,0,1,560,778) translate(82.95555555555555 17.946666666666665)"/><path d="M1270 691c0 22.1-44.77 40-100 40s-100-17.9-100-40 44.77-40 100-40 100 17.9 100 40z" stroke="#0c8ce9" stroke-width="2" fill-opacity="0"/><use xlink:href="#g" transform="matrix(1,0,0,1,1069.9999999999995,651) translate(20.297666666666665 36.15466666666667)"/><use xlink:href="#h" transform="matrix(1,0,0,1,1069.9999999999995,651) translate(87.63766666666668 36.15466666666667)"/><use xlink:href="#i" transform="matrix(1,0,0,1,1069.9999999999995,651) translate(52.23433333333333 56.26133333333334)"/><path d="M1270 785c0 22.1-44.77 40-100 40s-100-17.9-100-40 44.77-40 100-40 100 17.9 100 40z" stroke="#0c8ce9" stroke-width="2" fill-opacity="0"/><use xlink:href="#j" transform="matrix(1,0,0,1,1069.9999999999995,745) translate(32.33566666666666 36.15466666666667)"/><use xlink:href="#h" transform="matrix(1,0,0,1,1069.9999999999995,745) translate(75.59966666666665 36.15466666666667)"/><use xlink:href="#k" transform="matrix(1,0,0,1,1069.9999999999995,745) translate(72.44500000000001 56.26133333333334)"/><path d="M678.92 932.25c0 6.76-5.5 12.25-12.25 12.25-6.77 0-12.25-5.5-12.25-12.25 0-6.76 5.48-12.25 12.25-12.25 6.76 0 12.25 5.5 12.25 12.25z" stroke="#0c8ce9" stroke-width="2" fill="#fff"/><path d="M666.67 944.5v29.3a16.24 16.24 0 0 0 2.8 9.13l23.86 35.07m-26.66-39.2L640 1018m0-61.25h53.33" stroke="#0c8ce9" stroke-width="2" fill="none"/><path d="M640 925a5 5 0 0 1 5-5h43.33a5 5 0 0 1 5 5v110a5 5 0 0 1-5 5H645a5 5 0 0 1-5-5z" fill="none"/><use xlink:href="#l" transform="matrix(1,0,0,1,559.9999999344641,1018) translate(82.28888888888889 17.946666666666665)"/><path d="M678.92 1172.25c0 6.77-5.5 12.25-12.25 12.25-6.77 0-12.25-5.48-12.25-12.25s5.48-12.25 12.25-12.25c6.76 0 12.25 5.48 12.25 12.25z" stroke="#0c8ce9" stroke-width="2" fill="#fff"/><path d="M666.67 1184.5v29.3a16.24 16.24 0 0 0 2.8 9.13l23.86 35.07m-26.66-39.2L640 1258m0-61.25h53.33" stroke="#0c8ce9" stroke-width="2" fill="none"/><path d="M640 1165a5 5 0 0 1 5-5h43.33a5 5 0 0 1 5 5v110a5 5 0 0 1-5 5H645a5 5 0 0 1-5-5z" fill="none"/><use xlink:href="#m" transform="matrix(1,0,0,1,560,1258) translate(50.53777777777776 17.946666666666665)"/><path d="M701 739.87l367-48.74M701.02 739.87L700 740" stroke="#0c8ce9" stroke-width="2" fill="none"/><path d="M1069.02 690.13l-.02.86v.37l.03.63-.9.13-.28-2 1.18-.14z" stroke="#0c8ce9" stroke-width=".05" fill="#0c8ce9"/><path d="M701 740.12l367 44.76M701.02 740.12L700 740" stroke="#0c8ce9" stroke-width="2" fill="none"/><path d="M1069.03 784v.13l-.03.86v.37l.03.64-1.17-.13.24-2z" stroke="#0c8ce9" stroke-width=".05" fill="#0c8ce9"/><path d="M666.67 918V813.74" stroke="#0c8ce9" stroke-width="2" fill="none"/><path d="M667.67 919.12l-1-.13-1 .12v-1.15h2z" stroke="#0c8ce9" stroke-width=".05" fill="#0c8ce9"/><path d="M666.67 801.96l7.63 12.92h-15.27z" stroke="#0c8ce9" stroke-width="2" fill="#fff"/><path d="M666.67 1053.75V1158" stroke="#0c8ce9" stroke-width="2" fill="none"/><path d="M666.67 1041.96l7.63 12.92h-15.27z" stroke="#0c8ce9" stroke-width="2" fill="#fff"/><path d="M667.67 1159.12l-1-.13-1 .12v-1.15h2z" stroke="#0c8ce9" stroke-width=".05" fill="#0c8ce9"/><path d="M1060 842c0 22.1-44.77 40-100 40s-100-17.9-100-40 44.77-40 100-40 100 17.9 100 40z" stroke="#0c8ce9" stroke-width="2" fill-opacity="0"/><use xlink:href="#g" transform="matrix(1,0,0,1,860,802) translate(20.297666666666665 36.15466666666667)"/><use xlink:href="#h" transform="matrix(1,0,0,1,860,802) translate(87.63766666666668 36.15466666666667)"/><use xlink:href="#n" transform="matrix(1,0,0,1,860,802) translate(59.88699999999999 56.26133333333334)"/><path d="M1060 936c0 22.1-44.77 40-100 40s-100-17.9-100-40 44.77-40 100-40 100 17.9 100 40z" stroke="#0c8ce9" stroke-width="2" fill-opacity="0"/><use xlink:href="#g" transform="matrix(1,0,0,1,860,896) translate(20.297666666666665 36.15466666666667)"/><use xlink:href="#h" transform="matrix(1,0,0,1,860,896) translate(87.63766666666668 36.15466666666667)"/><use xlink:href="#o" transform="matrix(1,0,0,1,860,896) translate(68.63166666666667 56.26133333333334)"/><path d="M1060 1019c0 16.57-44.77 30-100 30s-100-13.43-100-30 44.77-30 100-30 100 13.43 100 30z" stroke="#0c8ce9" stroke-width="2" fill-opacity="0"/><use xlink:href="#g" transform="matrix(1,0,0,1,860,989) translate(30.56766666666666 34.90466666666667)"/><use xlink:href="#p" transform="matrix(1,0,0,1,860,989) translate(97.90766666666667 34.90466666666667)"/><path d="M1060 1090c0 16.57-44.77 30-100 30s-100-13.43-100-30 44.77-30 100-30 100 13.43 100 30z" stroke="#0c8ce9" stroke-width="2" fill-opacity="0"/><use xlink:href="#j" transform="matrix(1,0,0,1,860,1060) translate(61.88033333333333 34.90466666666667)"/><use xlink:href="#q" transform="matrix(1,0,0,1,860,1060) translate(105.14433333333332 34.90466666666667)"/><path d="M1280 1050c0 16.57-35.82 30-80 30s-80-13.43-80-30 35.82-30 80-30 80 13.43 80 30z" stroke="#0c8ce9" stroke-width="2" fill-opacity="0"/><use xlink:href="#g" transform="matrix(1,0,0,1,1119.9999999999995,1020) translate(25.26633333333333 34.90466666666667)"/><use xlink:href="#r" transform="matrix(1,0,0,1,1119.9999999999995,1020) translate(92.60633333333334 34.90466666666667)"/><path d="M1280 970c0 16.57-35.82 30-80 30s-80-13.43-80-30 35.82-30 80-30 80 13.43 80 30z" stroke="#0c8ce9" stroke-width="2" fill-opacity="0"/><use xlink:href="#g" transform="matrix(1,0,0,1,1119.9999999999993,940) translate(18.71433333333332 34.90466666666667)"/><use xlink:href="#s" transform="matrix(1,0,0,1,1119.9999999999993,940) translate(86.05433333333333 34.90466666666667)"/><path d="M1069.37 1003.6l48.8-33.04" stroke="#0c8ce9" stroke-width="2" fill="none"/><path d="M1059.6 1010.2l6.42-13.56 8.56 12.65z" stroke="#0c8ce9" stroke-width="2" fill="#fff"/><path d="M1119.02 969.22l-.02.88.03.78.03.3-.35.22-1.1-1.65 1.47-1z" stroke="#0c8ce9" stroke-width=".05" fill="#0c8ce9"/><path d="M1071.82 1030.38l46.26 19.24" stroke="#0c8ce9" stroke-width="2" fill="none"/><path d="M1060.94 1025.86l14.85-2.1-5.87 14.1z" stroke="#0c8ce9" stroke-width="2" fill="#fff"/><path d="M1119.05 1048.94l-.03.28-.02.88.03.78.02.22-1.38-.57.77-1.85z" stroke="#0c8ce9" stroke-width=".05" fill="#0c8ce9"/><path d="M700.82 980.57l157.36 108.86M700.84 980.58L700 980" stroke="#0c8ce9" stroke-width="2" fill="none"/><path d="M859.07 1088.83l-.02.15-.04.5v.74l.02.5.05.5v.05l-1.48-1.03 1.13-1.65z" stroke="#0c8ce9" stroke-width=".05" fill="#0c8ce9"/><path d="M858.03 1018.76l-157.06-38.52" stroke="#0c8ce9" stroke-width="2" fill="none"/><path d="M859.05 1017.98l-.04.5v.74l.02.5.04.32-1.3-.3.48-1.96z" stroke="#0c8ce9" stroke-width=".05" fill="#0c8ce9"/><path d="M701 980.24l-1-.24M858.04 936.27l-157.08 43.46" stroke="#0c8ce9" stroke-width="2" fill="none"/><path d="M859.02 935.13l-.02.86v.37l.03.66-.75.2-.53-1.92 1.28-.35z" stroke="#0c8ce9" stroke-width=".05" fill="#0c8ce9"/><path d="M701 979.73l-1 .27M858.25 842.65l-157.5 136.7" stroke="#0c8ce9" stroke-width="2" fill="none"/><path d="M859.02 841.13l-.02.86v.37l.04.86v.05l-.16.15-1.3-1.5 1.48-1.3z" stroke="#0c8ce9" stroke-width=".05" fill="#0c8ce9"/><path d="M700.77 979.33l-.77.67" stroke="#0c8ce9" stroke-width="2" fill="none"/><path d="M1060 1170c0 16.57-44.77 30-100 30s-100-13.43-100-30 44.77-30 100-30 100 13.43 100 30z" stroke="#0c8ce9" stroke-width="2" fill-opacity="0"/><g><use xlink:href="#g" transform="matrix(1,0,0,1,860,1140) translate(42.45833333333333 34.90466666666667)"/><use xlink:href="#t" transform="matrix(1,0,0,1,860,1140) translate(109.79833333333335 34.90466666666667)"/></g><path d="M1270 1220c0 16.57-40.3 30-90 30s-90-13.43-90-30 40.3-30 90-30 90 13.43 90 30z" stroke="#0c8ce9" stroke-width="2" fill-opacity="0"/><g><use xlink:href="#g" transform="matrix(1,0,0,1,1089.9999999999995,1190) translate(29.424999999999997 34.90466666666667)"/><use xlink:href="#u" transform="matrix(1,0,0,1,1089.9999999999995,1190) translate(96.76500000000001 34.90466666666667)"/></g><path d="M1060 1280c0 22.1-44.77 40-100 40s-100-17.9-100-40 44.77-40 100-40 100 17.9 100 40z" stroke="#0c8ce9" stroke-width="2" fill-opacity="0"/><g><use xlink:href="#g" transform="matrix(1,0,0,1,860,1240) translate(20.297666666666665 36.15466666666667)"/><use xlink:href="#h" transform="matrix(1,0,0,1,860,1240) translate(87.63766666666668 36.15466666666667)"/><use xlink:href="#v" transform="matrix(1,0,0,1,860,1240) translate(65.19966666666667 56.26133333333334)"/></g><path d="M858.05 1170.3l-157.1 49.4" stroke="#0c8ce9" stroke-width="2" fill="none"/><path d="M859.05 1168.98l-.04.5v.74l.02.5.03.3-.73.24-.6-1.9 1.34-.43z" stroke="#0c8ce9" stroke-width=".05" fill="#0c8ce9"/><path d="M700.98 1219.7l-.98.3M1088 1220H701" stroke="#0c8ce9" stroke-width="2" fill="none"/><path d="M1089.02 1219.38l-.02.6v.2l.03.6.02.22h-1.08v-2h1.08z" stroke="#0c8ce9" stroke-width=".05" fill="#0c8ce9"/><path d="M701.03 1220H700M858.06 1279.65l-157.12-59.3" stroke="#0c8ce9" stroke-width="2" fill="none"/><path d="M859.04 1278.94l-.02.2-.02.85v.37l.04.7-1.35-.5.7-1.87z" stroke="#0c8ce9" stroke-width=".05" fill="#0c8ce9"/><path d="M700.96 1220.36l-.96-.36" stroke="#0c8ce9" stroke-width="2" fill="none"/><defs><path fill="#3a414a" d="M563 0C450-189 321-377 183-541V0H88v-693h77c137 151 274 337 384 513v-513h95V0h-81" id="w"/><path fill="#3a414a" d="M297-533c160 0 244 110 244 273S457 13 297 13 53-97 53-260s84-273 244-273zm0 464c98 0 147-85 147-191s-49-191-147-191-147 85-147 191S199-69 297-69" id="x"/><path fill="#3a414a" d="M257 11C121 11 76-66 76-201v-464l93-16v161h197v78H169v240c-1 80 17 131 96 131 43 0 79-13 103-23l18 77c-27 12-82 28-129 28" id="y"/><path fill="#3a414a" d="M175 0H82v-520h93V0zm13-675c0 35-26 61-60 61s-60-26-60-61 26-61 60-61 60 26 60 61" id="z"/><path fill="#3a414a" d="M82-567C68-745 227-812 397-759l-17 80c-21-10-52-17-88-17-102 0-122 72-117 176h200v78H175V0H82v-567" id="A"/><path fill="#3a414a" d="M447-14c-35 17-88 26-139 26C139 12 53-90 53-259c0-187 118-299 319-268 23 4 46 10 67 19l-21 79c-28-13-66-22-107-22-111 1-162 75-161 192 1 118 51 189 170 189 43 1 87-10 114-22" id="B"/><path fill="#3a414a" d="M139-156c0 106 132 93 220 82v-155c-78-22-220-23-220 73zm-94 1c-2-152 173-180 314-148 5-94-26-150-117-150-50 0-101 8-132 20l-11-77c32-13 99-23 151-23 135 0 201 66 200 199V-9C390 1 319 11 247 11 126 11 46-34 45-155" id="C"/><path fill="#3a414a" d="M279-449c-36 1-74 4-104 10V0H82v-505c55-13 130-26 207-26 153 0 213 87 213 239V0h-93v-272c1-107-22-180-130-177" id="D"/><g id="a"><use transform="matrix(0.01777777777777777,0,0,0.01777777777777777,0,0)" xlink:href="#w"/><use transform="matrix(0.01777777777777777,0,0,0.01777777777777777,13.013333333333328,0)" xlink:href="#x"/><use transform="matrix(0.01777777777777777,0,0,0.01777777777777777,23.573333333333323,0)" xlink:href="#y"/><use transform="matrix(0.01777777777777777,0,0,0.01777777777777777,30.7911111111111,0)" xlink:href="#z"/><use transform="matrix(0.01777777777777777,0,0,0.01777777777777777,35.359999999999985,0)" xlink:href="#A"/><use transform="matrix(0.01777777777777777,0,0,0.01777777777777777,42.293333333333315,0)" xlink:href="#z"/><use transform="matrix(0.01777777777777777,0,0,0.01777777777777777,46.8622222222222,0)" xlink:href="#B"/><use transform="matrix(0.01777777777777777,0,0,0.01777777777777777,55.19999999999998,0)" xlink:href="#C"/><use transform="matrix(0.01777777777777777,0,0,0.01777777777777777,64.55111111111108,0)" xlink:href="#y"/><use transform="matrix(0.01777777777777777,0,0,0.01777777777777777,71.76888888888885,0)" xlink:href="#z"/><use transform="matrix(0.01777777777777777,0,0,0.01777777777777777,76.33777777777775,0)" xlink:href="#x"/><use transform="matrix(0.01777777777777777,0,0,0.01777777777777777,86.89777777777775,0)" xlink:href="#D"/></g><path fill="#3a414a" d="M315 12C141 9 53-87 53-259c0-164 81-274 237-274 163 0 227 118 216 298H150c9 108 58 165 175 165 54 0 101-11 133-25l13 78c-33 16-99 31-156 29zm95-322c8-101-82-177-178-132-47 22-73 71-80 132h258" id="E"/><path fill="#3a414a" d="M82-498c73-28 204-47 296-18l-16 81c-44-19-138-19-187-2V0H82v-498" id="F"/><g id="b"><use transform="matrix(0.01777777777777777,0,0,0.01777777777777777,0,0)" xlink:href="#B"/><use transform="matrix(0.01777777777777777,0,0,0.01777777777777777,8.337777777777774,0)" xlink:href="#E"/><use transform="matrix(0.01777777777777777,0,0,0.01777777777777777,18.346666666666657,0)" xlink:href="#D"/><use transform="matrix(0.01777777777777777,0,0,0.01777777777777777,28.622222222222206,0)" xlink:href="#y"/><use transform="matrix(0.01777777777777777,0,0,0.01777777777777777,35.662222222222205,0)" xlink:href="#E"/><use transform="matrix(0.01777777777777777,0,0,0.01777777777777777,45.67111111111109,0)" xlink:href="#F"/></g><path fill="#3a414a" d="M252 108c114 0 161-44 156-160-25 15-79 35-127 33-151-6-228-96-228-252 0-162 90-254 252-260 75-2 141 15 195 27v464c0 164-85 227-250 228-62 1-124-12-168-27l17-81c38 15 98 28 153 28zm38-207c46 2 92-16 117-35v-304c-29-7-58-11-101-11-102-1-157 76-156 179 2 102 44 167 140 171" id="G"/><path fill="#3a414a" d="M173-151c-3 59 26 79 78 83l-13 78C129 7 80-30 80-136v-624l93-16v625" id="H"/><path fill="#3a414a" d="M279 12C204 13 135-1 82-15v-745l93-16v279c28-17 80-37 131-35 159 6 234 110 234 272C540-90 448 7 279 12zm15-462c-46-2-95 21-119 40v329c28 7 62 11 103 11 106 0 167-77 165-190-2-110-39-188-149-190" id="I"/><g id="c"><use transform="matrix(0.01777777777777777,0,0,0.01777777777777777,0,0)" xlink:href="#G"/><use transform="matrix(0.01777777777777777,0,0,0.01777777777777777,10.346666666666662,0)" xlink:href="#H"/><use transform="matrix(0.01777777777777777,0,0,0.01777777777777777,15.271111111111104,0)" xlink:href="#x"/><use transform="matrix(0.01777777777777777,0,0,0.01777777777777777,25.831111111111095,0)" xlink:href="#I"/><use transform="matrix(0.01777777777777777,0,0,0.01777777777777777,36.37333333333332,0)" xlink:href="#C"/><use transform="matrix(0.01777777777777777,0,0,0.01777777777777777,45.72444444444443,0)" xlink:href="#H"/></g><path fill="#3a414a" d="M300-71c36 0 74-3 103-10v-439h93v505C441-2 367 11 290 11 138 11 76-78 76-228v-292h93v272c2 116 24 177 131 177" id="J"/><path fill="#3a414a" d="M59-97c36 13 83 32 144 30 63-2 112-9 112-63 0-99-160-93-221-153-24-24-44-52-44-100 0-151 196-178 331-127l-17 80c-60-35-257-49-214 69 69 92 264 59 259 227-2 107-89 146-206 146C133 12 82-2 42-17" id="K"/><g id="d"><use transform="matrix(0.01777777777777777,0,0,0.01777777777777777,0,0)" xlink:href="#J"/><use transform="matrix(0.01777777777777777,0,0,0.01777777777777777,10.27555555555555,0)" xlink:href="#K"/><use transform="matrix(0.01777777777777777,0,0,0.01777777777777777,18.27555555555555,0)" xlink:href="#E"/></g><g id="e"><use transform="matrix(0.01777777777777777,0,0,0.01777777777777777,0,0)" xlink:href="#B"/><use transform="matrix(0.01777777777777777,0,0,0.01777777777777777,8.337777777777774,0)" xlink:href="#C"/><use transform="matrix(0.01777777777777777,0,0,0.01777777777777777,17.688888888888883,0)" xlink:href="#K"/><use transform="matrix(0.01777777777777777,0,0,0.01777777777777777,25.68888888888888,0)" xlink:href="#E"/></g><path d="M597-29C545 0 469 15 386 15 168 15 67-125 60-347c-8-284 240-432 510-326 11 4 18 9 22 12l-28 80c-42-23-98-43-163-43-163 0-238 111-238 277 0 165 69 273 232 277 73 3 134-19 177-39" id="L"/><path d="M173-151c-3 59 26 79 78 83l-13 78C129 7 80-30 80-136v-624l93-16v625" id="M"/><path d="M175 0H82v-520h93V0zm13-675c0 35-26 61-60 61s-60-26-60-61 26-61 60-61 60 26 60 61" id="N"/><path d="M315 12C141 9 53-87 53-259c0-164 81-274 237-274 163 0 227 118 216 298H150c9 108 58 165 175 165 54 0 101-11 133-25l13 78c-33 16-99 31-156 29zm95-322c8-101-82-177-178-132-47 22-73 71-80 132h258" id="O"/><path d="M279-449c-36 1-74 4-104 10V0H82v-505c55-13 130-26 207-26 153 0 213 87 213 239V0h-93v-272c1-107-22-180-130-177" id="P"/><path d="M257 11C121 11 76-66 76-201v-464l93-16v161h197v78H169v240c-1 80 17 131 96 131 43 0 79-13 103-23l18 77c-27 12-82 28-129 28" id="Q"/><g id="f"><use transform="matrix(0.017777777777777778,0,0,0.017777777777777778,0,0)" xlink:href="#L"/><use transform="matrix(0.017777777777777778,0,0,0.017777777777777778,11.093333333333334,0)" xlink:href="#M"/><use transform="matrix(0.017777777777777778,0,0,0.017777777777777778,16.017777777777777,0)" xlink:href="#N"/><use transform="matrix(0.017777777777777778,0,0,0.017777777777777778,20.586666666666666,0)" xlink:href="#O"/><use transform="matrix(0.017777777777777778,0,0,0.017777777777777778,30.595555555555556,0)" xlink:href="#P"/><use transform="matrix(0.017777777777777778,0,0,0.017777777777777778,40.87111111111111,0)" xlink:href="#Q"/></g><path d="M682-533C610-400 540-239 477-96h-78c-63-145-132-302-205-437-15 163-23 356-30 533H69c10-236 25-474 51-693h85c86 143 163 321 233 480 71-159 147-337 233-480h85c23 223 40 454 51 693h-95c-7-177-15-370-30-533" id="R"/><path d="M139-156c0 106 132 93 220 82v-155c-78-22-220-23-220 73zm-94 1c-2-152 173-180 314-148 5-94-26-150-117-150-50 0-101 8-132 20l-11-77c32-13 99-23 151-23 135 0 201 66 200 199V-9C390 1 319 11 247 11 126 11 46-34 45-155" id="S"/><path d="M252 108c114 0 161-44 156-160-25 15-79 35-127 33-151-6-228-96-228-252 0-162 90-254 252-260 75-2 141 15 195 27v464c0 164-85 227-250 228-62 1-124-12-168-27l17-81c38 15 98 28 153 28zm38-207c46 2 92-16 117-35v-304c-29-7-58-11-101-11-102-1-157 76-156 179 2 102 44 167 140 171" id="T"/><g id="g"><use transform="matrix(0.017333333333333333,0,0,0.017333333333333333,0,0)" xlink:href="#R"/><use transform="matrix(0.017333333333333333,0,0,0.017333333333333333,15.166666666666666,0)" xlink:href="#S"/><use transform="matrix(0.017333333333333333,0,0,0.017333333333333333,24.284,0)" xlink:href="#P"/><use transform="matrix(0.017333333333333333,0,0,0.017333333333333333,34.30266666666667,0)" xlink:href="#S"/><use transform="matrix(0.017333333333333333,0,0,0.017333333333333333,43.419999999999995,0)" xlink:href="#T"/><use transform="matrix(0.017333333333333333,0,0,0.017333333333333333,53.508,0)" xlink:href="#O"/></g><path d="M297-533c160 0 244 110 244 273S457 13 297 13 53-97 53-260s84-273 244-273zm0 464c98 0 147-85 147-191s-49-191-147-191-147 85-147 191S199-69 297-69" id="U"/><path d="M82-567C68-745 227-812 397-759l-17 80c-21-10-52-17-88-17-102 0-122 72-117 176h200v78H175V0H82v-567" id="V"/><path d="M447-14c-35 17-88 26-139 26C139 12 53-90 53-259c0-187 118-299 319-268 23 4 46 10 67 19l-21 79c-28-13-66-22-107-22-111 1-162 75-161 192 1 118 51 189 170 189 43 1 87-10 114-22" id="W"/><g id="h"><use transform="matrix(0.017333333333333333,0,0,0.017333333333333333,0,0)" xlink:href="#P"/><use transform="matrix(0.017333333333333333,0,0,0.017333333333333333,10.018666666666666,0)" xlink:href="#U"/><use transform="matrix(0.017333333333333333,0,0,0.017333333333333333,20.314666666666664,0)" xlink:href="#Q"/><use transform="matrix(0.017333333333333333,0,0,0.017333333333333333,27.352,0)" xlink:href="#N"/><use transform="matrix(0.017333333333333333,0,0,0.017333333333333333,31.806666666666665,0)" xlink:href="#V"/><use transform="matrix(0.017333333333333333,0,0,0.017333333333333333,38.56666666666666,0)" xlink:href="#N"/><use transform="matrix(0.017333333333333333,0,0,0.017333333333333333,43.02133333333333,0)" xlink:href="#W"/><use transform="matrix(0.017333333333333333,0,0,0.017333333333333333,51.150666666666666,0)" xlink:href="#S"/><use transform="matrix(0.017333333333333333,0,0,0.017333333333333333,60.268,0)" xlink:href="#Q"/><use transform="matrix(0.017333333333333333,0,0,0.017333333333333333,67.30533333333334,0)" xlink:href="#N"/><use transform="matrix(0.017333333333333333,0,0,0.017333333333333333,71.76000000000002,0)" xlink:href="#U"/><use transform="matrix(0.017333333333333333,0,0,0.017333333333333333,82.05600000000001,0)" xlink:href="#P"/></g><path d="M294-70c109-2 147-79 149-189 2-113-59-188-165-189-45 0-73 2-103 10v328c24 19 73 42 119 40zm-15-461c169 5 261 102 261 272C540-98 465 6 306 12c-51 2-103-18-131-35v208H82v-689c54-12 122-29 197-27" id="X"/><path d="M82-498c73-28 204-47 296-18l-16 81c-44-19-138-19-187-2V0H82v-498" id="Y"/><path d="M59-97c36 13 83 32 144 30 63-2 112-9 112-63 0-99-160-93-221-153-24-24-44-52-44-100 0-151 196-178 331-127l-17 80c-60-35-257-49-214 69 69 92 264 59 259 227-2 107-89 146-206 146C133 12 82-2 42-17" id="Z"/><g id="i"><use transform="matrix(0.017333333333333333,0,0,0.017333333333333333,0,0)" xlink:href="#X"/><use transform="matrix(0.017333333333333333,0,0,0.017333333333333333,10.278666666666666,0)" xlink:href="#Y"/><use transform="matrix(0.017333333333333333,0,0,0.017333333333333333,17.038666666666664,0)" xlink:href="#O"/><use transform="matrix(0.017333333333333333,0,0,0.017333333333333333,26.79733333333333,0)" xlink:href="#V"/><use transform="matrix(0.017333333333333333,0,0,0.017333333333333333,33.55733333333333,0)" xlink:href="#O"/><use transform="matrix(0.017333333333333333,0,0,0.017333333333333333,43.316,0)" xlink:href="#Y"/><use transform="matrix(0.017333333333333333,0,0,0.017333333333333333,50.076,0)" xlink:href="#O"/><use transform="matrix(0.017333333333333333,0,0,0.017333333333333333,59.834666666666664,0)" xlink:href="#P"/><use transform="matrix(0.017333333333333333,0,0,0.017333333333333333,69.85333333333332,0)" xlink:href="#W"/><use transform="matrix(0.017333333333333333,0,0,0.017333333333333333,77.98266666666666,0)" xlink:href="#O"/><use transform="matrix(0.017333333333333333,0,0,0.017333333333333333,87.74133333333333,0)" xlink:href="#Z"/></g><path d="M332-115c78-179 145-380 212-578h104C563-448 477-223 376 0h-91C185-223 95-447 12-693h107c69 199 135 397 213 578" id="aa"/><path d="M761-520C714-334 656-153 588 0h-81c-40-105-86-236-117-357-31 122-76 252-116 357h-81C125-153 67-334 20-520h100c31 138 71 286 118 407 45-126 85-269 117-407h77c30 140 70 281 115 407 46-123 88-268 118-407h96" id="ab"/><g id="j"><use transform="matrix(0.017333333333333333,0,0,0.017333333333333333,0,0)" xlink:href="#aa"/><use transform="matrix(0.017333333333333333,0,0,0.017333333333333333,11.44,0)" xlink:href="#N"/><use transform="matrix(0.017333333333333333,0,0,0.017333333333333333,15.894666666666666,0)" xlink:href="#O"/><use transform="matrix(0.017333333333333333,0,0,0.017333333333333333,25.653333333333332,0)" xlink:href="#ab"/></g><path d="M279-449c-38 1-76 8-104 17V0H82v-760l93-16v266c32-12 72-21 114-21 153-1 213 87 213 239V0h-93v-272c1-107-22-181-130-177" id="ac"/><path d="M266-100c50-137 84-270 119-420h96C435-330 371-148 306 16 261 129 164 226 4 172l17-75c41 21 118 16 149-11 20-17 39-42 56-79C145-149 66-333 18-520h100c37 148 89 293 148 420" id="ad"/><g id="k"><use transform="matrix(0.017333333333333333,0,0,0.017333333333333333,0,0)" xlink:href="#ac"/><use transform="matrix(0.017333333333333333,0,0,0.017333333333333333,9.966666666666667,0)" xlink:href="#N"/><use transform="matrix(0.017333333333333333,0,0,0.017333333333333333,14.421333333333333,0)" xlink:href="#Z"/><use transform="matrix(0.017333333333333333,0,0,0.017333333333333333,22.221333333333334,0)" xlink:href="#Q"/><use transform="matrix(0.017333333333333333,0,0,0.017333333333333333,29.016,0)" xlink:href="#U"/><use transform="matrix(0.017333333333333333,0,0,0.017333333333333333,39.312,0)" xlink:href="#Y"/><use transform="matrix(0.017333333333333333,0,0,0.017333333333333333,46.43599999999999,0)" xlink:href="#ad"/></g><path d="M10 0c89-244 173-472 279-693h89C484-472 568-243 657 0H551c-23-60-41-116-63-177H174L111 0H10zm450-257c-42-112-82-221-129-325-48 103-88 212-129 325h258" id="ae"/><g id="l"><use transform="matrix(0.017777777777777778,0,0,0.017777777777777778,0,0)" xlink:href="#ae"/><use transform="matrix(0.017777777777777778,0,0,0.017777777777777778,11.573333333333334,0)" xlink:href="#T"/><use transform="matrix(0.017777777777777778,0,0,0.017777777777777778,21.92,0)" xlink:href="#O"/><use transform="matrix(0.017777777777777778,0,0,0.017777777777777778,31.928888888888892,0)" xlink:href="#P"/><use transform="matrix(0.017777777777777778,0,0,0.017777777777777778,42.20444444444444,0)" xlink:href="#Q"/></g><path fill="#333" d="M10 0c89-244 173-472 279-693h89C484-472 568-243 657 0H551c-23-60-41-116-63-177H174L111 0H10zm450-257c-42-112-82-221-129-325-48 103-88 212-129 325h258" id="af"/><path fill="#333" d="M315-70c41 0 75-4 103-11v-329c-24-19-73-42-119-40-110 2-147 80-149 190-2 113 59 189 165 190zm-28-462c51-2 103 18 131 35v-263l93-16v761C458-1 388 13 314 12 145 7 53-90 53-260c0-162 75-266 234-272" id="ag"/><path fill="#333" d="M278-449c-36 0-74 4-103 10V0H82v-505c94-23 290-55 347 27 41-28 96-52 166-53 149-3 194 91 194 239V0h-93v-272c0-100-11-177-111-177-50 0-96 17-119 35 30 114 10 276 16 414h-93v-272c0-99-12-179-111-177" id="ah"/><path fill="#333" d="M175 0H82v-520h93V0zm13-675c0 35-26 61-60 61s-60-26-60-61 26-61 60-61 60 26 60 61" id="ai"/><path fill="#333" d="M279-449c-36 1-74 4-104 10V0H82v-505c55-13 130-26 207-26 153 0 213 87 213 239V0h-93v-272c1-107-22-180-130-177" id="aj"/><path fill="#333" d="M59-97c36 13 83 32 144 30 63-2 112-9 112-63 0-99-160-93-221-153-24-24-44-52-44-100 0-151 196-178 331-127l-17 80c-60-35-257-49-214 69 69 92 264 59 259 227-2 107-89 146-206 146C133 12 82-2 42-17" id="ak"/><path fill="#333" d="M257 11C121 11 76-66 76-201v-464l93-16v161h197v78H169v240c-1 80 17 131 96 131 43 0 79-13 103-23l18 77c-27 12-82 28-129 28" id="al"/><path fill="#333" d="M82-498c73-28 204-47 296-18l-16 81c-44-19-138-19-187-2V0H82v-498" id="am"/><path fill="#333" d="M139-156c0 106 132 93 220 82v-155c-78-22-220-23-220 73zm-94 1c-2-152 173-180 314-148 5-94-26-150-117-150-50 0-101 8-132 20l-11-77c32-13 99-23 151-23 135 0 201 66 200 199V-9C390 1 319 11 247 11 126 11 46-34 45-155" id="an"/><path fill="#333" d="M297-533c160 0 244 110 244 273S457 13 297 13 53-97 53-260s84-273 244-273zm0 464c98 0 147-85 147-191s-49-191-147-191-147 85-147 191S199-69 297-69" id="ao"/><g id="m"><use transform="matrix(0.017777777777777778,0,0,0.017777777777777778,0,0)" xlink:href="#af"/><use transform="matrix(0.017777777777777778,0,0,0.017777777777777778,11.626666666666667,0)" xlink:href="#ag"/><use transform="matrix(0.017777777777777778,0,0,0.017777777777777778,22.16888888888889,0)" xlink:href="#ah"/><use transform="matrix(0.017777777777777778,0,0,0.017777777777777778,37.54666666666667,0)" xlink:href="#ai"/><use transform="matrix(0.017777777777777778,0,0,0.017777777777777778,42.11555555555555,0)" xlink:href="#aj"/><use transform="matrix(0.017777777777777778,0,0,0.017777777777777778,52.39111111111112,0)" xlink:href="#ai"/><use transform="matrix(0.017777777777777778,0,0,0.017777777777777778,56.96000000000001,0)" xlink:href="#ak"/><use transform="matrix(0.017777777777777778,0,0,0.017777777777777778,64.96000000000001,0)" xlink:href="#al"/><use transform="matrix(0.017777777777777778,0,0,0.017777777777777778,72.17777777777779,0)" xlink:href="#am"/><use transform="matrix(0.017777777777777778,0,0,0.017777777777777778,79.11111111111113,0)" xlink:href="#an"/><use transform="matrix(0.017777777777777778,0,0,0.017777777777777778,88.46222222222224,0)" xlink:href="#al"/><use transform="matrix(0.017777777777777778,0,0,0.017777777777777778,95.43111111111115,0)" xlink:href="#ao"/><use transform="matrix(0.017777777777777778,0,0,0.017777777777777778,105.99111111111114,0)" xlink:href="#am"/></g><path d="M278-449c-36 0-74 4-103 10V0H82v-505c94-23 290-55 347 27 41-28 96-52 166-53 149-3 194 91 194 239V0h-93v-272c0-100-11-177-111-177-50 0-96 17-119 35 30 114 10 276 16 414h-93v-272c0-99-12-179-111-177" id="ap"/><g id="n"><use transform="matrix(0.017333333333333333,0,0,0.017333333333333333,0,0)" xlink:href="#Q"/><use transform="matrix(0.017333333333333333,0,0,0.017333333333333333,6.863999999999999,0)" xlink:href="#O"/><use transform="matrix(0.017333333333333333,0,0,0.017333333333333333,16.622666666666667,0)" xlink:href="#ap"/><use transform="matrix(0.017333333333333333,0,0,0.017333333333333333,31.616,0)" xlink:href="#X"/><use transform="matrix(0.017333333333333333,0,0,0.017333333333333333,41.894666666666666,0)" xlink:href="#M"/><use transform="matrix(0.017333333333333333,0,0,0.017333333333333333,46.696,0)" xlink:href="#S"/><use transform="matrix(0.017333333333333333,0,0,0.017333333333333333,55.81333333333333,0)" xlink:href="#Q"/><use transform="matrix(0.017333333333333333,0,0,0.017333333333333333,62.67733333333334,0)" xlink:href="#O"/><use transform="matrix(0.017333333333333333,0,0,0.017333333333333333,72.436,0)" xlink:href="#Z"/></g><g id="o"><use transform="matrix(0.017333333333333333,0,0,0.017333333333333333,0,0)" xlink:href="#Q"/><use transform="matrix(0.017333333333333333,0,0,0.017333333333333333,7.037333333333333,0)" xlink:href="#Y"/><use transform="matrix(0.017333333333333333,0,0,0.017333333333333333,13.797333333333333,0)" xlink:href="#N"/><use transform="matrix(0.017333333333333333,0,0,0.017333333333333333,18.252,0)" xlink:href="#T"/><use transform="matrix(0.017333333333333333,0,0,0.017333333333333333,28.339999999999996,0)" xlink:href="#T"/><use transform="matrix(0.017333333333333333,0,0,0.017333333333333333,38.428,0)" xlink:href="#O"/><use transform="matrix(0.017333333333333333,0,0,0.017333333333333333,48.18666666666667,0)" xlink:href="#Y"/><use transform="matrix(0.017333333333333333,0,0,0.017333333333333333,54.946666666666665,0)" xlink:href="#Z"/></g><path d="M300-71c36 0 74-3 103-10v-439h93v505C441-2 367 11 290 11 138 11 76-78 76-228v-292h93v272c2 116 24 177 131 177" id="aq"/><path d="M315-70c41 0 75-4 103-11v-329c-24-19-73-42-119-40-110 2-147 80-149 190-2 113 59 189 165 190zm-28-462c51-2 103 18 131 35v-263l93-16v761C458-1 388 13 314 12 145 7 53-90 53-260c0-162 75-266 234-272" id="ar"/><g id="p"><use transform="matrix(0.017333333333333333,0,0,0.017333333333333333,0,0)" xlink:href="#S"/><use transform="matrix(0.017333333333333333,0,0,0.017333333333333333,9.117333333333333,0)" xlink:href="#aq"/><use transform="matrix(0.017333333333333333,0,0,0.017333333333333333,19.136,0)" xlink:href="#ar"/><use transform="matrix(0.017333333333333333,0,0,0.017333333333333333,29.414666666666665,0)" xlink:href="#N"/><use transform="matrix(0.017333333333333333,0,0,0.017333333333333333,33.86933333333333,0)" xlink:href="#O"/><use transform="matrix(0.017333333333333333,0,0,0.017333333333333333,43.628,0)" xlink:href="#P"/><use transform="matrix(0.017333333333333333,0,0,0.017333333333333333,53.646666666666675,0)" xlink:href="#W"/><use transform="matrix(0.017333333333333333,0,0,0.017333333333333333,61.776,0)" xlink:href="#O"/></g><g id="q"><use transform="matrix(0.017333333333333333,0,0,0.017333333333333333,0,0)" xlink:href="#M"/><use transform="matrix(0.017333333333333333,0,0,0.017333333333333333,4.801333333333333,0)" xlink:href="#U"/><use transform="matrix(0.017333333333333333,0,0,0.017333333333333333,15.097333333333331,0)" xlink:href="#T"/><use transform="matrix(0.017333333333333333,0,0,0.017333333333333333,25.185333333333332,0)" xlink:href="#Z"/></g><g id="r"><use transform="matrix(0.017333333333333333,0,0,0.017333333333333333,0,0)" xlink:href="#aq"/><use transform="matrix(0.017333333333333333,0,0,0.017333333333333333,10.018666666666666,0)" xlink:href="#Z"/><use transform="matrix(0.017333333333333333,0,0,0.017333333333333333,17.818666666666665,0)" xlink:href="#O"/><use transform="matrix(0.017333333333333333,0,0,0.017333333333333333,27.577333333333332,0)" xlink:href="#Y"/><use transform="matrix(0.017333333333333333,0,0,0.017333333333333333,34.33733333333333,0)" xlink:href="#Z"/></g><g id="s"><use transform="matrix(0.017333333333333333,0,0,0.017333333333333333,0,0)" xlink:href="#T"/><use transform="matrix(0.017333333333333333,0,0,0.017333333333333333,10.088,0)" xlink:href="#Y"/><use transform="matrix(0.017333333333333333,0,0,0.017333333333333333,16.848,0)" xlink:href="#U"/><use transform="matrix(0.017333333333333333,0,0,0.017333333333333333,27.144,0)" xlink:href="#aq"/><use transform="matrix(0.017333333333333333,0,0,0.017333333333333333,37.16266666666667,0)" xlink:href="#X"/><use transform="matrix(0.017333333333333333,0,0,0.017333333333333333,47.44133333333333,0)" xlink:href="#Z"/></g><g id="t"><use transform="matrix(0.017333333333333333,0,0,0.017333333333333333,0,0)" xlink:href="#Q"/><use transform="matrix(0.017333333333333333,0,0,0.017333333333333333,6.794666666666666,0)" xlink:href="#U"/><use transform="matrix(0.017333333333333333,0,0,0.017333333333333333,17.090666666666664,0)" xlink:href="#X"/><use transform="matrix(0.017333333333333333,0,0,0.017333333333333333,27.369333333333326,0)" xlink:href="#N"/><use transform="matrix(0.017333333333333333,0,0,0.017333333333333333,31.823999999999998,0)" xlink:href="#W"/><use transform="matrix(0.017333333333333333,0,0,0.017333333333333333,39.95333333333333,0)" xlink:href="#Z"/></g><g id="u"><use transform="matrix(0.017333333333333333,0,0,0.017333333333333333,0,0)" xlink:href="#S"/><use transform="matrix(0.017333333333333333,0,0,0.017333333333333333,9.117333333333333,0)" xlink:href="#T"/><use transform="matrix(0.017333333333333333,0,0,0.017333333333333333,19.205333333333332,0)" xlink:href="#O"/><use transform="matrix(0.017333333333333333,0,0,0.017333333333333333,28.964,0)" xlink:href="#P"/><use transform="matrix(0.017333333333333333,0,0,0.017333333333333333,38.98266666666667,0)" xlink:href="#Q"/><use transform="matrix(0.017333333333333333,0,0,0.017333333333333333,46.019999999999996,0)" xlink:href="#Z"/></g><g id="v"><use transform="matrix(0.017333333333333333,0,0,0.017333333333333333,0,0)" xlink:href="#W"/><use transform="matrix(0.017333333333333333,0,0,0.017333333333333333,8.129333333333333,0)" xlink:href="#ac"/><use transform="matrix(0.017333333333333333,0,0,0.017333333333333333,18.096,0)" xlink:href="#S"/><use transform="matrix(0.017333333333333333,0,0,0.017333333333333333,27.21333333333333,0)" xlink:href="#P"/><use transform="matrix(0.017333333333333333,0,0,0.017333333333333333,37.232,0)" xlink:href="#P"/><use transform="matrix(0.017333333333333333,0,0,0.017333333333333333,47.25066666666667,0)" xlink:href="#O"/><use transform="matrix(0.017333333333333333,0,0,0.017333333333333333,57.00933333333333,0)" xlink:href="#M"/><use transform="matrix(0.017333333333333333,0,0,0.017333333333333333,61.81066666666666,0)" xlink:href="#Z"/></g></defs></g></svg>