<svg xmlns="http://www.w3.org/2000/svg" xmlns:xlink="http://www.w3.org/1999/xlink" xmlns:lucid="lucid" width="1158.13" height="542.23"><g transform="translate(-170.6623308921225 248.79473370524204)" lucid:page-tab-id="wHqyW2aBcFnL"><path d="M172.16-119.76a6 6 0 0 1 6-6h142.6a6 6 0 0 1 6 6v99.65a6 6 0 0 1-6 6h-142.6a6 6 0 0 1-6-6z" fill-opacity="0"/><path d="M209.85-125.76h31.7m15.83 0h31.7m15.83 0h15.85l.94.08.9.22.88.36.8.5.72.6.6.72.5.8.36.87.22.9.07.94v16.6m0 16.62v33.2m0 16.62v16.6l-.07.95-.22.9-.36.88-.5.8-.6.73-.72.6-.8.5-.87.36-.9.2-.95.1H304.9m-15.83 0h-31.7m-15.84 0h-31.68m-15.84 0h-15.84l-.94-.1-.9-.2-.88-.37-.8-.5-.72-.6-.6-.72-.5-.8-.36-.86-.22-.9-.08-.95v-16.62m0-16.6v-33.22m0-16.6v-16.62l.08-.94.22-.9.36-.88.5-.8.6-.72.72-.6.8-.5.87-.36.92-.22.94-.08H194" stroke="#0c8ce9" stroke-width="3" fill="none"/><use xlink:href="#a" transform="matrix(1,0,0,1,184.16233095126836,-113.75738523941493) translate(22.966666666666676 22.78222222222222)"/><use xlink:href="#b" transform="matrix(1,0,0,1,184.16233095126836,-113.75738523941493) translate(35.55555555555556 51.13777777777777)"/><use xlink:href="#c" transform="matrix(1,0,0,1,184.16233095126836,-113.75738523941493) translate(34.60000000000001 75.3511111111111)"/><path d="M340.8-241.3a6 6 0 0 1 6-6H488.3a6 6 0 0 1 6 6v98.1a6 6 0 0 1-6 6H346.8a6 6 0 0 1-6-6z" fill-opacity="0"/><path d="M378.25-247.3h31.43m15.72 0h31.44m15.72 0h15.72l.94.08.92.22.87.36.8.5.72.6.62.72.5.8.35.87.2.92.08.94v16.35m0 16.35v32.7m0 16.35v16.34l-.07.93-.2.92-.37.87-.5.8-.6.72-.72.6-.8.5-.86.36-.92.22-.94.07h-15.72m-15.72 0H425.4m-15.72 0h-31.44m-15.7 0H346.8l-.93-.08-.92-.22-.87-.36-.8-.5-.72-.6-.6-.72-.5-.8-.36-.87-.22-.92-.07-.94v-16.35m0-16.35v-32.7m0-16.35v-16.34l.08-.93.22-.92.36-.87.5-.8.6-.72.72-.6.8-.5.87-.36.92-.22.94-.07h15.73" stroke="#0c8ce9" stroke-width="3" fill="none"/><use xlink:href="#d" transform="matrix(1,0,0,1,352.8064938263742,-235.29473366358422) translate(22.466666666666676 22.78222222222222)"/><use xlink:href="#e" transform="matrix(1,0,0,1,352.8064938263742,-235.29473366358422) translate(24.60555555555556 51.13777777777777)"/><path d="M340.8-119.76a6 6 0 0 1 6-6H488.3a6 6 0 0 1 6 6v97.07a6 6 0 0 1-6 6H346.8a6 6 0 0 1-6-6z" fill-opacity="0"/><path d="M378.25-125.76h31.43m15.72 0h31.44m15.72 0h15.72l.94.08.92.22.87.36.8.5.72.6.62.72.5.8.35.87.2.9.08.94v16.18m0 16.18v32.35m0 16.18v16.18l-.07.95-.2.9-.37.88-.5.8-.6.72-.72.6-.8.5-.86.37-.92.2-.94.1h-15.72m-15.72 0H425.4m-15.72 0h-31.44m-15.7 0H346.8l-.93-.1-.92-.2-.87-.36-.8-.5-.72-.6-.6-.72-.5-.8-.36-.88-.22-.9-.07-.95v-16.17m0-16.18V-87.4m0-16.18v-16.18l.08-.94.22-.9.36-.88.5-.8.6-.72.72-.6.8-.5.87-.36.92-.22.94-.08h15.73" stroke="#0c8ce9" stroke-width="3" fill="none"/><use xlink:href="#a" transform="matrix(1,0,0,1,352.8064938263742,-113.75738523941493) translate(22.466666666666676 22.78222222222222)"/><use xlink:href="#f" transform="matrix(1,0,0,1,352.8064938263742,-113.75738523941493) translate(50.36 51.13777777777777)"/><use xlink:href="#g" transform="matrix(1,0,0,1,352.8064938263742,-113.75738523941493) translate(52.97111111111111 51.13777777777777)"/><use xlink:href="#h" transform="matrix(1,0,0,1,352.8064938263742,-113.75738523941493) translate(58.730000000000004 79.49333333333333)"/><path d="M406.35-173.57c-.7 0-1.24.56-1.24 1.24v7.47c0 .68-.55 1.24-1.24 1.24.7 0 1.25.56 1.25 1.24v7.47c0 .67.56 1.23 1.25 1.23m22.4 0c.68 0 1.23-.56 1.23-1.24v-7.48c0-.68.56-1.24 1.25-1.24-.7 0-1.25-.56-1.25-1.24v-7.47c0-.68-.56-1.24-1.24-1.24" stroke="#0c8ce9" fill="none"/><path d="M173.28-241.3a6 6 0 0 1 6-6h141.47a6 6 0 0 1 6 6v97.07a6 6 0 0 1-6 6H179.28a6 6 0 0 1-6-6z" fill-opacity="0"/><path d="M210.72-247.3h31.44m15.7 0h31.45m15.73 0h15.72l.94.08.9.22.88.36.8.5.72.6.6.72.5.8.36.87.22.92.07.94v16.18m0 16.18v32.36m0 16.17v16.17l-.07.94-.22.93-.36.87-.5.8-.6.7-.72.63-.8.5-.87.35-.9.22-.95.07h-15.72m-15.72 0h-31.43m-15.72 0h-31.43m-15.72 0h-15.72l-.94-.07-.92-.22-.87-.36-.8-.5-.72-.6-.6-.72-.5-.8-.36-.87-.22-.92-.07-.93v-16.18m0-16.18v-32.36m0-16.18v-16.17l.07-.93.22-.92.36-.87.5-.8.6-.72.72-.6.8-.5.87-.36.92-.22.94-.07H195" stroke="#0c8ce9" stroke-width="3" fill="none"/><use xlink:href="#a" transform="matrix(1,0,0,1,185.27655524353753,-235.29473366358422) translate(22.466666666666676 22.78222222222222)"/><use xlink:href="#i" transform="matrix(1,0,0,1,185.27655524353753,-235.29473366358422) translate(-0.7555555555555316 51.13777777777777)"/><path d="M238.82-173.57c-.7 0-1.24.56-1.24 1.24v7.47c0 .68-.56 1.24-1.25 1.24.7 0 1.25.56 1.25 1.24v7.47c0 .67.55 1.23 1.24 1.23m22.4 0c.67 0 1.23-.56 1.23-1.24v-7.48c0-.68.56-1.24 1.25-1.24-.7 0-1.25-.56-1.25-1.24v-7.47c0-.68-.56-1.24-1.24-1.24" stroke="#0c8ce9" fill="none"/><path d="M632.6-132.46a6 6 0 0 1 6-6h218.2a6 6 0 0 1 6 6v113.42a6 6 0 0 1-6 6H638.6a6 6 0 0 1-6-6z" stroke="#0c8ce9" stroke-width="3" fill-opacity="0"/><use xlink:href="#j" transform="matrix(1,0,0,1,637.602889752528,-133.46323112698772) translate(43.657777777777795 47.120555555555555)"/><use xlink:href="#k" transform="matrix(1,0,0,1,637.602889752528,-133.46323112698772) translate(81.9488888888889 87.35166666666665)"/><use xlink:href="#l" transform="matrix(1,0,0,1,637.602889752528,-133.46323112698772) translate(118.85555555555555 87.35166666666665)"/><path d="M632.6 136.55a6 6 0 0 1 6-6h218.2a6 6 0 0 1 6 6v148a6 6 0 0 1-6 6H638.6a6 6 0 0 1-6-6z" stroke="#0c8ce9" stroke-width="3" fill-opacity="0"/><use xlink:href="#m" transform="matrix(1,0,0,1,637.602889752528,135.5514916900259) translate(26.81111111111113 43.058055555555555)"/><use xlink:href="#n" transform="matrix(1,0,0,1,637.602889752528,135.5514916900259) translate(110.5 79.14694444444443)"/><use xlink:href="#o" transform="matrix(1,0,0,1,637.602889752528,135.5514916900259) translate(110.5 96.5958333333333)"/><use xlink:href="#o" transform="matrix(1,0,0,1,637.602889752528,135.5514916900259) translate(110.5 109.48472222222217)"/><use xlink:href="#o" transform="matrix(1,0,0,1,637.602889752528,135.5514916900259) translate(110.5 122.37361111111105)"/><use xlink:href="#p" transform="matrix(1,0,0,1,637.602889752528,135.5514916900259) translate(110.5 135.26249999999993)"/><path d="M862.8 78.17c0 17.98-51.53 32.56-115.1 32.56-63.57 0-115.1-14.58-115.1-32.56 0-17.98 51.53-32.56 115.1-32.56 63.57 0 115.1 14.6 115.1 32.57z" stroke="#0c8ce9" stroke-width="3" fill-opacity="0"/><use xlink:href="#q" transform="matrix(1,0,0,1,637.602889752528,50.60774960044873) translate(51.05833333333336 38.853333333333325)"/><path d="M865.8-75.75h32a6 6 0 0 1 6 6v252.28a6 6 0 0 1-6 6h-30.77" stroke="#0c8ce9" stroke-width="3" fill="none"/><path d="M865.84-74.25h-1.54v-3h1.54z" stroke="#0c8ce9" stroke-width=".05" fill="#0c8ce9"/><path d="M884.47 178.35l-17.22 10.18 17.22 10.2" stroke="#0c8ce9" stroke-width="3" fill="none"/><use xlink:href="#r" transform="matrix(1,0,0,1,911.8044197525282,25.45683376179839) translate(11.325000000000003 24.853333333333328)"/><use xlink:href="#s" transform="matrix(1,0,0,1,911.8044197525282,25.45683376179839) translate(0.005000000000002558 55.786666666666655)"/><path d="M628.38-75.75H597.6a6 6 0 0 0-6 6V181.1a6 6 0 0 0 6 6h32" stroke="#0c8ce9" stroke-width="3" fill="none"/><path d="M610.94-65.57l17.22-10.18-17.22-10.18" stroke="#0c8ce9" stroke-width="3" fill="none"/><path d="M631.1 188.6h-1.54v-3h1.54z" stroke="#0c8ce9" stroke-width=".05" fill="#0c8ce9"/><use xlink:href="#t" transform="matrix(1,0,0,1,475.62960641919403,24.739512477613584) translate(0.005000000000002558 24.853333333333328)"/><use xlink:href="#s" transform="matrix(1,0,0,1,475.62960641919403,24.739512477613584) translate(8.15166666666667 55.786666666666655)"/><path d="M173.28 51.6a6 6 0 0 1 6-6h172.6a6 6 0 0 1 6 6v234.34a6 6 0 0 1-6 6h-172.6a6 6 0 0 1-6-6z" stroke="#0c8ce9" stroke-width="3" fill-opacity="0"/><use xlink:href="#u" transform="matrix(1,0,0,1,178.27655524353753,50.60774960044873) translate(32.80666666666667 28.99555555555555)"/><path d="M216.5 116.73a6 6 0 0 1 6-6h86.15a6 6 0 0 1 6 6v53.33a6 6 0 0 1-6 6H222.5a6 6 0 0 1-6-6z" stroke="#00bf13" stroke-width="3" fill-opacity="0"/><use xlink:href="#v" transform="matrix(1,0,0,1,221.49355764516358,115.72975258291174) translate(7.524691358024697 17.777777777777775)"/><path d="M302.2 151.3c.53 0 .94.43.94.92v3.82c0 .5-.4.93-.93.93h-1.42c-.15.48-.37.9-.6 1.3l1 1c.17.17.27.38.27.64 0 .25-.1.5-.28.66l-2.45 2.43c-.34.36-.93.36-1.3 0l-1-1c-.4.23-.8.45-1.3.6v1.43c0 .52-.4.93-.9.93h-3.8c-.5 0-.92-.4-.92-.93v-1.43c-.5-.15-.9-.37-1.35-.6l-1 1c-.17.16-.38.27-.64.27-.23 0-.47-.1-.64-.28l-2.43-2.46c-.37-.34-.37-.93 0-1.3l1-1c-.24-.4-.46-.8-.6-1.27h-1.42c-.5 0-.92-.43-.92-.93v-3.8c0-.5.4-.95.93-.95h1.44c.16-.5.37-.92.6-1.33l-1-1c-.16-.17-.27-.4-.27-.66 0-.23.1-.47.28-.65l2.45-2.42c.35-.37.93-.37 1.3 0l1 1c.4-.24.8-.46 1.3-.6v-1.4c0-.52.4-.93.9-.93h3.82c.5 0 .9.4.9.93v1.4c.5.18.88.38 1.26.62l.98-.98c.37-.37.97-.37 1.32 0l2.4 2.43c.35.37.35.93 0 1.3l-1 1c.25.4.44.82.62 1.3zm-.03 4.67v-3.68h-1.84c-.22 0-.4-.16-.48-.38-.17-.7-.45-1.15-.8-1.75-.1-.2-.07-.44.1-.6l1.2-1.22-2.32-2.34-1.2 1.22c-.16.15-.4.2-.6.07l-.08-.06c-.6-.34-1-.58-1.63-.75-.2-.08-.37-.28-.37-.5v-1.72h-3.68v1.7c0 .22-.15.42-.37.48-.63.16-1.06.4-1.64.76l-.1.04c-.18.1-.42.1-.6-.08l-1.2-1.22-2.37 2.34 1.2 1.24c.18.15.2.4.1.58-.36.6-.64 1.1-.8 1.8-.08.22-.27.37-.5.37h-1.74v3.67h1.73c.2 0 .4.15.47.37.15.63.4 1.06.73 1.65l.07.07c.1.2.08.44-.1.6l-1.2 1.22 2.34 2.35 1.22-1.2c.17-.18.4-.2.6-.1.6.37 1.1.63 1.78.8.22.07.37.27.37.48V164h3.68v-1.77c0-.2.16-.4.37-.47.63-.16 1.04-.4 1.63-.74l.1-.06c.2-.1.44-.07.6.08l1.22 1.2 2.37-2.33-1.22-1.2c-.17-.17-.2-.4-.08-.6.34-.6.62-1.07.8-1.76.06-.22.26-.37.47-.37zm-9.86-6.67c2.68 0 4.84 2.17 4.84 4.83 0 2.67-2.16 4.83-4.83 4.83-2.65 0-4.82-2.16-4.82-4.83 0-2.66 2.17-4.83 4.83-4.83zm0 8.66c2.14 0 3.85-1.7 3.85-3.83 0-2.12-1.7-3.83-3.84-3.83-2.1 0-3.82 1.7-3.82 3.83 0 2.12 1.7 3.84 3.83 3.84zM248.73 151.3c.52 0 .94.43.94.92v3.82c0 .5-.42.93-.94.93h-1.43c-.15.48-.37.9-.6 1.3l1 1c.17.17.28.38.28.64 0 .25-.1.5-.3.66l-2.43 2.43c-.35.36-.94.36-1.3 0l-1-1c-.4.23-.8.45-1.3.6v1.43c0 .52-.4.93-.9.93h-3.82c-.5 0-.9-.4-.9-.93v-1.43c-.5-.15-.92-.37-1.35-.6l-1 1c-.17.16-.4.27-.65.27-.24 0-.48-.1-.65-.28l-2.43-2.46c-.36-.34-.36-.93 0-1.3l1-1c-.24-.4-.45-.8-.6-1.27h-1.4c-.53 0-.95-.43-.95-.93v-3.8c0-.5.4-.95.94-.95h1.43c.15-.5.36-.92.6-1.33l-1-1c-.17-.17-.28-.4-.28-.66 0-.23.1-.47.28-.65l2.44-2.42c.35-.37.93-.37 1.3 0l1 1c.4-.24.8-.46 1.3-.6v-1.4c0-.52.4-.93.9-.93h3.82c.5 0 .9.4.9.93v1.4c.5.18.88.38 1.27.62l.98-.98c.37-.37.98-.37 1.32 0l2.4 2.43c.35.37.35.93 0 1.3l-1 1c.25.4.44.82.62 1.3zm-.04 4.67v-3.68h-1.85c-.22 0-.4-.16-.48-.38-.17-.7-.45-1.15-.8-1.75-.1-.2-.06-.44.1-.6l1.2-1.22-2.32-2.34-1.2 1.22c-.16.15-.4.2-.6.07l-.08-.06c-.6-.34-1-.58-1.63-.75-.2-.08-.36-.28-.36-.5v-1.72h-3.7v1.7c0 .22-.14.42-.35.48-.63.16-1.07.4-1.65.76l-.1.04c-.18.1-.42.1-.6-.08l-1.2-1.22-2.37 2.34 1.22 1.24c.18.15.2.4.1.58-.36.6-.64 1.1-.8 1.8-.08.22-.27.37-.5.37H229v3.67h1.73c.23 0 .42.15.5.37.14.63.4 1.06.72 1.65l.07.07c.1.2.08.44-.1.6l-1.2 1.22 2.33 2.35 1.2-1.2c.2-.18.42-.2.62-.1.6.37 1.1.63 1.78.8.2.07.36.27.36.48V164h3.68v-1.77c0-.2.15-.4.36-.47.63-.16 1.04-.4 1.63-.74l.1-.06c.2-.1.44-.07.6.08l1.23 1.2 2.36-2.33-1.22-1.2c-.17-.17-.2-.4-.08-.6.34-.6.63-1.07.8-1.76.06-.22.26-.37.47-.37zm-9.87-6.67c2.67 0 4.83 2.17 4.83 4.83 0 2.67-2.16 4.83-4.83 4.83-2.66 0-4.83-2.16-4.83-4.83 0-2.66 2.17-4.83 4.83-4.83zm0 8.66c2.13 0 3.84-1.7 3.84-3.83 0-2.12-1.7-3.83-3.84-3.83-2.12 0-3.83 1.7-3.83 3.83 0 2.12 1.7 3.84 3.83 3.84zM275.47 151.3c.52 0 .93.43.93.92v3.82c0 .5-.4.93-.93.93h-1.43c-.15.48-.37.9-.6 1.3l1 1c.17.17.27.38.27.64 0 .25-.1.5-.27.66L272 163c-.36.36-.95.36-1.3 0l-1-1c-.42.23-.8.45-1.3.6v1.43c0 .52-.42.93-.92.93h-3.8c-.5 0-.92-.4-.92-.93v-1.43c-.5-.15-.9-.37-1.34-.6l-1 1c-.18.16-.4.27-.65.27-.24 0-.48-.1-.65-.28l-2.43-2.46c-.38-.34-.38-.93 0-1.3l1-1c-.25-.4-.47-.8-.62-1.27h-1.4c-.53 0-.94-.43-.94-.93v-3.8c0-.5.4-.95.93-.95h1.43c.16-.5.37-.92.6-1.33l-1-1c-.16-.17-.27-.4-.27-.66 0-.23.1-.47.28-.65l2.46-2.42c.35-.37.93-.37 1.3 0l1 1c.4-.24.8-.46 1.3-.6v-1.4c0-.52.4-.93.9-.93h3.82c.5 0 .9.4.9.93v1.4c.5.18.88.38 1.27.62l.97-.98c.37-.37.98-.37 1.32 0l2.4 2.43c.35.37.35.93 0 1.3l-1 1c.25.4.44.82.62 1.3zm-.04 4.67v-3.68h-1.84c-.23 0-.42-.16-.5-.38-.16-.7-.44-1.15-.8-1.75-.1-.2-.06-.44.1-.6l1.2-1.22-2.3-2.34-1.22 1.22c-.15.15-.4.2-.6.07l-.07-.06c-.58-.34-1-.58-1.62-.75-.2-.08-.36-.28-.36-.5v-1.72h-3.7v1.7c0 .22-.14.42-.36.48-.62.16-1.06.4-1.64.76l-.1.04c-.18.1-.42.1-.6-.08l-1.2-1.22-2.37 2.34 1.2 1.24c.2.15.2.4.1.58-.35.6-.63 1.1-.8 1.8-.07.22-.26.37-.48.37h-1.75v3.67h1.73c.22 0 .4.15.48.37.15.63.4 1.06.73 1.65l.07.07c.1.2.08.44-.1.6l-1.2 1.22 2.34 2.35 1.2-1.2c.18-.18.42-.2.62-.1.6.37 1.1.63 1.76.8.22.07.37.27.37.48V164h3.7v-1.77c0-.2.14-.4.35-.47.63-.16 1.04-.4 1.63-.74l.12-.06c.2-.1.43-.07.58.08l1.23 1.2 2.37-2.33-1.22-1.2c-.17-.17-.2-.4-.08-.6.34-.6.63-1.07.8-1.76.06-.22.26-.37.48-.37zm-9.86-6.67c2.67 0 4.83 2.17 4.83 4.83 0 2.67-2.16 4.83-4.83 4.83-2.66 0-4.83-2.16-4.83-4.83 0-2.66 2.17-4.83 4.83-4.83zm0 8.66c2.13 0 3.84-1.7 3.84-3.83 0-2.12-1.7-3.83-3.83-3.83-2.12 0-3.83 1.7-3.83 3.83 0 2.12 1.7 3.84 3.83 3.84z" stroke="#000" stroke-opacity="0" fill="#005308"/><path d="M216.5 192.76a6 6 0 0 1 6-6h86.15a6 6 0 0 1 6 6v53.33a6 6 0 0 1-6 6H222.5a6 6 0 0 1-6-6z" stroke="#00bf13" stroke-width="3" fill-opacity="0"/><use xlink:href="#v" transform="matrix(1,0,0,1,221.4935576451636,191.75763473448905) translate(7.524691358024697 17.777777777777775)"/><path d="M302.2 227.32c.53 0 .94.44.94.93v3.82c0 .5-.4.93-.93.93h-1.42c-.15.47-.37.88-.6 1.3l1 1c.17.17.27.38.27.64 0 .24-.1.48-.28.65l-2.45 2.42c-.34.37-.93.37-1.3 0l-1-1c-.4.24-.8.46-1.3.6v1.44c0 .52-.4.93-.9.93h-3.8c-.5 0-.92-.42-.92-.94v-1.43c-.5-.15-.9-.37-1.35-.6l-1 1c-.17.16-.38.27-.64.27-.23 0-.47-.1-.64-.28l-2.43-2.45c-.37-.35-.37-.93 0-1.3l1-1c-.24-.4-.46-.8-.6-1.27h-1.42c-.5 0-.92-.44-.92-.93v-3.82c0-.5.4-.93.93-.93h1.44c.16-.5.37-.9.6-1.32l-1-1c-.16-.17-.27-.4-.27-.67 0-.24.1-.47.28-.65l2.45-2.42c.35-.37.93-.37 1.3 0l1 1c.4-.25.8-.46 1.3-.6v-1.4c0-.52.4-.93.9-.93h3.82c.5 0 .9.4.9.93v1.4c.5.18.88.38 1.26.62l.98-.98c.37-.37.97-.37 1.32 0l2.4 2.43c.35.36.35.93 0 1.3l-1 1c.25.4.44.8.62 1.3zm-.03 4.68v-3.68h-1.84c-.22 0-.4-.15-.48-.37-.17-.7-.45-1.15-.8-1.75-.1-.2-.07-.44.1-.6l1.2-1.22-2.32-2.34-1.2 1.2c-.16.16-.4.2-.6.07l-.08-.03c-.6-.34-1-.58-1.63-.76-.2-.05-.37-.25-.37-.46v-1.74h-3.68v1.7c0 .23-.15.43-.37.5-.63.14-1.06.4-1.64.75l-.1.04c-.18.1-.42.08-.6-.1l-1.2-1.2-2.37 2.33 1.2 1.24c.18.15.2.4.1.58-.36.6-.64 1.1-.8 1.8-.08.22-.27.37-.5.37h-1.74V232h1.73c.2 0 .4.15.47.37.15.63.4 1.06.73 1.64l.07.1c.1.2.08.44-.1.6l-1.2 1.22 2.34 2.36 1.22-1.2c.17-.18.4-.2.6-.1.6.37 1.1.63 1.78.8.22.07.37.26.37.48V240h3.68v-1.74c0-.22.16-.4.37-.48.63-.15 1.04-.4 1.63-.73l.1-.07c.2-.1.44-.06.6.1l1.22 1.2 2.37-2.34-1.22-1.2c-.17-.18-.2-.42-.08-.62.34-.58.62-1.06.8-1.75.06-.22.26-.37.47-.37zm-9.86-6.67c2.68 0 4.84 2.16 4.84 4.83 0 2.66-2.16 4.83-4.83 4.83-2.65 0-4.82-2.18-4.82-4.84 0-2.66 2.17-4.83 4.83-4.83zm0 8.66c2.14 0 3.85-1.72 3.85-3.84s-1.7-3.84-3.84-3.84c-2.1 0-3.82 1.72-3.82 3.84s1.7 3.83 3.83 3.83zM248.73 227.32c.52 0 .94.44.94.93v3.82c0 .5-.42.93-.94.93h-1.43c-.15.47-.37.88-.6 1.3l1 1c.17.17.28.38.28.64 0 .24-.1.48-.3.65l-2.43 2.42c-.35.37-.94.37-1.3 0l-1-1c-.4.24-.8.46-1.3.6v1.44c0 .52-.4.93-.9.93h-3.82c-.5 0-.9-.42-.9-.94v-1.43c-.5-.15-.92-.37-1.35-.6l-1 1c-.17.16-.4.27-.65.27-.24 0-.48-.1-.65-.28l-2.43-2.45c-.36-.35-.36-.93 0-1.3l1-1c-.24-.4-.45-.8-.6-1.27h-1.4c-.53 0-.95-.44-.95-.93v-3.82c0-.5.4-.93.94-.93h1.43c.15-.5.36-.9.6-1.32l-1-1c-.17-.17-.28-.4-.28-.67 0-.24.1-.47.28-.65l2.44-2.42c.35-.37.93-.37 1.3 0l1 1c.4-.25.8-.46 1.3-.6v-1.4c0-.52.4-.93.9-.93h3.82c.5 0 .9.4.9.93v1.4c.5.18.88.38 1.27.62l.98-.98c.37-.37.98-.37 1.32 0l2.4 2.43c.35.36.35.93 0 1.3l-1 1c.25.4.44.8.62 1.3zm-.04 4.68v-3.68h-1.85c-.22 0-.4-.15-.48-.37-.17-.7-.45-1.15-.8-1.75-.1-.2-.06-.44.1-.6l1.2-1.22-2.32-2.34-1.2 1.2c-.16.16-.4.2-.6.07l-.08-.03c-.6-.34-1-.58-1.63-.76-.2-.05-.36-.25-.36-.46v-1.74h-3.7v1.7c0 .23-.14.43-.35.5-.63.14-1.07.4-1.65.75l-.1.04c-.18.1-.42.08-.6-.1l-1.2-1.2-2.37 2.33 1.22 1.24c.18.15.2.4.1.58-.36.6-.64 1.1-.8 1.8-.08.22-.27.37-.5.37H229V232h1.73c.23 0 .42.15.5.37.14.63.4 1.06.72 1.64l.07.1c.1.2.08.44-.1.6l-1.2 1.22 2.33 2.36 1.2-1.2c.2-.18.42-.2.62-.1.6.37 1.1.63 1.78.8.2.07.36.26.36.48V240h3.68v-1.74c0-.22.15-.4.36-.48.63-.15 1.04-.4 1.63-.73l.1-.07c.2-.1.44-.06.6.1l1.23 1.2 2.36-2.34-1.22-1.2c-.17-.18-.2-.42-.08-.62.34-.58.63-1.06.8-1.75.06-.22.26-.37.47-.37zm-9.87-6.67c2.67 0 4.83 2.16 4.83 4.83 0 2.66-2.16 4.83-4.83 4.83-2.66 0-4.83-2.18-4.83-4.84 0-2.66 2.17-4.83 4.83-4.83zm0 8.66c2.13 0 3.84-1.72 3.84-3.84s-1.7-3.84-3.84-3.84c-2.12 0-3.83 1.72-3.83 3.84s1.7 3.83 3.83 3.83zM275.47 227.32c.52 0 .93.44.93.93v3.82c0 .5-.4.93-.93.93h-1.43c-.15.47-.37.88-.6 1.3l1 1c.17.17.27.38.27.64 0 .24-.1.48-.27.65L272 239c-.36.37-.95.37-1.3 0l-1-1c-.42.24-.8.46-1.3.6v1.44c0 .52-.42.93-.92.93h-3.8c-.5 0-.92-.42-.92-.94v-1.43c-.5-.15-.9-.37-1.34-.6l-1 1c-.18.16-.4.27-.65.27-.24 0-.48-.1-.65-.28l-2.43-2.45c-.38-.35-.38-.93 0-1.3l1-1c-.25-.4-.47-.8-.62-1.27h-1.4c-.53 0-.94-.44-.94-.93v-3.82c0-.5.4-.93.93-.93h1.43c.16-.5.37-.9.6-1.32l-1-1c-.16-.17-.27-.4-.27-.67 0-.24.1-.47.28-.65l2.46-2.42c.35-.37.93-.37 1.3 0l1 1c.4-.25.8-.46 1.3-.6v-1.4c0-.52.4-.93.9-.93h3.82c.5 0 .9.4.9.93v1.4c.5.18.88.38 1.27.62l.97-.98c.37-.37.98-.37 1.32 0l2.4 2.43c.35.36.35.93 0 1.3l-1 1c.25.4.44.8.62 1.3zm-.04 4.68v-3.68h-1.84c-.23 0-.42-.15-.5-.37-.16-.7-.44-1.15-.8-1.75-.1-.2-.06-.44.1-.6l1.2-1.22-2.3-2.34-1.22 1.2c-.15.16-.4.2-.6.07l-.07-.03c-.58-.34-1-.58-1.62-.76-.2-.05-.36-.25-.36-.46v-1.74h-3.7v1.7c0 .23-.14.43-.36.5-.62.14-1.06.4-1.64.75l-.1.04c-.18.1-.42.08-.6-.1l-1.2-1.2-2.37 2.33 1.2 1.24c.2.15.2.4.1.58-.35.6-.63 1.1-.8 1.8-.07.22-.26.37-.48.37h-1.75V232h1.73c.22 0 .4.15.48.37.15.63.4 1.06.73 1.64l.07.1c.1.2.08.44-.1.6l-1.2 1.22 2.34 2.36 1.2-1.2c.18-.18.42-.2.62-.1.6.37 1.1.63 1.76.8.22.07.37.26.37.48V240h3.7v-1.74c0-.22.14-.4.35-.48.63-.15 1.04-.4 1.63-.73l.12-.07c.2-.1.43-.06.58.1l1.23 1.2 2.37-2.34-1.22-1.2c-.17-.18-.2-.42-.08-.62.34-.58.63-1.06.8-1.75.06-.22.26-.37.48-.37zm-9.86-6.67c2.67 0 4.83 2.16 4.83 4.83 0 2.66-2.16 4.83-4.83 4.83-2.66 0-4.83-2.18-4.83-4.84 0-2.66 2.17-4.83 4.83-4.83zm0 8.66c2.13 0 3.84-1.72 3.84-3.84s-1.7-3.84-3.83-3.84c-2.12 0-3.83 1.72-3.83 3.84s1.7 3.83 3.83 3.83zM760 233.34c.52 0 .93.44.93.94v3.8c0 .5-.4.94-.93.94h-1.43c-.15.48-.37.9-.6 1.3l1 1c.16.17.27.4.27.65 0 .23-.1.47-.28.65l-2.45 2.42c-.34.37-.92.37-1.3 0l-1-1c-.4.24-.8.46-1.3.6v1.44c0 .52-.4.93-.9.93h-3.8c-.5 0-.92-.4-.92-.92v-1.43c-.5-.15-.9-.37-1.34-.6l-1 1c-.17.16-.4.27-.65.27s-.48-.1-.66-.28l-2.42-2.45c-.37-.35-.37-.94 0-1.3l1-1c-.24-.4-.46-.8-.6-1.28h-1.42c-.52 0-.93-.43-.93-.93v-3.82c0-.5.4-.94.93-.94h1.43c.15-.5.37-.9.6-1.32l-1-1c-.16-.17-.27-.4-.27-.67 0-.23.1-.47.28-.64l2.45-2.42c.33-.37.92-.37 1.3 0l.98 1c.4-.24.8-.46 1.3-.6v-1.4c0-.52.4-.93.9-.93h3.83c.5 0 .9.4.9.93v1.4c.5.18.88.38 1.27.62l.98-.98c.36-.37.97-.37 1.32 0l2.4 2.43c.35.37.35.93 0 1.3l-1 1c.24.4.44.82.6 1.3zm-.05 4.68v-3.68h-1.84c-.2 0-.4-.15-.46-.37-.18-.7-.46-1.15-.8-1.75-.1-.2-.07-.44.08-.6l1.22-1.22-2.32-2.34-1.22 1.2c-.15.16-.4.2-.58.08l-.1-.05c-.57-.35-.98-.6-1.6-.76-.23-.07-.38-.26-.38-.48v-1.73h-3.68v1.7c0 .22-.15.42-.37.48-.64.17-1.07.43-1.66.77l-.08.04c-.2.12-.44.1-.6-.07l-1.22-1.2-2.36 2.32 1.2 1.24c.18.14.2.38.1.58-.35.6-.63 1.1-.8 1.8-.07.2-.27.36-.48.36h-1.76v3.68h1.74c.2 0 .4.16.47.37.15.62.4 1.05.74 1.64l.05.08c.1.2.1.44-.08.6l-1.22 1.22 2.34 2.37 1.2-1.2c.18-.18.42-.2.6-.1.62.37 1.12.63 1.8.8.2.07.36.27.36.48v1.76h3.68v-1.76c0-.2.15-.4.37-.47.64-.15 1.05-.38 1.63-.73l.1-.06c.2-.1.44-.06.6.1l1.23 1.2 2.36-2.34-1.2-1.2c-.18-.18-.2-.42-.1-.6.35-.6.63-1.07.8-1.77.07-.22.26-.38.48-.38zm-9.85-6.67c2.66 0 4.83 2.17 4.83 4.83 0 2.67-2.17 4.83-4.83 4.83-2.67 0-4.83-2.15-4.83-4.82 0-2.66 2.16-4.83 4.83-4.83zm0 8.67c2.12 0 3.83-1.72 3.83-3.84s-1.7-3.83-3.83-3.83c-2.12 0-3.84 1.7-3.84 3.83s1.72 3.84 3.84 3.84zM746.63 210.5c.52 0 .93.43.93.93v3.8c0 .5-.4.95-.93.95h-1.43c-.15.47-.37.88-.6 1.3l1 1c.16.16.27.38.27.64 0 .24-.1.48-.28.65l-2.46 2.43c-.35.37-.93.37-1.3 0l-1-1c-.4.24-.8.46-1.3.6v1.44c0 .52-.4.93-.9.93h-3.82c-.5 0-.9-.4-.9-.93v-1.43c-.5-.15-.92-.36-1.35-.6l-1 1c-.17.17-.4.28-.65.28-.24 0-.47-.1-.65-.28l-2.42-2.45c-.37-.35-.37-.93 0-1.3l1-1c-.24-.4-.46-.8-.6-1.27h-1.42c-.52 0-.93-.44-.93-.94v-3.8c0-.5.4-.94.93-.94h1.43c.15-.5.37-.9.6-1.32l-1-1c-.16-.17-.27-.4-.27-.67 0-.23.1-.47.27-.64l2.45-2.43c.34-.36.93-.36 1.3 0l1 1c.4-.24.8-.45 1.3-.6v-1.4c0-.5.4-.92.9-.92h3.8c.5 0 .92.42.92.94v1.4c.48.18.87.37 1.26.6l.98-.96c.36-.37.97-.37 1.32 0l2.4 2.42c.35.37.35.94 0 1.3l-1 1c.24.4.44.82.6 1.3zm-.05 4.68v-3.68h-1.84c-.2 0-.4-.16-.47-.37-.18-.7-.46-1.15-.8-1.76-.1-.2-.07-.43.08-.58l1.22-1.25-2.32-2.34-1.22 1.23c-.15.15-.4.2-.58.06l-.1-.05c-.57-.35-.98-.6-1.6-.76-.23-.07-.38-.27-.38-.5v-1.72h-3.68v1.7c0 .23-.16.42-.38.5-.63.14-1.06.4-1.65.75l-.08.04c-.2.1-.45.1-.62-.1l-1.2-1.2-2.37 2.34 1.22 1.25c.17.15.2.38.1.58-.36.6-.64 1.1-.82 1.8-.06.2-.26.37-.47.37h-1.76v3.68h1.74c.22 0 .42.15.48.37.15.63.4 1.06.74 1.64l.06.08c.1.2.1.43-.08.6l-1.22 1.22 2.34 2.36 1.22-1.2c.17-.2.4-.2.6-.1.6.37 1.1.63 1.78.8.22.07.37.26.37.48v1.75h3.67v-1.76c0-.22.15-.4.37-.48.63-.15 1.04-.4 1.62-.74l.1-.06c.2-.1.44-.06.6.1l1.23 1.2 2.35-2.34-1.2-1.2c-.18-.2-.2-.42-.1-.62.35-.58.63-1.06.8-1.75.07-.22.26-.37.48-.37zm-9.85-6.67c2.66 0 4.83 2.17 4.83 4.84 0 2.66-2.17 4.83-4.83 4.83-2.67 0-4.83-2.17-4.83-4.83 0-2.67 2.16-4.83 4.83-4.83zm0 8.67c2.12 0 3.83-1.7 3.83-3.83s-1.7-3.84-3.83-3.84c-2.12 0-3.84 1.7-3.84 3.84 0 2.12 1.7 3.83 3.83 3.83zM773.37 210.5c.52 0 .93.43.93.93v3.8c0 .5-.4.95-.93.95h-1.43c-.15.47-.37.88-.6 1.3l1 1c.16.16.27.38.27.64 0 .24-.1.48-.27.65l-2.45 2.43c-.35.37-.93.37-1.3 0l-1-1c-.4.24-.8.46-1.3.6v1.44c0 .52-.4.93-.9.93h-3.82c-.5 0-.9-.4-.9-.93v-1.43c-.5-.15-.92-.36-1.35-.6l-1 1c-.16.17-.38.28-.64.28-.24 0-.47-.1-.65-.28l-2.4-2.45c-.38-.35-.38-.93 0-1.3l.98-1c-.24-.4-.45-.8-.6-1.27h-1.4c-.53 0-.94-.44-.94-.94v-3.8c0-.5.4-.94.93-.94H755c.15-.5.37-.9.6-1.32l-1-1c-.17-.17-.27-.4-.27-.67 0-.23.1-.47.28-.64l2.46-2.43c.34-.36.93-.36 1.3 0l1 1c.4-.24.8-.45 1.3-.6v-1.4c0-.5.4-.92.9-.92h3.8c.5 0 .92.42.92.94v1.4c.48.18.87.37 1.26.6l.98-.96c.36-.37.97-.37 1.32 0l2.4 2.42c.35.37.35.94 0 1.3l-1 1c.24.4.44.82.6 1.3zm-.05 4.68v-3.68h-1.84c-.2 0-.4-.16-.47-.37-.17-.7-.45-1.15-.8-1.76-.1-.2-.06-.43.1-.58l1.2-1.25-2.3-2.34-1.23 1.23c-.15.15-.4.2-.58.06l-.1-.05c-.58-.35-1-.6-1.62-.76-.22-.07-.37-.27-.37-.5v-1.72h-3.67v1.7c0 .23-.15.42-.37.5-.63.14-1.06.4-1.65.75l-.07.04c-.2.1-.44.1-.6-.1l-1.22-1.2-2.36 2.34 1.22 1.25c.17.15.2.38.1.58-.36.6-.64 1.1-.82 1.8-.06.2-.26.37-.47.37h-1.76v3.68h1.75c.2 0 .4.15.47.37.15.63.4 1.06.74 1.64l.06.08c.1.2.1.43-.08.6l-1.22 1.22 2.34 2.36 1.22-1.2c.17-.2.4-.2.6-.1.6.37 1.1.63 1.78.8.22.07.37.26.37.48v1.75h3.68v-1.76c0-.22.16-.4.38-.48.63-.15 1.04-.4 1.62-.74l.1-.06c.2-.1.44-.06.6.1l1.23 1.2 2.36-2.34-1.22-1.2c-.17-.2-.2-.42-.1-.62.36-.58.64-1.06.8-1.75.08-.22.27-.37.5-.37zm-9.85-6.67c2.66 0 4.83 2.17 4.83 4.84 0 2.66-2.17 4.83-4.83 4.83-2.67 0-4.83-2.17-4.83-4.83 0-2.67 2.16-4.83 4.83-4.83zm0 8.67c2.12 0 3.83-1.7 3.83-3.83s-1.7-3.84-3.83-3.84-3.84 1.7-3.84 3.84c0 2.12 1.72 3.83 3.84 3.83z" stroke="#000" stroke-opacity="0" fill="#005308"/><path d="M716.45 188.05c-4.76 0-8.62 3.86-8.62 8.62v51.73c0 4.76 3.86 8.62 8.62 8.62m67.3 0c4.76 0 8.62-3.85 8.62-8.62v-51.73c0-4.76-3.86-8.62-8.62-8.62" stroke="#0c8ce9" stroke-width="3" fill="none"/><path d="M317.65 222.57h16.26m16.27 0h32.5m16.26 0h32.5m16.27 0h32.5m16.27 0h16.27v-.02H528.92m16.16 0h32.3m16.16 0h32.3m16.17 0h32.3m16.15 0h16.15" stroke="#00bf13" stroke-width="3" fill="none"/><path d="M317.7 224.07h-1.55v-3h1.54z" stroke="#00bf13" stroke-width=".05" fill="#00bf13"/><path d="M689.17 232.72l17.2-10.18-17.2-10.2" stroke="#00bf13" stroke-width="3" fill="none"/><path d="M1097.1-132.46a6 6 0 0 1 6-6h218.2a6 6 0 0 1 6 6v113.42a6 6 0 0 1-6 6h-218.2a6 6 0 0 1-6-6z" stroke="#0c8ce9" stroke-width="3" fill-opacity="0"/><g><use xlink:href="#w" transform="matrix(1,0,0,1,1102.0907644515687,-133.46323112698772) translate(46.50444444444446 32.620555555555555)"/><use xlink:href="#n" transform="matrix(1,0,0,1,1102.0907644515687,-133.46323112698772) translate(110.5 68.70944444444443)"/><use xlink:href="#x" transform="matrix(1,0,0,1,1102.0907644515687,-133.46323112698772) translate(110.5 104.79833333333332)"/></g><path d="M1191.33-74.7c-1.28 0-2.32 1.05-2.32 2.33v13.9c0 1.3-1.03 2.33-2.3 2.33 1.27 0 2.3 1.04 2.3 2.3v13.93c0 1.27 1.05 2.3 2.33 2.3m41.73 0c1.28 0 2.3-1.03 2.3-2.3v-13.93c0-1.27 1.05-2.3 2.33-2.3-1.3 0-2.33-1.05-2.33-2.33v-13.9c0-1.3-1.03-2.33-2.3-2.33" stroke="#0c8ce9" stroke-width="3" fill="none"/><path d="M1167.03-56.44h-15.56m-15.55 0h-31.1m-15.56 0h-31.1m-15.56 0h-31.1m-15.56 0h-15.62l-.03.02-.03.02-.02.02-.02.02-.02.03v.12l-.02.02v.03l-.03.03-.02.02-.02.02-.02.02h-.03l-.03.02h-15.49m-15.45 0h-30.9m-15.46 0h-30.9m-15.46 0h-30.9m-15.45 0h-15.45M1167-56.44h1.53M812.02-66.22L794.8-56.04l17.22 10.18" stroke="#3a414a" stroke-width="3" fill="none"/><path d="M1327.3-186.23c0 17.98-51.54 32.56-115.1 32.56-63.58 0-115.1-14.58-115.1-32.56 0-17.98 51.52-32.56 115.1-32.56 63.56 0 115.1 14.6 115.1 32.57z" stroke="#0c8ce9" stroke-width="3" fill-opacity="0"/><g><use xlink:href="#q" transform="matrix(1,0,0,1,1102.0907644515687,-213.7909370691371) translate(51.05833333333336 38.853333333333325)"/></g><defs><path fill="#0c8ce9" d="M682-533C610-400 540-239 477-96h-78c-63-145-132-302-205-437-15 163-23 356-30 533H69c10-236 25-474 51-693h85c86 143 163 321 233 480 71-159 147-337 233-480h85c23 223 40 454 51 693h-95c-7-177-15-370-30-533" id="y"/><path fill="#0c8ce9" d="M297-533c160 0 244 110 244 273S457 13 297 13 53-97 53-260s84-273 244-273zm0 464c98 0 147-85 147-191s-49-191-147-191-147 85-147 191S199-69 297-69" id="z"/><path fill="#0c8ce9" d="M315-70c41 0 75-4 103-11v-329c-24-19-73-42-119-40-110 2-147 80-149 190-2 113 59 189 165 190zm-28-462c51-2 103 18 131 35v-263l93-16v761C458-1 388 13 314 12 145 7 53-90 53-260c0-162 75-266 234-272" id="A"/><path fill="#0c8ce9" d="M300-71c36 0 74-3 103-10v-439h93v505C441-2 367 11 290 11 138 11 76-78 76-228v-292h93v272c2 116 24 177 131 177" id="B"/><path fill="#0c8ce9" d="M173-151c-3 59 26 79 78 83l-13 78C129 7 80-30 80-136v-624l93-16v625" id="C"/><path fill="#0c8ce9" d="M315 12C141 9 53-87 53-259c0-164 81-274 237-274 163 0 227 118 216 298H150c9 108 58 165 175 165 54 0 101-11 133-25l13 78c-33 16-99 31-156 29zm95-322c8-101-82-177-178-132-47 22-73 71-80 132h258" id="D"/><g id="a"><use transform="matrix(0.02444444444444444,0,0,0.02444444444444444,0,0)" xlink:href="#y"/><use transform="matrix(0.02444444444444444,0,0,0.02444444444444444,21.388888888888882,0)" xlink:href="#z"/><use transform="matrix(0.02444444444444444,0,0,0.02444444444444444,35.90888888888888,0)" xlink:href="#A"/><use transform="matrix(0.02444444444444444,0,0,0.02444444444444444,50.40444444444443,0)" xlink:href="#B"/><use transform="matrix(0.02444444444444444,0,0,0.02444444444444444,64.53333333333332,0)" xlink:href="#C"/><use transform="matrix(0.02444444444444444,0,0,0.02444444444444444,71.30444444444443,0)" xlink:href="#D"/></g><path fill="#0c8ce9" d="M255-109c52-125 101-269 137-411h96C441-339 364-151 295 0h-84C142-151 64-339 18-520h100c36 142 85 286 137 411" id="E"/><path fill="#0c8ce9" d="M139-156c0 106 132 93 220 82v-155c-78-22-220-23-220 73zm-94 1c-2-152 173-180 314-148 5-94-26-150-117-150-50 0-101 8-132 20l-11-77c32-13 99-23 151-23 135 0 201 66 200 199V-9C390 1 319 11 247 11 126 11 46-34 45-155" id="F"/><g id="b"><use transform="matrix(0.02444444444444444,0,0,0.02444444444444444,0,0)" xlink:href="#E"/><use transform="matrix(0.02444444444444444,0,0,0.02444444444444444,12.368888888888886,0)" xlink:href="#F"/><use transform="matrix(0.02444444444444444,0,0,0.02444444444444444,25.22666666666666,0)" xlink:href="#C"/><use transform="matrix(0.02444444444444444,0,0,0.02444444444444444,31.99777777777777,0)" xlink:href="#B"/><use transform="matrix(0.02444444444444444,0,0,0.02444444444444444,46.12666666666666,0)" xlink:href="#D"/></g><path fill="#0c8ce9" d="M75-102c35 15 93 34 153 34 105 0 166-38 166-129 0-111-97-136-213-134v-76c101 4 183-19 183-115 0-72-48-104-120-105-60-1-104 22-138 43l-36-71c46-28 103-54 177-54 130 0 210 57 213 182 2 76-53 126-106 151 79 25 134 80 137 181C500 17 234 52 57-21" id="G"/><path fill="#0c8ce9" d="M125-121c39 0 67 30 67 67s-28 67-67 67-67-30-67-67 28-67 67-67" id="H"/><path fill="#0c8ce9" d="M95-550c82-33 155-78 210-143h66V0h-93v-564c-41 36-97 64-154 84" id="I"/><path fill="#0c8ce9" d="M42-240c77-166 189-328 311-453h89v440h82v76h-82V0h-90v-177H42v-63zm310-343c-86 94-162 208-220 330h220v-330" id="J"/><path fill="#0c8ce9" d="M216-614c-5 58-9 131-15 188 176 6 285 69 292 229C502 15 244 53 67-21l18-81c34 15 90 35 150 34 95-2 161-34 161-124 0-145-135-154-286-158 13-113 20-223 25-343h334v79H216" id="K"/><g id="c"><use transform="matrix(0.019999999999999993,0,0,0.019999999999999993,0,0)" xlink:href="#G"/><use transform="matrix(0.019999999999999993,0,0,0.019999999999999993,11.359999999999996,0)" xlink:href="#H"/><use transform="matrix(0.019999999999999993,0,0,0.019999999999999993,16.359999999999992,0)" xlink:href="#I"/><use transform="matrix(0.019999999999999993,0,0,0.019999999999999993,27.719999999999985,0)" xlink:href="#J"/><use transform="matrix(0.019999999999999993,0,0,0.019999999999999993,39.079999999999984,0)" xlink:href="#I"/><use transform="matrix(0.019999999999999993,0,0,0.019999999999999993,50.43999999999998,0)" xlink:href="#K"/></g><g id="d"><use transform="matrix(0.02444444444444444,0,0,0.02444444444444444,0,0)" xlink:href="#y"/><use transform="matrix(0.02444444444444444,0,0,0.02444444444444444,21.388888888888882,0)" xlink:href="#z"/><use transform="matrix(0.02444444444444444,0,0,0.02444444444444444,35.90888888888888,0)" xlink:href="#A"/><use transform="matrix(0.02444444444444444,0,0,0.02444444444444444,50.40444444444443,0)" xlink:href="#B"/><use transform="matrix(0.02444444444444444,0,0,0.02444444444444444,64.53333333333332,0)" xlink:href="#C"/><use transform="matrix(0.02444444444444444,0,0,0.02444444444444444,71.30444444444443,0)" xlink:href="#D"/></g><path fill="#0c8ce9" d="M64-114c42 22 110 45 185 45 127 0 189-72 139-159-74-129-329-76-337-288-8-203 271-234 423-150l-31 79c-73-47-295-73-292 60 2 88 82 103 147 131 102 44 200 79 205 222C510 40 191 50 35-34" id="L"/><path fill="#0c8ce9" d="M82-498c73-28 204-47 296-18l-16 81c-44-19-138-19-187-2V0H82v-498" id="M"/><path fill="#0c8ce9" d="M175 0H82v-520h93V0zm13-675c0 35-26 61-60 61s-60-26-60-61 26-61 60-61 60 26 60 61" id="N"/><path fill="#0c8ce9" d="M447-14c-35 17-88 26-139 26C139 12 53-90 53-259c0-187 118-299 319-268 23 4 46 10 67 19l-21 79c-28-13-66-22-107-22-111 1-162 75-161 192 1 118 51 189 170 189 43 1 87-10 114-22" id="O"/><g id="e"><use transform="matrix(0.02444444444444444,0,0,0.02444444444444444,0,0)" xlink:href="#L"/><use transform="matrix(0.02444444444444444,0,0,0.02444444444444444,13.102222222222219,0)" xlink:href="#D"/><use transform="matrix(0.02444444444444444,0,0,0.02444444444444444,26.864444444444437,0)" xlink:href="#M"/><use transform="matrix(0.02444444444444444,0,0,0.02444444444444444,36.9111111111111,0)" xlink:href="#E"/><use transform="matrix(0.02444444444444444,0,0,0.02444444444444444,49.27999999999999,0)" xlink:href="#N"/><use transform="matrix(0.02444444444444444,0,0,0.02444444444444444,55.56222222222221,0)" xlink:href="#O"/><use transform="matrix(0.02444444444444444,0,0,0.02444444444444444,67.02666666666666,0)" xlink:href="#D"/></g><path fill="#0c8ce9" d="M88 0v-693h418v83H185v209h285v82H185V0H88" id="P"/><path fill="#0c8ce9" d="M279-449c-36 1-74 4-104 10V0H82v-505c55-13 130-26 207-26 153 0 213 87 213 239V0h-93v-272c1-107-22-180-130-177" id="Q"/><g id="g"><use transform="matrix(0.02444444444444444,0,0,0.02444444444444444,0,0)" xlink:href="#P"/><use transform="matrix(0.02444444444444444,0,0,0.02444444444444444,12.539999999999997,0)" xlink:href="#Q"/></g><path fill="#0c8ce9" d="M35-768c60-18 141-3 173 30 26 27 47 59 64 97C359-441 437-209 494 0h-97c-38-137-82-292-131-426C203-297 150-152 113 0H18c48-189 127-366 207-526-29-62-44-126-94-162-20-14-60-13-83-5" id="R"/><use transform="matrix(0.02444444444444444,0,0,0.02444444444444444,0,0)" xlink:href="#R" id="h"/><path fill="#0c8ce9" d="M597-29C545 0 469 15 386 15 168 15 67-125 60-347c-8-284 240-432 510-326 11 4 18 9 22 12l-28 80c-42-23-98-43-163-43-163 0-238 111-238 277 0 165 69 273 232 277 73 3 134-19 177-39" id="S"/><path fill="#0c8ce9" d="M278-449c-36 0-74 4-103 10V0H82v-505c94-23 290-55 347 27 41-28 96-52 166-53 149-3 194 91 194 239V0h-93v-272c0-100-11-177-111-177-50 0-96 17-119 35 30 114 10 276 16 414h-93v-272c0-99-12-179-111-177" id="T"/><path fill="#0c8ce9" d="M294-70c109-2 147-79 149-189 2-113-59-188-165-189-45 0-73 2-103 10v328c24 19 73 42 119 40zm-15-461c169 5 261 102 261 272C540-98 465 6 306 12c-51 2-103-18-131-35v208H82v-689c54-12 122-29 197-27" id="U"/><path fill="#0c8ce9" d="M257 11C121 11 76-66 76-201v-464l93-16v161h197v78H169v240c-1 80 17 131 96 131 43 0 79-13 103-23l18 77c-27 12-82 28-129 28" id="V"/><g id="i"><use transform="matrix(0.02444444444444444,0,0,0.02444444444444444,0,0)" xlink:href="#S"/><use transform="matrix(0.02444444444444444,0,0,0.02444444444444444,14.886666666666663,0)" xlink:href="#z"/><use transform="matrix(0.02444444444444444,0,0,0.02444444444444444,29.40666666666666,0)" xlink:href="#T"/><use transform="matrix(0.02444444444444444,0,0,0.02444444444444444,50.5511111111111,0)" xlink:href="#U"/><use transform="matrix(0.02444444444444444,0,0,0.02444444444444444,65.04666666666665,0)" xlink:href="#z"/><use transform="matrix(0.02444444444444444,0,0,0.02444444444444444,79.56666666666665,0)" xlink:href="#Q"/><use transform="matrix(0.02444444444444444,0,0,0.02444444444444444,93.69555555555553,0)" xlink:href="#D"/><use transform="matrix(0.02444444444444444,0,0,0.02444444444444444,107.45777777777775,0)" xlink:href="#Q"/><use transform="matrix(0.02444444444444444,0,0,0.02444444444444444,121.58666666666664,0)" xlink:href="#V"/></g><path fill="#0c8ce9" d="M551-693v84H333V0h-97v-609H18v-84h533" id="W"/><g id="j"><use transform="matrix(0.031111111111111103,0,0,0.031111111111111103,0,0)" xlink:href="#W"/><use transform="matrix(0.031111111111111103,0,0,0.031111111111111103,15.991111111111108,0)" xlink:href="#D"/><use transform="matrix(0.031111111111111103,0,0,0.031111111111111103,33.50666666666666,0)" xlink:href="#T"/><use transform="matrix(0.031111111111111103,0,0,0.031111111111111103,60.417777777777765,0)" xlink:href="#U"/><use transform="matrix(0.031111111111111103,0,0,0.031111111111111103,78.86666666666665,0)" xlink:href="#C"/><use transform="matrix(0.031111111111111103,0,0,0.031111111111111103,87.48444444444442,0)" xlink:href="#F"/><use transform="matrix(0.031111111111111103,0,0,0.031111111111111103,103.84888888888887,0)" xlink:href="#V"/><use transform="matrix(0.031111111111111103,0,0,0.031111111111111103,116.16888888888886,0)" xlink:href="#D"/></g><path fill="#0c8ce9" d="M158-299l355 146-26 77L55-259v-80l432-183 26 77" id="X"/><use transform="matrix(0.035555555555555535,0,0,0.035555555555555535,0,0)" xlink:href="#X" id="k"/><path fill="#0c8ce9" d="M55-445l26-77 432 183v80L81-76l-26-77 355-146" id="Y"/><use transform="matrix(0.035555555555555535,0,0,0.035555555555555535,0,0)" xlink:href="#Y" id="l"/><g id="m"><use transform="matrix(0.031111111111111103,0,0,0.031111111111111103,0,0)" xlink:href="#S"/><use transform="matrix(0.031111111111111103,0,0,0.031111111111111103,18.946666666666662,0)" xlink:href="#z"/><use transform="matrix(0.031111111111111103,0,0,0.031111111111111103,37.42666666666666,0)" xlink:href="#T"/><use transform="matrix(0.031111111111111103,0,0,0.031111111111111103,64.33777777777777,0)" xlink:href="#U"/><use transform="matrix(0.031111111111111103,0,0,0.031111111111111103,82.78666666666666,0)" xlink:href="#z"/><use transform="matrix(0.031111111111111103,0,0,0.031111111111111103,101.26666666666665,0)" xlink:href="#Q"/><use transform="matrix(0.031111111111111103,0,0,0.031111111111111103,119.24888888888887,0)" xlink:href="#D"/><use transform="matrix(0.031111111111111103,0,0,0.031111111111111103,136.76444444444442,0)" xlink:href="#Q"/><use transform="matrix(0.031111111111111103,0,0,0.031111111111111103,154.74666666666664,0)" xlink:href="#V"/></g><g id="q"><use transform="matrix(0.02666666666666666,0,0,0.02666666666666666,0,0)" xlink:href="#y"/><use transform="matrix(0.02666666666666666,0,0,0.02666666666666666,23.33333333333333,0)" xlink:href="#D"/><use transform="matrix(0.02666666666666666,0,0,0.02666666666666666,38.34666666666666,0)" xlink:href="#V"/><use transform="matrix(0.02666666666666666,0,0,0.02666666666666666,49.17333333333332,0)" xlink:href="#F"/><use transform="matrix(0.02666666666666666,0,0,0.02666666666666666,63.199999999999974,0)" xlink:href="#A"/><use transform="matrix(0.02666666666666666,0,0,0.02666666666666666,79.0133333333333,0)" xlink:href="#F"/><use transform="matrix(0.02666666666666666,0,0,0.02666666666666666,93.03999999999996,0)" xlink:href="#V"/><use transform="matrix(0.02666666666666666,0,0,0.02666666666666666,103.86666666666663,0)" xlink:href="#F"/></g><path fill="#333" d="M88 0v-693h423v83H185v206h290v81H185v240h351V0H88" id="Z"/><path fill="#333" d="M255-109c52-125 101-269 137-411h96C441-339 364-151 295 0h-84C142-151 64-339 18-520h100c36 142 85 286 137 411" id="aa"/><path fill="#333" d="M315 12C141 9 53-87 53-259c0-164 81-274 237-274 163 0 227 118 216 298H150c9 108 58 165 175 165 54 0 101-11 133-25l13 78c-33 16-99 31-156 29zm95-322c8-101-82-177-178-132-47 22-73 71-80 132h258" id="ab"/><path fill="#333" d="M279-449c-36 1-74 4-104 10V0H82v-505c55-13 130-26 207-26 153 0 213 87 213 239V0h-93v-272c1-107-22-180-130-177" id="ac"/><path fill="#333" d="M257 11C121 11 76-66 76-201v-464l93-16v161h197v78H169v240c-1 80 17 131 96 131 43 0 79-13 103-23l18 77c-27 12-82 28-129 28" id="ad"/><g id="r"><use transform="matrix(0.02666666666666666,0,0,0.02666666666666666,0,0)" xlink:href="#Z"/><use transform="matrix(0.02666666666666666,0,0,0.02666666666666666,14.666666666666664,0)" xlink:href="#aa"/><use transform="matrix(0.02666666666666666,0,0,0.02666666666666666,27.78666666666666,0)" xlink:href="#ab"/><use transform="matrix(0.02666666666666666,0,0,0.02666666666666666,42.79999999999999,0)" xlink:href="#ac"/><use transform="matrix(0.02666666666666666,0,0,0.02666666666666666,58.213333333333324,0)" xlink:href="#ad"/></g><path fill="#333" d="M279 12C204 13 135-1 82-15v-745l93-16v279c28-17 80-37 131-35 159 6 234 110 234 272C540-90 448 7 279 12zm15-462c-46-2-95 21-119 40v329c28 7 62 11 103 11 106 0 167-77 165-190-2-110-39-188-149-190" id="ae"/><path fill="#333" d="M175 0H82v-520h93V0zm13-675c0 35-26 61-60 61s-60-26-60-61 26-61 60-61 60 26 60 61" id="af"/><path fill="#333" d="M315-70c41 0 75-4 103-11v-329c-24-19-73-42-119-40-110 2-147 80-149 190-2 113 59 189 165 190zm-28-462c51-2 103 18 131 35v-263l93-16v761C458-1 388 13 314 12 145 7 53-90 53-260c0-162 75-266 234-272" id="ag"/><path fill="#333" d="M252 108c114 0 161-44 156-160-25 15-79 35-127 33-151-6-228-96-228-252 0-162 90-254 252-260 75-2 141 15 195 27v464c0 164-85 227-250 228-62 1-124-12-168-27l17-81c38 15 98 28 153 28zm38-207c46 2 92-16 117-35v-304c-29-7-58-11-101-11-102-1-157 76-156 179 2 102 44 167 140 171" id="ah"/><g id="s"><use transform="matrix(0.02666666666666666,0,0,0.02666666666666666,0,0)" xlink:href="#ae"/><use transform="matrix(0.02666666666666666,0,0,0.02666666666666666,15.81333333333333,0)" xlink:href="#af"/><use transform="matrix(0.02666666666666666,0,0,0.02666666666666666,22.666666666666664,0)" xlink:href="#ac"/><use transform="matrix(0.02666666666666666,0,0,0.02666666666666666,38.08,0)" xlink:href="#ag"/><use transform="matrix(0.02666666666666666,0,0,0.02666666666666666,53.89333333333333,0)" xlink:href="#af"/><use transform="matrix(0.02666666666666666,0,0,0.02666666666666666,60.74666666666667,0)" xlink:href="#ac"/><use transform="matrix(0.02666666666666666,0,0,0.02666666666666666,76.16,0)" xlink:href="#ah"/></g><path fill="#333" d="M88-683c49-13 125-17 184-17 175 0 303 59 303 221 0 202-179 229-390 222V0H88v-683zm385 203c0-140-156-141-288-132v272c146 2 288 4 288-140" id="ai"/><path fill="#333" d="M82-498c73-28 204-47 296-18l-16 81c-44-19-138-19-187-2V0H82v-498" id="aj"/><path fill="#333" d="M297-533c160 0 244 110 244 273S457 13 297 13 53-97 53-260s84-273 244-273zm0 464c98 0 147-85 147-191s-49-191-147-191-147 85-147 191S199-69 297-69" id="ak"/><path fill="#333" d="M294-70c109-2 147-79 149-189 2-113-59-188-165-189-45 0-73 2-103 10v328c24 19 73 42 119 40zm-15-461c169 5 261 102 261 272C540-98 465 6 306 12c-51 2-103-18-131-35v208H82v-689c54-12 122-29 197-27" id="al"/><path fill="#333" d="M266-100c50-137 84-270 119-420h96C435-330 371-148 306 16 261 129 164 226 4 172l17-75c41 21 118 16 149-11 20-17 39-42 56-79C145-149 66-333 18-520h100c37 148 89 293 148 420" id="am"/><g id="t"><use transform="matrix(0.02666666666666666,0,0,0.02666666666666666,0,0)" xlink:href="#ai"/><use transform="matrix(0.02666666666666666,0,0,0.02666666666666666,16.319999999999997,0)" xlink:href="#aj"/><use transform="matrix(0.02666666666666666,0,0,0.02666666666666666,26.719999999999995,0)" xlink:href="#ak"/><use transform="matrix(0.02666666666666666,0,0,0.02666666666666666,42.55999999999999,0)" xlink:href="#al"/><use transform="matrix(0.02666666666666666,0,0,0.02666666666666666,58.37333333333332,0)" xlink:href="#ab"/><use transform="matrix(0.02666666666666666,0,0,0.02666666666666666,73.38666666666666,0)" xlink:href="#aj"/><use transform="matrix(0.02666666666666666,0,0,0.02666666666666666,83.78666666666666,0)" xlink:href="#ad"/><use transform="matrix(0.02666666666666666,0,0,0.02666666666666666,94.61333333333333,0)" xlink:href="#am"/></g><path fill="#0c8ce9" d="M88-693h97V0H88v-693" id="an"/><path fill="#0c8ce9" d="M175-10c9 150-97 224-241 186l12-76C31 125 82 82 82-9v-511h93v510zm13-665c0 35-26 61-60 61s-60-26-60-61 26-61 60-61 60 26 60 61" id="ao"/><g id="u"><use transform="matrix(0.031111111111111103,0,0,0.031111111111111103,0,0)" xlink:href="#an"/><use transform="matrix(0.031111111111111103,0,0,0.031111111111111103,8.49333333333333,0)" xlink:href="#Q"/><use transform="matrix(0.031111111111111103,0,0,0.031111111111111103,26.47555555555555,0)" xlink:href="#ao"/><use transform="matrix(0.031111111111111103,0,0,0.031111111111111103,34.47111111111111,0)" xlink:href="#D"/><use transform="matrix(0.031111111111111103,0,0,0.031111111111111103,51.98666666666666,0)" xlink:href="#O"/><use transform="matrix(0.031111111111111103,0,0,0.031111111111111103,66.57777777777777,0)" xlink:href="#V"/><use transform="matrix(0.031111111111111103,0,0,0.031111111111111103,78.77333333333333,0)" xlink:href="#z"/><use transform="matrix(0.031111111111111103,0,0,0.031111111111111103,97.25333333333333,0)" xlink:href="#M"/></g><path fill="#00bf13" d="M185-189c-5-48-123-54-124 2 14 75 158 14 163 119 3 78-121 87-175 55-17-10-28-26-33-46l33-7c5 56 141 63 141-1 0-78-155-14-162-118-5-82 145-84 179-34 5 7 8 16 11 25" id="ap"/><path fill="#00bf13" d="M100-194c63 0 86 42 84 106H49c0 40 14 67 53 68 26 1 43-12 49-29l28 8c-11 28-37 45-77 45C44 4 14-33 15-96c1-61 26-98 85-98zm52 81c6-60-76-77-97-28-3 7-6 17-6 28h103" id="aq"/><path fill="#00bf13" d="M114-163C36-179 61-72 57 0H25l-1-190h30c1 12-1 29 2 39 6-27 23-49 58-41v29" id="ar"/><path fill="#00bf13" d="M108 0H70L1-190h34L89-25l56-165h34" id="as"/><path fill="#00bf13" d="M24-231v-30h32v30H24zM24 0v-190h32V0H24" id="at"/><path fill="#00bf13" d="M96-169c-40 0-48 33-48 73s9 75 48 75c24 0 41-14 43-38l32 2c-6 37-31 61-74 61-59 0-76-41-82-99-10-93 101-131 147-64 4 7 5 14 7 22l-32 3c-4-21-16-35-41-35" id="au"/><g id="v"><use transform="matrix(0.061728395061728385,0,0,0.061728395061728385,0,0)" xlink:href="#ap"/><use transform="matrix(0.061728395061728385,0,0,0.061728395061728385,14.814814814814813,0)" xlink:href="#aq"/><use transform="matrix(0.061728395061728385,0,0,0.061728395061728385,27.16049382716049,0)" xlink:href="#ar"/><use transform="matrix(0.061728395061728385,0,0,0.061728395061728385,34.50617283950617,0)" xlink:href="#as"/><use transform="matrix(0.061728395061728385,0,0,0.061728395061728385,45.61728395061728,0)" xlink:href="#at"/><use transform="matrix(0.061728395061728385,0,0,0.061728395061728385,50.49382716049382,0)" xlink:href="#au"/><use transform="matrix(0.061728395061728385,0,0,0.061728395061728385,61.60493827160493,0)" xlink:href="#aq"/></g><path fill="#0c8ce9" d="M272-700c239 0 385 113 385 353S511 6 272 6C213 6 137 2 88-11v-672c49-13 125-17 184-17zM185-82c28 2 55 3 95 3 179 2 274-95 274-268s-95-270-274-268c-40 0-67 1-95 3v530" id="av"/><g id="w"><use transform="matrix(0.031111111111111103,0,0,0.031111111111111103,0,0)" xlink:href="#av"/><use transform="matrix(0.031111111111111103,0,0,0.031111111111111103,22.30666666666666,0)" xlink:href="#N"/><use transform="matrix(0.031111111111111103,0,0,0.031111111111111103,30.302222222222216,0)" xlink:href="#M"/><use transform="matrix(0.031111111111111103,0,0,0.031111111111111103,42.435555555555545,0)" xlink:href="#D"/><use transform="matrix(0.031111111111111103,0,0,0.031111111111111103,59.951111111111096,0)" xlink:href="#O"/><use transform="matrix(0.031111111111111103,0,0,0.031111111111111103,74.54222222222221,0)" xlink:href="#V"/><use transform="matrix(0.031111111111111103,0,0,0.031111111111111103,87.17333333333332,0)" xlink:href="#N"/><use transform="matrix(0.031111111111111103,0,0,0.031111111111111103,95.16888888888887,0)" xlink:href="#E"/><use transform="matrix(0.031111111111111103,0,0,0.031111111111111103,110.47555555555553,0)" xlink:href="#D"/></g></defs></g></svg>