<svg width="459" height="198" viewBox="0 0 459 198" fill="none" xmlns="http://www.w3.org/2000/svg">
<rect x="7" y="55.6238" width="86" height="89.5743" rx="4" stroke="#0C8CE9"/>
<path d="M40.5407 175.15C40.054 175.15 39.6107 175.07 39.2107 174.91C38.8107 174.75 38.4674 174.517 38.1807 174.21C37.894 173.903 37.6707 173.527 37.5107 173.08C37.3574 172.627 37.2807 172.11 37.2807 171.53C37.2807 170.95 37.3674 170.437 37.5407 169.99C37.7207 169.537 37.9607 169.157 38.2607 168.85C38.5607 168.543 38.9107 168.31 39.3107 168.15C39.7107 167.99 40.1374 167.91 40.5907 167.91C40.8774 167.91 41.134 167.93 41.3607 167.97C41.594 168.01 41.794 168.057 41.9607 168.11C42.134 168.163 42.274 168.217 42.3807 168.27C42.4874 168.323 42.5607 168.363 42.6007 168.39L42.3207 169.19C42.2607 169.15 42.174 169.107 42.0607 169.06C41.9474 169.013 41.8174 168.967 41.6707 168.92C41.5307 168.873 41.374 168.837 41.2007 168.81C41.034 168.777 40.864 168.76 40.6907 168.76C40.324 168.76 39.994 168.823 39.7007 168.95C39.4074 169.077 39.1574 169.26 38.9507 169.5C38.744 169.74 38.584 170.033 38.4707 170.38C38.364 170.72 38.3107 171.103 38.3107 171.53C38.3107 171.943 38.3574 172.32 38.4507 172.66C38.5507 173 38.6974 173.293 38.8907 173.54C39.084 173.78 39.324 173.967 39.6107 174.1C39.904 174.233 40.244 174.3 40.6307 174.3C41.0774 174.3 41.4474 174.253 41.7407 174.16C42.034 174.067 42.254 173.983 42.4007 173.91L42.6507 174.71C42.604 174.743 42.5207 174.787 42.4007 174.84C42.2807 174.887 42.1307 174.933 41.9507 174.98C41.7707 175.027 41.5607 175.067 41.3207 175.1C41.0807 175.133 40.8207 175.15 40.5407 175.15ZM45.2619 175.1C44.6885 175.087 44.2819 174.963 44.0419 174.73C43.8019 174.497 43.6819 174.133 43.6819 173.64V167.4L44.6119 167.24V173.49C44.6119 173.643 44.6252 173.77 44.6519 173.87C44.6785 173.97 44.7219 174.05 44.7819 174.11C44.8419 174.17 44.9219 174.217 45.0219 174.25C45.1219 174.277 45.2452 174.3 45.3919 174.32L45.2619 175.1ZM47.3663 175H46.4363V169.8H47.3663V175ZM46.8963 168.86C46.7296 168.86 46.5863 168.807 46.4663 168.7C46.3529 168.587 46.2963 168.437 46.2963 168.25C46.2963 168.063 46.3529 167.917 46.4663 167.81C46.5863 167.697 46.7296 167.64 46.8963 167.64C47.0629 167.64 47.2029 167.697 47.3163 167.81C47.4363 167.917 47.4963 168.063 47.4963 168.25C47.4963 168.437 47.4363 168.587 47.3163 168.7C47.2029 168.807 47.0629 168.86 46.8963 168.86ZM48.6756 172.41C48.6756 171.95 48.7422 171.55 48.8756 171.21C49.0089 170.863 49.1856 170.577 49.4056 170.35C49.6256 170.123 49.8789 169.953 50.1656 169.84C50.4522 169.727 50.7456 169.67 51.0456 169.67C51.7456 169.67 52.2822 169.89 52.6556 170.33C53.0289 170.763 53.2156 171.427 53.2156 172.32C53.2156 172.36 53.2156 172.413 53.2156 172.48C53.2156 172.54 53.2122 172.597 53.2056 172.65H49.6456C49.6856 173.19 49.8422 173.6 50.1156 173.88C50.3889 174.16 50.8156 174.3 51.3956 174.3C51.7222 174.3 51.9956 174.273 52.2156 174.22C52.4422 174.16 52.6122 174.103 52.7256 174.05L52.8556 174.83C52.7422 174.89 52.5422 174.953 52.2556 175.02C51.9756 175.087 51.6556 175.12 51.2956 175.12C50.8422 175.12 50.4489 175.053 50.1156 174.92C49.7889 174.78 49.5189 174.59 49.3056 174.35C49.0922 174.11 48.9322 173.827 48.8256 173.5C48.7256 173.167 48.6756 172.803 48.6756 172.41ZM52.2456 171.9C52.2522 171.48 52.1456 171.137 51.9256 170.87C51.7122 170.597 51.4156 170.46 51.0356 170.46C50.8222 170.46 50.6322 170.503 50.4656 170.59C50.3056 170.67 50.1689 170.777 50.0556 170.91C49.9422 171.043 49.8522 171.197 49.7856 171.37C49.7256 171.543 49.6856 171.72 49.6656 171.9H52.2456ZM54.5515 169.95C54.7648 169.897 55.0482 169.84 55.4015 169.78C55.7548 169.72 56.1615 169.69 56.6215 169.69C57.0348 169.69 57.3782 169.75 57.6515 169.87C57.9248 169.983 58.1415 170.147 58.3015 170.36C58.4682 170.567 58.5848 170.817 58.6515 171.11C58.7182 171.403 58.7515 171.727 58.7515 172.08V175H57.8215V172.28C57.8215 171.96 57.7982 171.687 57.7515 171.46C57.7115 171.233 57.6415 171.05 57.5415 170.91C57.4415 170.77 57.3082 170.67 57.1415 170.61C56.9748 170.543 56.7682 170.51 56.5215 170.51C56.4215 170.51 56.3182 170.513 56.2115 170.52C56.1048 170.527 56.0015 170.537 55.9015 170.55C55.8082 170.557 55.7215 170.567 55.6415 170.58C55.5682 170.593 55.5148 170.603 55.4815 170.61V175H54.5515V169.95ZM61.1637 169.8H63.1337V170.58H61.1637V172.98C61.1637 173.24 61.1837 173.457 61.2237 173.63C61.2637 173.797 61.3237 173.93 61.4037 174.03C61.4837 174.123 61.5837 174.19 61.7037 174.23C61.8237 174.27 61.9637 174.29 62.1237 174.29C62.4037 174.29 62.627 174.26 62.7937 174.2C62.967 174.133 63.087 174.087 63.1537 174.06L63.3337 174.83C63.2403 174.877 63.077 174.933 62.8437 175C62.6103 175.073 62.3437 175.11 62.0437 175.11C61.6903 175.11 61.397 175.067 61.1637 174.98C60.937 174.887 60.7537 174.75 60.6137 174.57C60.4737 174.39 60.3737 174.17 60.3137 173.91C60.2603 173.643 60.2337 173.337 60.2337 172.99V168.35L61.1637 168.19V169.8Z" fill="black"/>
<path d="M4.72691 12.6C5.93491 12.6 6.85891 12.82 7.49891 13.26C8.14691 13.7 8.47091 14.388 8.47091 15.324C8.47091 15.812 8.38291 16.232 8.20691 16.584C8.03891 16.928 7.79091 17.212 7.46291 17.436C7.13491 17.652 6.73491 17.812 6.26291 17.916C5.79091 18.02 5.25091 18.072 4.64291 18.072H3.88691V21H2.37491V12.804C2.72691 12.724 3.11491 12.672 3.53891 12.648C3.97091 12.616 4.36691 12.6 4.72691 12.6ZM4.83491 13.908C4.45091 13.908 4.13491 13.92 3.88691 13.944V16.776H4.61891C5.34691 16.776 5.90691 16.676 6.29891 16.476C6.69091 16.268 6.88691 15.88 6.88691 15.312C6.88691 15.04 6.83491 14.812 6.73091 14.628C6.62691 14.444 6.48291 14.3 6.29891 14.196C6.11491 14.092 5.89491 14.02 5.63891 13.98C5.39091 13.932 5.12291 13.908 4.83491 13.908ZM13.3555 16.032C13.2355 15.992 13.0675 15.952 12.8515 15.912C12.6435 15.864 12.3995 15.84 12.1195 15.84C11.9595 15.84 11.7875 15.856 11.6035 15.888C11.4275 15.92 11.3035 15.948 11.2315 15.972V21H9.77947V15.024C10.0595 14.92 10.4075 14.824 10.8235 14.736C11.2475 14.64 11.7155 14.592 12.2275 14.592C12.3235 14.592 12.4355 14.6 12.5635 14.616C12.6915 14.624 12.8195 14.64 12.9475 14.664C13.0755 14.68 13.1995 14.704 13.3195 14.736C13.4395 14.76 13.5355 14.784 13.6075 14.808L13.3555 16.032ZM14.2713 17.892C14.2713 17.34 14.3513 16.856 14.5113 16.44C14.6793 16.024 14.8993 15.68 15.1713 15.408C15.4433 15.128 15.7553 14.92 16.1073 14.784C16.4593 14.64 16.8193 14.568 17.1873 14.568C18.0513 14.568 18.7233 14.836 19.2033 15.372C19.6913 15.908 19.9353 16.708 19.9353 17.772C19.9353 17.852 19.9313 17.944 19.9233 18.048C19.9233 18.144 19.9193 18.232 19.9113 18.312H15.7713C15.8113 18.816 15.9873 19.208 16.2993 19.488C16.6193 19.76 17.0793 19.896 17.6793 19.896C18.0313 19.896 18.3513 19.864 18.6393 19.8C18.9353 19.736 19.1673 19.668 19.3353 19.596L19.5273 20.784C19.4473 20.824 19.3353 20.868 19.1913 20.916C19.0553 20.956 18.8953 20.992 18.7113 21.024C18.5353 21.064 18.3433 21.096 18.1353 21.12C17.9273 21.144 17.7153 21.156 17.4993 21.156C16.9473 21.156 16.4673 21.076 16.0593 20.916C15.6513 20.748 15.3153 20.52 15.0513 20.232C14.7873 19.936 14.5913 19.592 14.4633 19.2C14.3353 18.8 14.2713 18.364 14.2713 17.892ZM18.4833 17.244C18.4833 17.044 18.4553 16.856 18.3993 16.68C18.3433 16.496 18.2593 16.34 18.1473 16.212C18.0433 16.076 17.9113 15.972 17.7513 15.9C17.5993 15.82 17.4153 15.78 17.1993 15.78C16.9753 15.78 16.7793 15.824 16.6113 15.912C16.4433 15.992 16.2993 16.1 16.1793 16.236C16.0673 16.372 15.9793 16.528 15.9153 16.704C15.8513 16.88 15.8073 17.06 15.7833 17.244H18.4833ZM23.0468 19.956C23.4308 19.956 23.7108 19.912 23.8868 19.824C24.0628 19.728 24.1508 19.568 24.1508 19.344C24.1508 19.136 24.0548 18.964 23.8628 18.828C23.6788 18.692 23.3708 18.544 22.9388 18.384C22.6748 18.288 22.4308 18.188 22.2068 18.084C21.9908 17.972 21.8028 17.844 21.6428 17.7C21.4828 17.556 21.3548 17.384 21.2588 17.184C21.1708 16.976 21.1268 16.724 21.1268 16.428C21.1268 15.852 21.3388 15.4 21.7628 15.072C22.1868 14.736 22.7628 14.568 23.4908 14.568C23.8588 14.568 24.2108 14.604 24.5468 14.676C24.8828 14.74 25.1348 14.804 25.3028 14.868L25.0388 16.044C24.8788 15.972 24.6748 15.908 24.4268 15.852C24.1788 15.788 23.8908 15.756 23.5628 15.756C23.2668 15.756 23.0268 15.808 22.8428 15.912C22.6588 16.008 22.5668 16.16 22.5668 16.368C22.5668 16.472 22.5828 16.564 22.6148 16.644C22.6548 16.724 22.7188 16.8 22.8068 16.872C22.8948 16.936 23.0108 17.004 23.1548 17.076C23.2988 17.14 23.4748 17.208 23.6828 17.28C24.0268 17.408 24.3188 17.536 24.5588 17.664C24.7988 17.784 24.9948 17.924 25.1468 18.084C25.3068 18.236 25.4228 18.412 25.4948 18.612C25.5668 18.812 25.6028 19.052 25.6028 19.332C25.6028 19.932 25.3788 20.388 24.9308 20.7C24.4908 21.004 23.8588 21.156 23.0348 21.156C22.4828 21.156 22.0388 21.108 21.7028 21.012C21.3668 20.924 21.1308 20.852 20.9948 20.796L21.2468 19.584C21.4628 19.672 21.7188 19.756 22.0148 19.836C22.3188 19.916 22.6628 19.956 23.0468 19.956ZM26.6112 17.892C26.6112 17.34 26.6912 16.856 26.8512 16.44C27.0192 16.024 27.2392 15.68 27.5112 15.408C27.7832 15.128 28.0952 14.92 28.4472 14.784C28.7992 14.64 29.1592 14.568 29.5272 14.568C30.3912 14.568 31.0632 14.836 31.5432 15.372C32.0312 15.908 32.2752 16.708 32.2752 17.772C32.2752 17.852 32.2712 17.944 32.2632 18.048C32.2632 18.144 32.2592 18.232 32.2512 18.312H28.1112C28.1512 18.816 28.3272 19.208 28.6392 19.488C28.9592 19.76 29.4192 19.896 30.0192 19.896C30.3712 19.896 30.6912 19.864 30.9792 19.8C31.2752 19.736 31.5072 19.668 31.6752 19.596L31.8672 20.784C31.7872 20.824 31.6752 20.868 31.5312 20.916C31.3952 20.956 31.2352 20.992 31.0512 21.024C30.8752 21.064 30.6832 21.096 30.4752 21.12C30.2672 21.144 30.0552 21.156 29.8392 21.156C29.2872 21.156 28.8072 21.076 28.3992 20.916C27.9912 20.748 27.6552 20.52 27.3912 20.232C27.1272 19.936 26.9312 19.592 26.8032 19.2C26.6752 18.8 26.6112 18.364 26.6112 17.892ZM30.8232 17.244C30.8232 17.044 30.7952 16.856 30.7392 16.68C30.6832 16.496 30.5992 16.34 30.4872 16.212C30.3832 16.076 30.2512 15.972 30.0912 15.9C29.9392 15.82 29.7552 15.78 29.5392 15.78C29.3152 15.78 29.1192 15.824 28.9512 15.912C28.7832 15.992 28.6392 16.1 28.5192 16.236C28.4072 16.372 28.3192 16.528 28.2552 16.704C28.1912 16.88 28.1472 17.06 28.1232 17.244H30.8232ZM33.8146 14.928C34.0946 14.848 34.4586 14.772 34.9066 14.7C35.3546 14.628 35.8506 14.592 36.3946 14.592C36.9066 14.592 37.3346 14.664 37.6786 14.808C38.0226 14.944 38.2946 15.14 38.4946 15.396C38.7026 15.644 38.8466 15.948 38.9266 16.308C39.0146 16.66 39.0586 17.048 39.0586 17.472V21H37.6066V17.7C37.6066 17.364 37.5826 17.08 37.5346 16.848C37.4946 16.608 37.4226 16.416 37.3186 16.272C37.2226 16.12 37.0866 16.012 36.9106 15.948C36.7426 15.876 36.5346 15.84 36.2866 15.84C36.1026 15.84 35.9106 15.852 35.7106 15.876C35.5106 15.9 35.3626 15.92 35.2666 15.936V21H33.8146V14.928ZM40.7622 13.068L42.2142 12.828V14.724H44.4462V15.936H42.2142V18.492C42.2142 18.996 42.2942 19.356 42.4542 19.572C42.6142 19.788 42.8862 19.896 43.2702 19.896C43.5342 19.896 43.7662 19.868 43.9662 19.812C44.1742 19.756 44.3382 19.704 44.4582 19.656L44.6982 20.808C44.5302 20.88 44.3102 20.952 44.0382 21.024C43.7662 21.104 43.4462 21.144 43.0782 21.144C42.6302 21.144 42.2542 21.084 41.9502 20.964C41.6542 20.844 41.4182 20.672 41.2422 20.448C41.0662 20.216 40.9422 19.94 40.8702 19.62C40.7982 19.292 40.7622 18.92 40.7622 18.504V13.068ZM48.0578 19.98C48.5058 19.98 48.8458 19.956 49.0778 19.908V18.3C48.9978 18.276 48.8818 18.252 48.7298 18.228C48.5778 18.204 48.4098 18.192 48.2258 18.192C48.0658 18.192 47.9018 18.204 47.7338 18.228C47.5738 18.252 47.4258 18.296 47.2898 18.36C47.1618 18.424 47.0578 18.516 46.9778 18.636C46.8978 18.748 46.8578 18.892 46.8578 19.068C46.8578 19.412 46.9658 19.652 47.1818 19.788C47.3978 19.916 47.6898 19.98 48.0578 19.98ZM47.9378 14.568C48.4178 14.568 48.8218 14.628 49.1498 14.748C49.4778 14.868 49.7378 15.036 49.9298 15.252C50.1298 15.468 50.2698 15.732 50.3498 16.044C50.4378 16.348 50.4818 16.684 50.4818 17.052V20.856C50.2578 20.904 49.9178 20.96 49.4618 21.024C49.0138 21.096 48.5058 21.132 47.9378 21.132C47.5618 21.132 47.2178 21.096 46.9058 21.024C46.5938 20.952 46.3258 20.836 46.1018 20.676C45.8858 20.516 45.7138 20.308 45.5858 20.052C45.4658 19.796 45.4058 19.48 45.4058 19.104C45.4058 18.744 45.4738 18.44 45.6098 18.192C45.7538 17.944 45.9458 17.744 46.1858 17.592C46.4258 17.432 46.7018 17.32 47.0138 17.256C47.3338 17.184 47.6658 17.148 48.0098 17.148C48.1698 17.148 48.3378 17.16 48.5138 17.184C48.6898 17.2 48.8778 17.232 49.0778 17.28V17.04C49.0778 16.872 49.0578 16.712 49.0178 16.56C48.9778 16.408 48.9058 16.276 48.8018 16.164C48.7058 16.044 48.5738 15.952 48.4058 15.888C48.2458 15.824 48.0418 15.792 47.7938 15.792C47.4578 15.792 47.1498 15.816 46.8698 15.864C46.5898 15.912 46.3618 15.968 46.1858 16.032L46.0058 14.856C46.1898 14.792 46.4578 14.728 46.8098 14.664C47.1618 14.6 47.5378 14.568 47.9378 14.568ZM52.1879 13.068L53.6399 12.828V14.724H55.8719V15.936H53.6399V18.492C53.6399 18.996 53.7199 19.356 53.8799 19.572C54.0399 19.788 54.3119 19.896 54.6959 19.896C54.9599 19.896 55.1919 19.868 55.3919 19.812C55.5999 19.756 55.7639 19.704 55.8839 19.656L56.1239 20.808C55.9559 20.88 55.7359 20.952 55.4639 21.024C55.1919 21.104 54.8719 21.144 54.5039 21.144C54.0559 21.144 53.6799 21.084 53.3759 20.964C53.0799 20.844 52.8439 20.672 52.6679 20.448C52.4919 20.216 52.3679 19.94 52.2959 19.62C52.2239 19.292 52.1879 18.92 52.1879 18.504V13.068ZM58.7396 21H57.2876V14.724H58.7396V21ZM58.8956 12.888C58.8956 13.16 58.8076 13.376 58.6316 13.536C58.4556 13.696 58.2476 13.776 58.0076 13.776C57.7596 13.776 57.5476 13.696 57.3716 13.536C57.1956 13.376 57.1076 13.16 57.1076 12.888C57.1076 12.608 57.1956 12.388 57.3716 12.228C57.5476 12.068 57.7596 11.988 58.0076 11.988C58.2476 11.988 58.4556 12.068 58.6316 12.228C58.8076 12.388 58.8956 12.608 58.8956 12.888ZM66.268 17.856C66.268 18.352 66.196 18.804 66.052 19.212C65.908 19.62 65.704 19.968 65.44 20.256C65.176 20.544 64.856 20.768 64.48 20.928C64.112 21.088 63.704 21.168 63.256 21.168C62.808 21.168 62.4 21.088 62.032 20.928C61.664 20.768 61.348 20.544 61.084 20.256C60.82 19.968 60.612 19.62 60.46 19.212C60.316 18.804 60.244 18.352 60.244 17.856C60.244 17.36 60.316 16.912 60.46 16.512C60.612 16.104 60.82 15.756 61.084 15.468C61.356 15.18 61.676 14.96 62.044 14.808C62.412 14.648 62.816 14.568 63.256 14.568C63.696 14.568 64.1 14.648 64.468 14.808C64.844 14.96 65.164 15.18 65.428 15.468C65.692 15.756 65.896 16.104 66.04 16.512C66.192 16.912 66.268 17.36 66.268 17.856ZM64.78 17.856C64.78 17.232 64.644 16.74 64.372 16.38C64.108 16.012 63.736 15.828 63.256 15.828C62.776 15.828 62.4 16.012 62.128 16.38C61.864 16.74 61.732 17.232 61.732 17.856C61.732 18.488 61.864 18.988 62.128 19.356C62.4 19.724 62.776 19.908 63.256 19.908C63.736 19.908 64.108 19.724 64.372 19.356C64.644 18.988 64.78 18.488 64.78 17.856ZM67.7638 14.928C68.0438 14.848 68.4078 14.772 68.8558 14.7C69.3038 14.628 69.7998 14.592 70.3438 14.592C70.8558 14.592 71.2838 14.664 71.6278 14.808C71.9718 14.944 72.2438 15.14 72.4438 15.396C72.6518 15.644 72.7958 15.948 72.8758 16.308C72.9638 16.66 73.0078 17.048 73.0078 17.472V21H71.5558V17.7C71.5558 17.364 71.5318 17.08 71.4838 16.848C71.4438 16.608 71.3718 16.416 71.2678 16.272C71.1718 16.12 71.0358 16.012 70.8598 15.948C70.6918 15.876 70.4838 15.84 70.2358 15.84C70.0518 15.84 69.8598 15.852 69.6598 15.876C69.4598 15.9 69.3118 15.92 69.2158 15.936V21H67.7638V14.928ZM83.4522 12.684V13.992H80.8962V21H79.3722V13.992H76.8162V12.684H83.4522ZM85.9974 21H84.5454V14.724H85.9974V21ZM86.1534 12.888C86.1534 13.16 86.0654 13.376 85.8894 13.536C85.7134 13.696 85.5054 13.776 85.2654 13.776C85.0174 13.776 84.8054 13.696 84.6294 13.536C84.4534 13.376 84.3654 13.16 84.3654 12.888C84.3654 12.608 84.4534 12.388 84.6294 12.228C84.8054 12.068 85.0174 11.988 85.2654 11.988C85.5054 11.988 85.7134 12.068 85.8894 12.228C86.0654 12.388 86.1534 12.608 86.1534 12.888ZM87.5018 17.892C87.5018 17.34 87.5818 16.856 87.7418 16.44C87.9098 16.024 88.1298 15.68 88.4018 15.408C88.6738 15.128 88.9858 14.92 89.3378 14.784C89.6898 14.64 90.0498 14.568 90.4178 14.568C91.2818 14.568 91.9538 14.836 92.4338 15.372C92.9218 15.908 93.1658 16.708 93.1658 17.772C93.1658 17.852 93.1618 17.944 93.1538 18.048C93.1538 18.144 93.1498 18.232 93.1418 18.312H89.0018C89.0418 18.816 89.2178 19.208 89.5298 19.488C89.8498 19.76 90.3098 19.896 90.9098 19.896C91.2618 19.896 91.5818 19.864 91.8698 19.8C92.1658 19.736 92.3978 19.668 92.5658 19.596L92.7578 20.784C92.6778 20.824 92.5658 20.868 92.4218 20.916C92.2858 20.956 92.1258 20.992 91.9418 21.024C91.7658 21.064 91.5738 21.096 91.3658 21.12C91.1578 21.144 90.9458 21.156 90.7298 21.156C90.1778 21.156 89.6978 21.076 89.2898 20.916C88.8818 20.748 88.5458 20.52 88.2818 20.232C88.0178 19.936 87.8218 19.592 87.6938 19.2C87.5658 18.8 87.5018 18.364 87.5018 17.892ZM91.7138 17.244C91.7138 17.044 91.6858 16.856 91.6298 16.68C91.5738 16.496 91.4898 16.34 91.3778 16.212C91.2738 16.076 91.1418 15.972 90.9818 15.9C90.8298 15.82 90.6458 15.78 90.4298 15.78C90.2058 15.78 90.0098 15.824 89.8418 15.912C89.6738 15.992 89.5298 16.1 89.4098 16.236C89.2978 16.372 89.2098 16.528 89.1458 16.704C89.0818 16.88 89.0378 17.06 89.0138 17.244H91.7138ZM98.2813 16.032C98.1613 15.992 97.9933 15.952 97.7773 15.912C97.5693 15.864 97.3253 15.84 97.0453 15.84C96.8853 15.84 96.7133 15.856 96.5293 15.888C96.3533 15.92 96.2293 15.948 96.1573 15.972V21H94.7053V15.024C94.9853 14.92 95.3333 14.824 95.7493 14.736C96.1733 14.64 96.6413 14.592 97.1533 14.592C97.2493 14.592 97.3613 14.6 97.4893 14.616C97.6173 14.624 97.7453 14.64 97.8733 14.664C98.0013 14.68 98.1253 14.704 98.2453 14.736C98.3653 14.76 98.4613 14.784 98.5333 14.808L98.2813 16.032Z" fill="#0C8CE9" fill-opacity="0.8"/>
<path d="M401.519 171.53C401.519 172.13 401.425 172.653 401.239 173.1C401.052 173.54 400.789 173.907 400.449 174.2C400.109 174.487 399.702 174.703 399.229 174.85C398.755 174.99 398.235 175.06 397.669 175.06C397.389 175.06 397.079 175.047 396.739 175.02C396.405 175 396.102 174.957 395.829 174.89V168.17C396.102 168.103 396.405 168.06 396.739 168.04C397.079 168.013 397.389 168 397.669 168C398.235 168 398.755 168.073 399.229 168.22C399.702 168.36 400.109 168.577 400.449 168.87C400.789 169.157 401.052 169.523 401.239 169.97C401.425 170.41 401.519 170.93 401.519 171.53ZM397.749 174.21C398.669 174.21 399.355 173.977 399.809 173.51C400.262 173.037 400.489 172.377 400.489 171.53C400.489 170.683 400.262 170.027 399.809 169.56C399.355 169.087 398.669 168.85 397.749 168.85C397.475 168.85 397.262 168.853 397.109 168.86C396.962 168.867 396.859 168.873 396.799 168.88V174.18C396.859 174.187 396.962 174.193 397.109 174.2C397.262 174.207 397.475 174.21 397.749 174.21ZM404.521 174.33C404.741 174.33 404.934 174.327 405.101 174.32C405.274 174.307 405.418 174.287 405.531 174.26V172.71C405.464 172.677 405.354 172.65 405.201 172.63C405.054 172.603 404.874 172.59 404.661 172.59C404.521 172.59 404.371 172.6 404.211 172.62C404.058 172.64 403.914 172.683 403.781 172.75C403.654 172.81 403.548 172.897 403.461 173.01C403.374 173.117 403.331 173.26 403.331 173.44C403.331 173.773 403.438 174.007 403.651 174.14C403.864 174.267 404.154 174.33 404.521 174.33ZM404.441 169.67C404.814 169.67 405.128 169.72 405.381 169.82C405.641 169.913 405.848 170.05 406.001 170.23C406.161 170.403 406.274 170.613 406.341 170.86C406.408 171.1 406.441 171.367 406.441 171.66V174.91C406.361 174.923 406.248 174.943 406.101 174.97C405.961 174.99 405.801 175.01 405.621 175.03C405.441 175.05 405.244 175.067 405.031 175.08C404.824 175.1 404.618 175.11 404.411 175.11C404.118 175.11 403.848 175.08 403.601 175.02C403.354 174.96 403.141 174.867 402.961 174.74C402.781 174.607 402.641 174.433 402.541 174.22C402.441 174.007 402.391 173.75 402.391 173.45C402.391 173.163 402.448 172.917 402.561 172.71C402.681 172.503 402.841 172.337 403.041 172.21C403.241 172.083 403.474 171.99 403.741 171.93C404.008 171.87 404.288 171.84 404.581 171.84C404.674 171.84 404.771 171.847 404.871 171.86C404.971 171.867 405.064 171.88 405.151 171.9C405.244 171.913 405.324 171.927 405.391 171.94C405.458 171.953 405.504 171.963 405.531 171.97V171.71C405.531 171.557 405.514 171.407 405.481 171.26C405.448 171.107 405.388 170.973 405.301 170.86C405.214 170.74 405.094 170.647 404.941 170.58C404.794 170.507 404.601 170.47 404.361 170.47C404.054 170.47 403.784 170.493 403.551 170.54C403.324 170.58 403.154 170.623 403.041 170.67L402.931 169.9C403.051 169.847 403.251 169.797 403.531 169.75C403.811 169.697 404.114 169.67 404.441 169.67ZM408.855 169.8H410.825V170.58H408.855V172.98C408.855 173.24 408.875 173.457 408.915 173.63C408.955 173.797 409.015 173.93 409.095 174.03C409.175 174.123 409.275 174.19 409.395 174.23C409.515 174.27 409.655 174.29 409.815 174.29C410.095 174.29 410.319 174.26 410.485 174.2C410.659 174.133 410.779 174.087 410.845 174.06L411.025 174.83C410.932 174.877 410.769 174.933 410.535 175C410.302 175.073 410.035 175.11 409.735 175.11C409.382 175.11 409.089 175.067 408.855 174.98C408.629 174.887 408.445 174.75 408.305 174.57C408.165 174.39 408.065 174.17 408.005 173.91C407.952 173.643 407.925 173.337 407.925 172.99V168.35L408.855 168.19V169.8ZM413.769 174.33C413.989 174.33 414.182 174.327 414.349 174.32C414.522 174.307 414.666 174.287 414.779 174.26V172.71C414.712 172.677 414.602 172.65 414.449 172.63C414.302 172.603 414.122 172.59 413.909 172.59C413.769 172.59 413.619 172.6 413.459 172.62C413.306 172.64 413.162 172.683 413.029 172.75C412.902 172.81 412.796 172.897 412.709 173.01C412.622 173.117 412.579 173.26 412.579 173.44C412.579 173.773 412.686 174.007 412.899 174.14C413.112 174.267 413.402 174.33 413.769 174.33ZM413.689 169.67C414.062 169.67 414.376 169.72 414.629 169.82C414.889 169.913 415.096 170.05 415.249 170.23C415.409 170.403 415.522 170.613 415.589 170.86C415.656 171.1 415.689 171.367 415.689 171.66V174.91C415.609 174.923 415.496 174.943 415.349 174.97C415.209 174.99 415.049 175.01 414.869 175.03C414.689 175.05 414.492 175.067 414.279 175.08C414.072 175.1 413.866 175.11 413.659 175.11C413.366 175.11 413.096 175.08 412.849 175.02C412.602 174.96 412.389 174.867 412.209 174.74C412.029 174.607 411.889 174.433 411.789 174.22C411.689 174.007 411.639 173.75 411.639 173.45C411.639 173.163 411.696 172.917 411.809 172.71C411.929 172.503 412.089 172.337 412.289 172.21C412.489 172.083 412.722 171.99 412.989 171.93C413.256 171.87 413.536 171.84 413.829 171.84C413.922 171.84 414.019 171.847 414.119 171.86C414.219 171.867 414.312 171.88 414.399 171.9C414.492 171.913 414.572 171.927 414.639 171.94C414.706 171.953 414.752 171.963 414.779 171.97V171.71C414.779 171.557 414.762 171.407 414.729 171.26C414.696 171.107 414.636 170.973 414.549 170.86C414.462 170.74 414.342 170.647 414.189 170.58C414.042 170.507 413.849 170.47 413.609 170.47C413.302 170.47 413.032 170.493 412.799 170.54C412.572 170.58 412.402 170.623 412.289 170.67L412.179 169.9C412.299 169.847 412.499 169.797 412.779 169.75C413.059 169.697 413.362 169.67 413.689 169.67ZM418.164 170.03C418.277 169.957 418.447 169.88 418.674 169.8C418.907 169.72 419.174 169.68 419.474 169.68C419.847 169.68 420.177 169.747 420.464 169.88C420.757 170.013 421.004 170.2 421.204 170.44C421.404 170.68 421.554 170.967 421.654 171.3C421.76 171.633 421.814 172 421.814 172.4C421.814 172.82 421.75 173.2 421.624 173.54C421.504 173.873 421.33 174.157 421.104 174.39C420.877 174.623 420.604 174.803 420.284 174.93C419.964 175.057 419.604 175.12 419.204 175.12C418.77 175.12 418.387 175.09 418.054 175.03C417.72 174.97 417.447 174.91 417.234 174.85V167.4L418.164 167.24V170.03ZM418.164 174.19C418.257 174.217 418.387 174.243 418.554 174.27C418.727 174.29 418.94 174.3 419.194 174.3C419.694 174.3 420.094 174.137 420.394 173.81C420.694 173.477 420.844 173.007 420.844 172.4C420.844 172.133 420.817 171.883 420.764 171.65C420.71 171.417 420.624 171.217 420.504 171.05C420.384 170.877 420.227 170.743 420.034 170.65C419.847 170.55 419.62 170.5 419.354 170.5C419.1 170.5 418.867 170.543 418.654 170.63C418.44 170.717 418.277 170.807 418.164 170.9V174.19ZM424.882 174.33C425.102 174.33 425.296 174.327 425.462 174.32C425.636 174.307 425.779 174.287 425.892 174.26V172.71C425.826 172.677 425.716 172.65 425.562 172.63C425.416 172.603 425.236 172.59 425.022 172.59C424.882 172.59 424.732 172.6 424.572 172.62C424.419 172.64 424.276 172.683 424.142 172.75C424.016 172.81 423.909 172.897 423.822 173.01C423.736 173.117 423.692 173.26 423.692 173.44C423.692 173.773 423.799 174.007 424.012 174.14C424.226 174.267 424.516 174.33 424.882 174.33ZM424.802 169.67C425.176 169.67 425.489 169.72 425.742 169.82C426.002 169.913 426.209 170.05 426.362 170.23C426.522 170.403 426.636 170.613 426.702 170.86C426.769 171.1 426.802 171.367 426.802 171.66V174.91C426.722 174.923 426.609 174.943 426.462 174.97C426.322 174.99 426.162 175.01 425.982 175.03C425.802 175.05 425.606 175.067 425.392 175.08C425.186 175.1 424.979 175.11 424.772 175.11C424.479 175.11 424.209 175.08 423.962 175.02C423.716 174.96 423.502 174.867 423.322 174.74C423.142 174.607 423.002 174.433 422.902 174.22C422.802 174.007 422.752 173.75 422.752 173.45C422.752 173.163 422.809 172.917 422.922 172.71C423.042 172.503 423.202 172.337 423.402 172.21C423.602 172.083 423.836 171.99 424.102 171.93C424.369 171.87 424.649 171.84 424.942 171.84C425.036 171.84 425.132 171.847 425.232 171.86C425.332 171.867 425.426 171.88 425.512 171.9C425.606 171.913 425.686 171.927 425.752 171.94C425.819 171.953 425.866 171.963 425.892 171.97V171.71C425.892 171.557 425.876 171.407 425.842 171.26C425.809 171.107 425.749 170.973 425.662 170.86C425.576 170.74 425.456 170.647 425.302 170.58C425.156 170.507 424.962 170.47 424.722 170.47C424.416 170.47 424.146 170.493 423.912 170.54C423.686 170.58 423.516 170.623 423.402 170.67L423.292 169.9C423.412 169.847 423.612 169.797 423.892 169.75C424.172 169.697 424.476 169.67 424.802 169.67ZM429.557 174.33C429.937 174.33 430.217 174.28 430.397 174.18C430.583 174.08 430.677 173.92 430.677 173.7C430.677 173.473 430.587 173.293 430.407 173.16C430.227 173.027 429.93 172.877 429.517 172.71C429.317 172.63 429.123 172.55 428.937 172.47C428.757 172.383 428.6 172.283 428.467 172.17C428.333 172.057 428.227 171.92 428.147 171.76C428.067 171.6 428.027 171.403 428.027 171.17C428.027 170.71 428.197 170.347 428.537 170.08C428.877 169.807 429.34 169.67 429.927 169.67C430.073 169.67 430.22 169.68 430.367 169.7C430.513 169.713 430.65 169.733 430.777 169.76C430.903 169.78 431.013 169.803 431.107 169.83C431.207 169.857 431.283 169.88 431.337 169.9L431.167 170.7C431.067 170.647 430.91 170.593 430.697 170.54C430.483 170.48 430.227 170.45 429.927 170.45C429.667 170.45 429.44 170.503 429.247 170.61C429.053 170.71 428.957 170.87 428.957 171.09C428.957 171.203 428.977 171.303 429.017 171.39C429.063 171.477 429.13 171.557 429.217 171.63C429.31 171.697 429.423 171.76 429.557 171.82C429.69 171.88 429.85 171.943 430.037 172.01C430.283 172.103 430.503 172.197 430.697 172.29C430.89 172.377 431.053 172.48 431.187 172.6C431.327 172.72 431.433 172.867 431.507 173.04C431.58 173.207 431.617 173.413 431.617 173.66C431.617 174.14 431.437 174.503 431.077 174.75C430.723 174.997 430.217 175.12 429.557 175.12C429.097 175.12 428.737 175.08 428.477 175C428.217 174.927 428.04 174.87 427.947 174.83L428.117 174.03C428.223 174.07 428.393 174.13 428.627 174.21C428.86 174.29 429.17 174.33 429.557 174.33ZM432.52 172.41C432.52 171.95 432.586 171.55 432.72 171.21C432.853 170.863 433.03 170.577 433.25 170.35C433.47 170.123 433.723 169.953 434.01 169.84C434.296 169.727 434.59 169.67 434.89 169.67C435.59 169.67 436.126 169.89 436.5 170.33C436.873 170.763 437.06 171.427 437.06 172.32C437.06 172.36 437.06 172.413 437.06 172.48C437.06 172.54 437.056 172.597 437.05 172.65H433.49C433.53 173.19 433.686 173.6 433.96 173.88C434.233 174.16 434.66 174.3 435.24 174.3C435.566 174.3 435.84 174.273 436.06 174.22C436.286 174.16 436.456 174.103 436.57 174.05L436.7 174.83C436.586 174.89 436.386 174.953 436.1 175.02C435.82 175.087 435.5 175.12 435.14 175.12C434.686 175.12 434.293 175.053 433.96 174.92C433.633 174.78 433.363 174.59 433.15 174.35C432.936 174.11 432.776 173.827 432.67 173.5C432.57 173.167 432.52 172.803 432.52 172.41ZM436.09 171.9C436.096 171.48 435.99 171.137 435.77 170.87C435.556 170.597 435.26 170.46 434.88 170.46C434.666 170.46 434.476 170.503 434.31 170.59C434.15 170.67 434.013 170.777 433.9 170.91C433.786 171.043 433.696 171.197 433.63 171.37C433.57 171.543 433.53 171.72 433.51 171.9H436.09Z" fill="black"/>
<path fill-rule="evenodd" clip-rule="evenodd" d="M374 67.2763C374 66.0709 374.974 64.7829 377.097 63.5105C379.188 62.257 382.247 61.1106 386.071 60.141C393.711 58.2037 404.292 57 415.999 57C427.706 57 438.287 58.2037 445.927 60.141C449.751 61.1106 452.81 62.257 454.901 63.5105C457.023 64.7829 457.998 66.0709 457.998 67.2763C457.998 68.4818 457.023 69.7698 454.901 71.0421C452.81 72.2957 449.751 73.4421 445.927 74.4117C438.287 76.349 427.706 77.5527 415.999 77.5527C404.292 77.5527 393.711 76.349 386.071 74.4117C382.247 73.4421 379.188 72.2957 377.097 71.0421C374.974 69.7698 374 68.4818 374 67.2763ZM376.583 71.8998C375.508 71.2557 374.622 70.5529 374 69.7937V133.73C374 134.936 374.974 136.224 377.097 137.496C379.188 138.75 382.247 139.896 386.071 140.866C393.711 142.803 404.292 144.007 415.999 144.007C427.706 144.007 438.287 142.803 445.927 140.866C449.751 139.896 452.81 138.75 454.901 137.496C456.859 136.322 457.84 135.135 457.98 134.011V69.815C457.359 70.5661 456.479 71.2617 455.415 71.8998C453.205 73.2249 450.04 74.4005 446.173 75.381C438.432 77.344 427.764 78.5527 415.999 78.5527C404.234 78.5527 393.566 77.344 385.825 75.381C381.958 74.4005 378.793 73.2249 376.583 71.8998ZM458.963 67.7543C458.986 67.5969 458.998 67.4375 458.998 67.2763C458.998 65.506 457.594 63.959 455.415 62.6529C453.205 61.3278 450.04 60.1522 446.173 59.1717C438.432 57.2087 427.764 56 415.999 56C404.234 56 393.566 57.2087 385.825 59.1717C381.958 60.1522 378.793 61.3278 376.583 62.6529C374.651 63.8108 373.329 65.1581 373.053 66.6825H373V67.2763V133.73V134.208H373.034C373.262 135.781 374.602 137.167 376.583 138.354C378.793 139.679 381.958 140.855 385.825 141.835C393.566 143.798 404.234 145.007 415.999 145.007C427.764 145.007 438.432 143.798 446.173 141.835C450.04 140.855 453.205 139.679 455.415 138.354C457.395 137.167 458.736 135.781 458.963 134.208H458.98V134.072C458.992 133.959 458.998 133.845 458.998 133.73H458.98V67.7543H458.963Z" fill="#0C8CE9"/>
<path d="M392.525 19.752C392.613 19.76 392.729 19.768 392.873 19.776C393.017 19.776 393.213 19.776 393.461 19.776C394.477 19.776 395.233 19.52 395.729 19.008C396.233 18.488 396.485 17.764 396.485 16.836C396.485 15.892 396.241 15.168 395.753 14.664C395.265 14.16 394.509 13.908 393.485 13.908C393.037 13.908 392.717 13.92 392.525 13.944V19.752ZM398.069 16.836C398.069 17.556 397.957 18.184 397.733 18.72C397.509 19.248 397.189 19.692 396.773 20.052C396.365 20.404 395.869 20.668 395.285 20.844C394.709 21.012 394.069 21.096 393.365 21.096C393.029 21.096 392.649 21.08 392.225 21.048C391.801 21.024 391.397 20.968 391.013 20.88V12.804C391.397 12.716 391.805 12.66 392.237 12.636C392.669 12.612 393.053 12.6 393.389 12.6C394.085 12.6 394.721 12.684 395.297 12.852C395.873 13.012 396.365 13.268 396.773 13.62C397.189 13.964 397.509 14.404 397.733 14.94C397.957 15.468 398.069 16.1 398.069 16.836ZM401.715 19.98C402.163 19.98 402.503 19.956 402.735 19.908V18.3C402.655 18.276 402.539 18.252 402.387 18.228C402.235 18.204 402.067 18.192 401.883 18.192C401.723 18.192 401.559 18.204 401.391 18.228C401.231 18.252 401.083 18.296 400.947 18.36C400.819 18.424 400.715 18.516 400.635 18.636C400.555 18.748 400.515 18.892 400.515 19.068C400.515 19.412 400.623 19.652 400.839 19.788C401.055 19.916 401.347 19.98 401.715 19.98ZM401.595 14.568C402.075 14.568 402.479 14.628 402.807 14.748C403.135 14.868 403.395 15.036 403.587 15.252C403.787 15.468 403.927 15.732 404.007 16.044C404.095 16.348 404.139 16.684 404.139 17.052V20.856C403.915 20.904 403.575 20.96 403.119 21.024C402.671 21.096 402.163 21.132 401.595 21.132C401.219 21.132 400.875 21.096 400.563 21.024C400.251 20.952 399.983 20.836 399.759 20.676C399.543 20.516 399.371 20.308 399.243 20.052C399.123 19.796 399.063 19.48 399.063 19.104C399.063 18.744 399.131 18.44 399.267 18.192C399.411 17.944 399.603 17.744 399.843 17.592C400.083 17.432 400.359 17.32 400.671 17.256C400.991 17.184 401.323 17.148 401.667 17.148C401.827 17.148 401.995 17.16 402.171 17.184C402.347 17.2 402.535 17.232 402.735 17.28V17.04C402.735 16.872 402.715 16.712 402.675 16.56C402.635 16.408 402.563 16.276 402.459 16.164C402.363 16.044 402.231 15.952 402.063 15.888C401.903 15.824 401.699 15.792 401.451 15.792C401.115 15.792 400.807 15.816 400.527 15.864C400.247 15.912 400.019 15.968 399.843 16.032L399.663 14.856C399.847 14.792 400.115 14.728 400.467 14.664C400.819 14.6 401.195 14.568 401.595 14.568ZM405.846 13.068L407.298 12.828V14.724H409.53V15.936H407.298V18.492C407.298 18.996 407.378 19.356 407.538 19.572C407.698 19.788 407.97 19.896 408.354 19.896C408.618 19.896 408.85 19.868 409.05 19.812C409.258 19.756 409.422 19.704 409.542 19.656L409.782 20.808C409.614 20.88 409.394 20.952 409.122 21.024C408.85 21.104 408.53 21.144 408.162 21.144C407.714 21.144 407.338 21.084 407.034 20.964C406.738 20.844 406.502 20.672 406.326 20.448C406.15 20.216 406.026 19.94 405.954 19.62C405.882 19.292 405.846 18.92 405.846 18.504V13.068ZM413.141 19.98C413.589 19.98 413.929 19.956 414.161 19.908V18.3C414.081 18.276 413.965 18.252 413.813 18.228C413.661 18.204 413.493 18.192 413.309 18.192C413.149 18.192 412.985 18.204 412.817 18.228C412.657 18.252 412.509 18.296 412.373 18.36C412.245 18.424 412.141 18.516 412.061 18.636C411.981 18.748 411.941 18.892 411.941 19.068C411.941 19.412 412.049 19.652 412.265 19.788C412.481 19.916 412.773 19.98 413.141 19.98ZM413.021 14.568C413.501 14.568 413.905 14.628 414.233 14.748C414.561 14.868 414.821 15.036 415.013 15.252C415.213 15.468 415.353 15.732 415.433 16.044C415.521 16.348 415.565 16.684 415.565 17.052V20.856C415.341 20.904 415.001 20.96 414.545 21.024C414.097 21.096 413.589 21.132 413.021 21.132C412.645 21.132 412.301 21.096 411.989 21.024C411.677 20.952 411.409 20.836 411.185 20.676C410.969 20.516 410.797 20.308 410.669 20.052C410.549 19.796 410.489 19.48 410.489 19.104C410.489 18.744 410.557 18.44 410.693 18.192C410.837 17.944 411.029 17.744 411.269 17.592C411.509 17.432 411.785 17.32 412.097 17.256C412.417 17.184 412.749 17.148 413.093 17.148C413.253 17.148 413.421 17.16 413.597 17.184C413.773 17.2 413.961 17.232 414.161 17.28V17.04C414.161 16.872 414.141 16.712 414.101 16.56C414.061 16.408 413.989 16.276 413.885 16.164C413.789 16.044 413.657 15.952 413.489 15.888C413.329 15.824 413.125 15.792 412.877 15.792C412.541 15.792 412.233 15.816 411.953 15.864C411.673 15.912 411.445 15.968 411.269 16.032L411.089 14.856C411.273 14.792 411.541 14.728 411.893 14.664C412.245 14.6 412.621 14.568 413.021 14.568ZM426.012 12.684V13.992H423.456V21H421.932V13.992H419.376V12.684H426.012ZM428.557 21H427.105V14.724H428.557V21ZM428.713 12.888C428.713 13.16 428.625 13.376 428.449 13.536C428.273 13.696 428.065 13.776 427.825 13.776C427.577 13.776 427.365 13.696 427.189 13.536C427.013 13.376 426.925 13.16 426.925 12.888C426.925 12.608 427.013 12.388 427.189 12.228C427.365 12.068 427.577 11.988 427.825 11.988C428.065 11.988 428.273 12.068 428.449 12.228C428.625 12.388 428.713 12.608 428.713 12.888ZM430.062 17.892C430.062 17.34 430.142 16.856 430.302 16.44C430.47 16.024 430.69 15.68 430.962 15.408C431.234 15.128 431.546 14.92 431.898 14.784C432.25 14.64 432.61 14.568 432.978 14.568C433.842 14.568 434.514 14.836 434.994 15.372C435.482 15.908 435.726 16.708 435.726 17.772C435.726 17.852 435.722 17.944 435.714 18.048C435.714 18.144 435.71 18.232 435.702 18.312H431.562C431.602 18.816 431.778 19.208 432.09 19.488C432.41 19.76 432.87 19.896 433.47 19.896C433.822 19.896 434.142 19.864 434.43 19.8C434.726 19.736 434.958 19.668 435.126 19.596L435.318 20.784C435.238 20.824 435.126 20.868 434.982 20.916C434.846 20.956 434.686 20.992 434.502 21.024C434.326 21.064 434.134 21.096 433.926 21.12C433.718 21.144 433.506 21.156 433.29 21.156C432.738 21.156 432.258 21.076 431.85 20.916C431.442 20.748 431.106 20.52 430.842 20.232C430.578 19.936 430.382 19.592 430.254 19.2C430.126 18.8 430.062 18.364 430.062 17.892ZM434.274 17.244C434.274 17.044 434.246 16.856 434.19 16.68C434.134 16.496 434.05 16.34 433.938 16.212C433.834 16.076 433.702 15.972 433.542 15.9C433.39 15.82 433.206 15.78 432.99 15.78C432.766 15.78 432.57 15.824 432.402 15.912C432.234 15.992 432.09 16.1 431.97 16.236C431.858 16.372 431.77 16.528 431.706 16.704C431.642 16.88 431.598 17.06 431.574 17.244H434.274ZM440.841 16.032C440.721 15.992 440.553 15.952 440.337 15.912C440.129 15.864 439.885 15.84 439.605 15.84C439.445 15.84 439.273 15.856 439.089 15.888C438.913 15.92 438.789 15.948 438.717 15.972V21H437.265V15.024C437.545 14.92 437.893 14.824 438.309 14.736C438.733 14.64 439.201 14.592 439.713 14.592C439.809 14.592 439.921 14.6 440.049 14.616C440.177 14.624 440.305 14.64 440.433 14.664C440.561 14.68 440.685 14.704 440.805 14.736C440.925 14.76 441.021 14.784 441.093 14.808L440.841 16.032Z" fill="#0C8CE9" fill-opacity="0.8"/>
<path d="M221.544 174.31C222.558 174.31 223.064 173.963 223.064 173.27C223.064 173.057 223.018 172.877 222.924 172.73C222.838 172.577 222.718 172.447 222.564 172.34C222.411 172.227 222.234 172.13 222.034 172.05C221.841 171.97 221.634 171.89 221.414 171.81C221.161 171.723 220.921 171.627 220.694 171.52C220.468 171.407 220.271 171.277 220.104 171.13C219.938 170.977 219.804 170.797 219.704 170.59C219.611 170.383 219.564 170.133 219.564 169.84C219.564 169.233 219.771 168.76 220.184 168.42C220.598 168.08 221.168 167.91 221.894 167.91C222.314 167.91 222.694 167.957 223.034 168.05C223.381 168.137 223.634 168.233 223.794 168.34L223.484 169.13C223.344 169.043 223.134 168.96 222.854 168.88C222.581 168.793 222.261 168.75 221.894 168.75C221.708 168.75 221.534 168.77 221.374 168.81C221.214 168.85 221.074 168.91 220.954 168.99C220.834 169.07 220.738 169.173 220.664 169.3C220.598 169.42 220.564 169.563 220.564 169.73C220.564 169.917 220.601 170.073 220.674 170.2C220.748 170.327 220.851 170.44 220.984 170.54C221.118 170.633 221.271 170.72 221.444 170.8C221.624 170.88 221.821 170.96 222.034 171.04C222.334 171.16 222.608 171.28 222.854 171.4C223.108 171.52 223.324 171.663 223.504 171.83C223.691 171.997 223.834 172.197 223.934 172.43C224.034 172.657 224.084 172.933 224.084 173.26C224.084 173.867 223.861 174.333 223.414 174.66C222.974 174.987 222.351 175.15 221.544 175.15C221.271 175.15 221.018 175.13 220.784 175.09C220.558 175.057 220.354 175.017 220.174 174.97C219.994 174.917 219.838 174.863 219.704 174.81C219.578 174.75 219.478 174.7 219.404 174.66L219.694 173.86C219.848 173.947 220.081 174.043 220.394 174.15C220.708 174.257 221.091 174.31 221.544 174.31ZM224.907 172.41C224.907 171.95 224.973 171.55 225.107 171.21C225.24 170.863 225.417 170.577 225.637 170.35C225.857 170.123 226.11 169.953 226.397 169.84C226.683 169.727 226.977 169.67 227.277 169.67C227.977 169.67 228.513 169.89 228.887 170.33C229.26 170.763 229.447 171.427 229.447 172.32C229.447 172.36 229.447 172.413 229.447 172.48C229.447 172.54 229.443 172.597 229.437 172.65H225.877C225.917 173.19 226.073 173.6 226.347 173.88C226.62 174.16 227.047 174.3 227.627 174.3C227.953 174.3 228.227 174.273 228.447 174.22C228.673 174.16 228.843 174.103 228.957 174.05L229.087 174.83C228.973 174.89 228.773 174.953 228.487 175.02C228.207 175.087 227.887 175.12 227.527 175.12C227.073 175.12 226.68 175.053 226.347 174.92C226.02 174.78 225.75 174.59 225.537 174.35C225.323 174.11 225.163 173.827 225.057 173.5C224.957 173.167 224.907 172.803 224.907 172.41ZM228.477 171.9C228.483 171.48 228.377 171.137 228.157 170.87C227.943 170.597 227.647 170.46 227.267 170.46C227.053 170.46 226.863 170.503 226.697 170.59C226.537 170.67 226.4 170.777 226.287 170.91C226.173 171.043 226.083 171.197 226.017 171.37C225.957 171.543 225.917 171.72 225.897 171.9H228.477ZM232.703 169.69C232.783 169.69 232.873 169.697 232.973 169.71C233.079 169.717 233.183 169.73 233.283 169.75C233.383 169.763 233.473 169.78 233.553 169.8C233.639 169.813 233.703 169.827 233.743 169.84L233.583 170.65C233.509 170.623 233.386 170.593 233.213 170.56C233.046 170.52 232.829 170.5 232.563 170.5C232.389 170.5 232.216 170.52 232.043 170.56C231.876 170.593 231.766 170.617 231.713 170.63V175H230.783V170.02C231.003 169.94 231.276 169.867 231.603 169.8C231.929 169.727 232.296 169.69 232.703 169.69ZM238.915 169.8C238.655 170.773 238.348 171.707 237.995 172.6C237.648 173.493 237.312 174.293 236.985 175H236.145C235.818 174.293 235.478 173.493 235.125 172.6C234.778 171.707 234.475 170.773 234.215 169.8H235.215C235.295 170.127 235.388 170.477 235.495 170.85C235.608 171.217 235.725 171.583 235.845 171.95C235.972 172.31 236.098 172.66 236.225 173C236.352 173.34 236.472 173.643 236.585 173.91C236.698 173.643 236.818 173.34 236.945 173C237.072 172.66 237.195 172.31 237.315 171.95C237.442 171.583 237.558 171.217 237.665 170.85C237.778 170.477 237.875 170.127 237.955 169.8H238.915ZM239.448 172.41C239.448 171.95 239.514 171.55 239.648 171.21C239.781 170.863 239.958 170.577 240.178 170.35C240.398 170.123 240.651 169.953 240.938 169.84C241.224 169.727 241.518 169.67 241.818 169.67C242.518 169.67 243.054 169.89 243.428 170.33C243.801 170.763 243.988 171.427 243.988 172.32C243.988 172.36 243.988 172.413 243.988 172.48C243.988 172.54 243.984 172.597 243.978 172.65H240.418C240.458 173.19 240.614 173.6 240.888 173.88C241.161 174.16 241.588 174.3 242.168 174.3C242.494 174.3 242.768 174.273 242.988 174.22C243.214 174.16 243.384 174.103 243.498 174.05L243.628 174.83C243.514 174.89 243.314 174.953 243.028 175.02C242.748 175.087 242.428 175.12 242.068 175.12C241.614 175.12 241.221 175.053 240.888 174.92C240.561 174.78 240.291 174.59 240.078 174.35C239.864 174.11 239.704 173.827 239.598 173.5C239.498 173.167 239.448 172.803 239.448 172.41ZM243.018 171.9C243.024 171.48 242.918 171.137 242.698 170.87C242.484 170.597 242.188 170.46 241.808 170.46C241.594 170.46 241.404 170.503 241.238 170.59C241.078 170.67 240.941 170.777 240.828 170.91C240.714 171.043 240.624 171.197 240.558 171.37C240.498 171.543 240.458 171.72 240.438 171.9H243.018ZM247.244 169.69C247.324 169.69 247.414 169.697 247.514 169.71C247.62 169.717 247.724 169.73 247.824 169.75C247.924 169.763 248.014 169.78 248.094 169.8C248.18 169.813 248.244 169.827 248.284 169.84L248.124 170.65C248.05 170.623 247.927 170.593 247.754 170.56C247.587 170.52 247.37 170.5 247.104 170.5C246.93 170.5 246.757 170.52 246.584 170.56C246.417 170.593 246.307 170.617 246.254 170.63V175H245.324V170.02C245.544 169.94 245.817 169.867 246.144 169.8C246.47 169.727 246.837 169.69 247.244 169.69Z" fill="black"/>
<path d="M195.792 21C195.68 20.672 195.564 20.348 195.444 20.028C195.324 19.708 195.208 19.38 195.096 19.044H191.592C191.48 19.38 191.364 19.712 191.244 20.04C191.132 20.36 191.02 20.68 190.908 21H189.336C189.648 20.112 189.944 19.292 190.224 18.54C190.504 17.788 190.776 17.076 191.04 16.404C191.312 15.732 191.58 15.092 191.844 14.484C192.108 13.876 192.38 13.276 192.66 12.684H194.088C194.368 13.276 194.64 13.876 194.904 14.484C195.168 15.092 195.432 15.732 195.696 16.404C195.968 17.076 196.244 17.788 196.524 18.54C196.812 19.292 197.112 20.112 197.424 21H195.792ZM193.344 14.292C193.16 14.716 192.948 15.232 192.708 15.84C192.476 16.448 192.232 17.108 191.976 17.82H194.712C194.456 17.108 194.208 16.444 193.968 15.828C193.728 15.212 193.52 14.7 193.344 14.292ZM202.568 17.892C202.568 17.244 202.42 16.74 202.124 16.38C201.836 16.02 201.367 15.84 200.719 15.84C200.584 15.84 200.44 15.848 200.287 15.864C200.143 15.872 199.999 15.896 199.855 15.936V19.524C199.984 19.612 200.151 19.696 200.359 19.776C200.576 19.848 200.804 19.884 201.044 19.884C201.571 19.884 201.955 19.704 202.195 19.344C202.444 18.984 202.568 18.5 202.568 17.892ZM204.056 17.868C204.056 18.348 203.992 18.788 203.863 19.188C203.743 19.588 203.568 19.932 203.336 20.22C203.104 20.508 202.812 20.732 202.46 20.892C202.115 21.052 201.723 21.132 201.283 21.132C200.987 21.132 200.715 21.096 200.467 21.024C200.219 20.952 200.015 20.872 199.855 20.784V23.22H198.403V14.928C198.699 14.848 199.063 14.772 199.495 14.7C199.928 14.628 200.383 14.592 200.863 14.592C201.359 14.592 201.803 14.668 202.195 14.82C202.588 14.972 202.92 15.192 203.191 15.48C203.472 15.76 203.684 16.104 203.828 16.512C203.98 16.912 204.056 17.364 204.056 17.868ZM209.716 17.892C209.716 17.244 209.568 16.74 209.272 16.38C208.984 16.02 208.516 15.84 207.868 15.84C207.732 15.84 207.588 15.848 207.436 15.864C207.292 15.872 207.148 15.896 207.004 15.936V19.524C207.132 19.612 207.3 19.696 207.508 19.776C207.724 19.848 207.952 19.884 208.192 19.884C208.72 19.884 209.104 19.704 209.344 19.344C209.592 18.984 209.716 18.5 209.716 17.892ZM211.204 17.868C211.204 18.348 211.14 18.788 211.012 19.188C210.892 19.588 210.716 19.932 210.484 20.22C210.252 20.508 209.96 20.732 209.608 20.892C209.264 21.052 208.872 21.132 208.432 21.132C208.136 21.132 207.864 21.096 207.616 21.024C207.368 20.952 207.164 20.872 207.004 20.784V23.22H205.552V14.928C205.848 14.848 206.212 14.772 206.644 14.7C207.076 14.628 207.532 14.592 208.012 14.592C208.508 14.592 208.952 14.668 209.344 14.82C209.736 14.972 210.068 15.192 210.34 15.48C210.62 15.76 210.832 16.104 210.976 16.512C211.128 16.912 211.204 17.364 211.204 17.868ZM214.884 21.12C214.452 21.112 214.092 21.064 213.804 20.976C213.524 20.888 213.3 20.764 213.132 20.604C212.964 20.436 212.844 20.232 212.772 19.992C212.708 19.744 212.676 19.464 212.676 19.152V11.928L214.128 11.688V18.876C214.128 19.052 214.14 19.2 214.164 19.32C214.196 19.44 214.248 19.544 214.32 19.632C214.392 19.712 214.488 19.776 214.608 19.824C214.736 19.864 214.896 19.896 215.088 19.92L214.884 21.12ZM217.727 21H216.275V14.724H217.727V21ZM217.883 12.888C217.883 13.16 217.795 13.376 217.619 13.536C217.443 13.696 217.235 13.776 216.995 13.776C216.747 13.776 216.535 13.696 216.359 13.536C216.183 13.376 216.095 13.16 216.095 12.888C216.095 12.608 216.183 12.388 216.359 12.228C216.535 12.068 216.747 11.988 216.995 11.988C217.235 11.988 217.443 12.068 217.619 12.228C217.795 12.388 217.883 12.608 217.883 12.888ZM219.231 17.868C219.231 17.404 219.303 16.972 219.447 16.572C219.591 16.164 219.795 15.812 220.059 15.516C220.331 15.22 220.659 14.988 221.043 14.82C221.427 14.652 221.859 14.568 222.339 14.568C222.931 14.568 223.491 14.676 224.019 14.892L223.707 16.08C223.539 16.008 223.347 15.948 223.131 15.9C222.923 15.852 222.699 15.828 222.459 15.828C221.891 15.828 221.459 16.008 221.163 16.368C220.867 16.72 220.719 17.22 220.719 17.868C220.719 18.492 220.859 18.988 221.139 19.356C221.419 19.716 221.891 19.896 222.555 19.896C222.803 19.896 223.047 19.872 223.287 19.824C223.527 19.776 223.735 19.716 223.911 19.644L224.115 20.844C223.955 20.924 223.711 20.996 223.383 21.06C223.063 21.124 222.731 21.156 222.387 21.156C221.851 21.156 221.383 21.076 220.983 20.916C220.591 20.748 220.263 20.52 219.999 20.232C219.743 19.936 219.551 19.588 219.423 19.188C219.295 18.78 219.231 18.34 219.231 17.868ZM227.447 19.98C227.895 19.98 228.235 19.956 228.467 19.908V18.3C228.387 18.276 228.271 18.252 228.119 18.228C227.967 18.204 227.799 18.192 227.615 18.192C227.455 18.192 227.291 18.204 227.123 18.228C226.963 18.252 226.815 18.296 226.679 18.36C226.551 18.424 226.447 18.516 226.367 18.636C226.287 18.748 226.247 18.892 226.247 19.068C226.247 19.412 226.355 19.652 226.571 19.788C226.787 19.916 227.079 19.98 227.447 19.98ZM227.327 14.568C227.807 14.568 228.211 14.628 228.539 14.748C228.867 14.868 229.127 15.036 229.319 15.252C229.519 15.468 229.659 15.732 229.739 16.044C229.827 16.348 229.871 16.684 229.871 17.052V20.856C229.647 20.904 229.307 20.96 228.851 21.024C228.403 21.096 227.895 21.132 227.327 21.132C226.951 21.132 226.607 21.096 226.295 21.024C225.983 20.952 225.715 20.836 225.491 20.676C225.275 20.516 225.103 20.308 224.975 20.052C224.855 19.796 224.795 19.48 224.795 19.104C224.795 18.744 224.863 18.44 224.999 18.192C225.143 17.944 225.335 17.744 225.575 17.592C225.815 17.432 226.091 17.32 226.403 17.256C226.723 17.184 227.055 17.148 227.399 17.148C227.559 17.148 227.727 17.16 227.903 17.184C228.079 17.2 228.267 17.232 228.467 17.28V17.04C228.467 16.872 228.447 16.712 228.407 16.56C228.367 16.408 228.295 16.276 228.191 16.164C228.095 16.044 227.963 15.952 227.795 15.888C227.635 15.824 227.431 15.792 227.183 15.792C226.847 15.792 226.539 15.816 226.259 15.864C225.979 15.912 225.751 15.968 225.575 16.032L225.395 14.856C225.579 14.792 225.847 14.728 226.199 14.664C226.551 14.6 226.927 14.568 227.327 14.568ZM231.578 13.068L233.03 12.828V14.724H235.262V15.936H233.03V18.492C233.03 18.996 233.11 19.356 233.27 19.572C233.43 19.788 233.702 19.896 234.086 19.896C234.35 19.896 234.582 19.868 234.782 19.812C234.99 19.756 235.154 19.704 235.274 19.656L235.514 20.808C235.346 20.88 235.126 20.952 234.854 21.024C234.582 21.104 234.262 21.144 233.894 21.144C233.446 21.144 233.07 21.084 232.766 20.964C232.47 20.844 232.234 20.672 232.058 20.448C231.882 20.216 231.758 19.94 231.686 19.62C231.614 19.292 231.578 18.92 231.578 18.504V13.068ZM238.129 21H236.677V14.724H238.129V21ZM238.285 12.888C238.285 13.16 238.197 13.376 238.021 13.536C237.845 13.696 237.637 13.776 237.397 13.776C237.149 13.776 236.937 13.696 236.761 13.536C236.585 13.376 236.497 13.16 236.497 12.888C236.497 12.608 236.585 12.388 236.761 12.228C236.937 12.068 237.149 11.988 237.397 11.988C237.637 11.988 237.845 12.068 238.021 12.228C238.197 12.388 238.285 12.608 238.285 12.888ZM245.658 17.856C245.658 18.352 245.586 18.804 245.442 19.212C245.298 19.62 245.094 19.968 244.83 20.256C244.566 20.544 244.246 20.768 243.87 20.928C243.502 21.088 243.094 21.168 242.646 21.168C242.198 21.168 241.79 21.088 241.422 20.928C241.054 20.768 240.738 20.544 240.474 20.256C240.21 19.968 240.002 19.62 239.85 19.212C239.706 18.804 239.634 18.352 239.634 17.856C239.634 17.36 239.706 16.912 239.85 16.512C240.002 16.104 240.21 15.756 240.474 15.468C240.746 15.18 241.066 14.96 241.434 14.808C241.802 14.648 242.206 14.568 242.646 14.568C243.086 14.568 243.49 14.648 243.858 14.808C244.234 14.96 244.554 15.18 244.818 15.468C245.082 15.756 245.286 16.104 245.43 16.512C245.582 16.912 245.658 17.36 245.658 17.856ZM244.17 17.856C244.17 17.232 244.034 16.74 243.762 16.38C243.498 16.012 243.126 15.828 242.646 15.828C242.166 15.828 241.79 16.012 241.518 16.38C241.254 16.74 241.122 17.232 241.122 17.856C241.122 18.488 241.254 18.988 241.518 19.356C241.79 19.724 242.166 19.908 242.646 19.908C243.126 19.908 243.498 19.724 243.762 19.356C244.034 18.988 244.17 18.488 244.17 17.856ZM247.153 14.928C247.433 14.848 247.797 14.772 248.245 14.7C248.693 14.628 249.189 14.592 249.734 14.592C250.245 14.592 250.673 14.664 251.018 14.808C251.362 14.944 251.634 15.14 251.833 15.396C252.042 15.644 252.186 15.948 252.266 16.308C252.353 16.66 252.397 17.048 252.397 17.472V21H250.945V17.7C250.945 17.364 250.921 17.08 250.874 16.848C250.834 16.608 250.762 16.416 250.658 16.272C250.562 16.12 250.426 16.012 250.249 15.948C250.081 15.876 249.873 15.84 249.626 15.84C249.442 15.84 249.25 15.852 249.049 15.876C248.849 15.9 248.701 15.92 248.605 15.936V21H247.153V14.928ZM262.842 12.684V13.992H260.286V21H258.762V13.992H256.206V12.684H262.842ZM265.387 21H263.935V14.724H265.387V21ZM265.543 12.888C265.543 13.16 265.455 13.376 265.279 13.536C265.103 13.696 264.895 13.776 264.655 13.776C264.407 13.776 264.195 13.696 264.019 13.536C263.843 13.376 263.755 13.16 263.755 12.888C263.755 12.608 263.843 12.388 264.019 12.228C264.195 12.068 264.407 11.988 264.655 11.988C264.895 11.988 265.103 12.068 265.279 12.228C265.455 12.388 265.543 12.608 265.543 12.888ZM266.891 17.892C266.891 17.34 266.971 16.856 267.131 16.44C267.299 16.024 267.519 15.68 267.791 15.408C268.063 15.128 268.375 14.92 268.727 14.784C269.079 14.64 269.439 14.568 269.807 14.568C270.671 14.568 271.343 14.836 271.823 15.372C272.311 15.908 272.555 16.708 272.555 17.772C272.555 17.852 272.551 17.944 272.543 18.048C272.543 18.144 272.539 18.232 272.531 18.312H268.391C268.431 18.816 268.607 19.208 268.919 19.488C269.239 19.76 269.699 19.896 270.299 19.896C270.651 19.896 270.971 19.864 271.259 19.8C271.555 19.736 271.787 19.668 271.955 19.596L272.147 20.784C272.067 20.824 271.955 20.868 271.811 20.916C271.675 20.956 271.515 20.992 271.331 21.024C271.155 21.064 270.963 21.096 270.755 21.12C270.547 21.144 270.335 21.156 270.119 21.156C269.567 21.156 269.087 21.076 268.679 20.916C268.271 20.748 267.935 20.52 267.671 20.232C267.407 19.936 267.211 19.592 267.083 19.2C266.955 18.8 266.891 18.364 266.891 17.892ZM271.103 17.244C271.103 17.044 271.075 16.856 271.019 16.68C270.963 16.496 270.879 16.34 270.767 16.212C270.663 16.076 270.531 15.972 270.371 15.9C270.219 15.82 270.035 15.78 269.819 15.78C269.595 15.78 269.399 15.824 269.231 15.912C269.063 15.992 268.919 16.1 268.799 16.236C268.687 16.372 268.599 16.528 268.535 16.704C268.471 16.88 268.427 17.06 268.403 17.244H271.103ZM277.671 16.032C277.551 15.992 277.383 15.952 277.167 15.912C276.959 15.864 276.715 15.84 276.435 15.84C276.275 15.84 276.103 15.856 275.919 15.888C275.743 15.92 275.619 15.948 275.547 15.972V21H274.095V15.024C274.375 14.92 274.723 14.824 275.139 14.736C275.563 14.64 276.031 14.592 276.543 14.592C276.639 14.592 276.751 14.6 276.879 14.616C277.007 14.624 277.135 14.64 277.263 14.664C277.391 14.68 277.515 14.704 277.635 14.736C277.755 14.76 277.851 14.784 277.923 14.808L277.671 16.032Z" fill="#0C8CE9" fill-opacity="0.8"/>
<rect x="152.5" y="56.5" width="161.96" height="88.198" rx="3.5" stroke="#0C8CE9"/>
<rect x="169.252" y="68.8242" width="127.931" height="62.8396" stroke="#0C8CE9" stroke-linecap="square" stroke-dasharray="5 5"/>
<path d="M210.197 102.381C210.085 102.381 209.962 102.379 209.829 102.373C209.701 102.368 209.57 102.36 209.437 102.349C209.309 102.339 209.181 102.325 209.053 102.309C208.925 102.293 208.807 102.272 208.701 102.245V96.8693C208.807 96.8427 208.925 96.8213 209.053 96.8053C209.181 96.7893 209.309 96.776 209.437 96.7653C209.57 96.7547 209.701 96.7467 209.829 96.7413C209.957 96.736 210.077 96.7333 210.189 96.7333C210.509 96.7333 210.807 96.7573 211.085 96.8053C211.367 96.8533 211.61 96.936 211.813 97.0533C212.021 97.1653 212.183 97.3147 212.301 97.5013C212.418 97.688 212.477 97.9173 212.477 98.1893C212.477 98.4933 212.405 98.744 212.261 98.9413C212.117 99.1333 211.925 99.2773 211.685 99.3733C212.01 99.4693 212.269 99.6213 212.461 99.8293C212.653 100.037 212.749 100.331 212.749 100.709C212.749 101.264 212.543 101.683 212.133 101.965C211.727 102.243 211.082 102.381 210.197 102.381ZM209.469 99.7493V101.701C209.527 101.707 209.597 101.712 209.677 101.717C209.746 101.723 209.826 101.728 209.917 101.733C210.013 101.733 210.122 101.733 210.245 101.733C210.474 101.733 210.69 101.72 210.893 101.693C211.101 101.661 211.282 101.608 211.437 101.533C211.591 101.459 211.714 101.355 211.805 101.221C211.901 101.088 211.949 100.92 211.949 100.717C211.949 100.536 211.914 100.384 211.845 100.261C211.775 100.133 211.674 100.032 211.541 99.9573C211.413 99.8827 211.258 99.8293 211.077 99.7973C210.895 99.7653 210.693 99.7493 210.469 99.7493H209.469ZM209.469 99.1253H210.285C210.477 99.1253 210.658 99.112 210.829 99.0853C210.999 99.0587 211.146 99.0107 211.269 98.9413C211.397 98.872 211.495 98.7813 211.565 98.6693C211.639 98.5573 211.677 98.416 211.677 98.2453C211.677 98.0853 211.639 97.952 211.565 97.8453C211.49 97.7333 211.386 97.6453 211.253 97.5813C211.125 97.512 210.973 97.4613 210.797 97.4293C210.621 97.3973 210.434 97.3813 210.237 97.3813C210.039 97.3813 209.885 97.384 209.773 97.3893C209.661 97.3947 209.559 97.4027 209.469 97.4133V99.1253ZM217.105 102.213C216.935 102.256 216.708 102.301 216.425 102.349C216.148 102.397 215.825 102.421 215.457 102.421C215.137 102.421 214.868 102.376 214.649 102.285C214.431 102.189 214.255 102.056 214.121 101.885C213.988 101.715 213.892 101.515 213.833 101.285C213.775 101.051 213.745 100.792 213.745 100.509V98.1733H214.489V100.349C214.489 100.856 214.569 101.219 214.729 101.437C214.889 101.656 215.159 101.765 215.537 101.765C215.617 101.765 215.7 101.763 215.785 101.757C215.871 101.752 215.951 101.747 216.025 101.741C216.1 101.731 216.167 101.723 216.225 101.717C216.289 101.707 216.335 101.696 216.361 101.685V98.1733H217.105V102.213ZM219.355 101.797C219.659 101.797 219.883 101.757 220.027 101.677C220.176 101.597 220.251 101.469 220.251 101.293C220.251 101.112 220.179 100.968 220.035 100.861C219.891 100.755 219.654 100.635 219.323 100.501C219.163 100.437 219.008 100.373 218.859 100.309C218.715 100.24 218.59 100.16 218.483 100.069C218.376 99.9787 218.291 99.8693 218.227 99.7413C218.163 99.6133 218.131 99.456 218.131 99.2693C218.131 98.9013 218.267 98.6107 218.539 98.3973C218.811 98.1787 219.182 98.0693 219.651 98.0693C219.768 98.0693 219.886 98.0773 220.003 98.0933C220.12 98.104 220.23 98.12 220.331 98.1413C220.432 98.1573 220.52 98.176 220.595 98.1973C220.675 98.2187 220.736 98.2373 220.779 98.2533L220.643 98.8933C220.563 98.8507 220.438 98.808 220.267 98.7653C220.096 98.7173 219.891 98.6933 219.651 98.6933C219.443 98.6933 219.262 98.736 219.107 98.8213C218.952 98.9013 218.875 99.0293 218.875 99.2053C218.875 99.296 218.891 99.376 218.923 99.4453C218.96 99.5147 219.014 99.5787 219.083 99.6373C219.158 99.6907 219.248 99.7413 219.355 99.7893C219.462 99.8373 219.59 99.888 219.739 99.9413C219.936 100.016 220.112 100.091 220.267 100.165C220.422 100.235 220.552 100.317 220.659 100.413C220.771 100.509 220.856 100.627 220.915 100.765C220.974 100.899 221.003 101.064 221.003 101.261C221.003 101.645 220.859 101.936 220.571 102.133C220.288 102.331 219.883 102.429 219.355 102.429C218.987 102.429 218.699 102.397 218.491 102.333C218.283 102.275 218.142 102.229 218.067 102.197L218.203 101.557C218.288 101.589 218.424 101.637 218.611 101.701C218.798 101.765 219.046 101.797 219.355 101.797ZM222.701 102.333H221.957V98.1733H222.701V102.333ZM222.325 97.4213C222.192 97.4213 222.077 97.3787 221.981 97.2933C221.891 97.2027 221.845 97.0827 221.845 96.9333C221.845 96.784 221.891 96.6667 221.981 96.5813C222.077 96.4907 222.192 96.4453 222.325 96.4453C222.459 96.4453 222.571 96.4907 222.661 96.5813C222.757 96.6667 222.805 96.784 222.805 96.9333C222.805 97.0827 222.757 97.2027 222.661 97.2933C222.571 97.3787 222.459 97.4213 222.325 97.4213ZM223.981 98.2933C224.152 98.2507 224.378 98.2053 224.661 98.1573C224.944 98.1093 225.269 98.0853 225.637 98.0853C225.968 98.0853 226.242 98.1333 226.461 98.2293C226.68 98.32 226.853 98.4507 226.981 98.6213C227.114 98.7867 227.208 98.9867 227.261 99.2213C227.314 99.456 227.341 99.7147 227.341 99.9973V102.333H226.597V100.157C226.597 99.9013 226.578 99.6827 226.541 99.5013C226.509 99.32 226.453 99.1733 226.373 99.0613C226.293 98.9493 226.186 98.8693 226.053 98.8213C225.92 98.768 225.754 98.7413 225.557 98.7413C225.477 98.7413 225.394 98.744 225.309 98.7493C225.224 98.7547 225.141 98.7627 225.061 98.7733C224.986 98.7787 224.917 98.7867 224.853 98.7973C224.794 98.808 224.752 98.816 224.725 98.8213V102.333H223.981V98.2933ZM228.343 100.261C228.343 99.8933 228.396 99.5733 228.503 99.3013C228.609 99.024 228.751 98.7947 228.927 98.6133C229.103 98.432 229.305 98.296 229.535 98.2053C229.764 98.1147 229.999 98.0693 230.239 98.0693C230.799 98.0693 231.228 98.2453 231.527 98.5973C231.825 98.944 231.975 99.4747 231.975 100.189C231.975 100.221 231.975 100.264 231.975 100.317C231.975 100.365 231.972 100.411 231.967 100.453H229.119C229.151 100.885 229.276 101.213 229.495 101.437C229.713 101.661 230.055 101.773 230.519 101.773C230.78 101.773 230.999 101.752 231.175 101.709C231.356 101.661 231.492 101.616 231.583 101.573L231.687 102.197C231.596 102.245 231.436 102.296 231.207 102.349C230.983 102.403 230.727 102.429 230.439 102.429C230.076 102.429 229.761 102.376 229.495 102.269C229.233 102.157 229.017 102.005 228.847 101.813C228.676 101.621 228.548 101.395 228.463 101.133C228.383 100.867 228.343 100.576 228.343 100.261ZM231.199 99.8533C231.204 99.5173 231.119 99.2427 230.943 99.0293C230.772 98.8107 230.535 98.7013 230.231 98.7013C230.06 98.7013 229.908 98.736 229.775 98.8053C229.647 98.8693 229.537 98.9547 229.447 99.0613C229.356 99.168 229.284 99.2907 229.231 99.4293C229.183 99.568 229.151 99.7093 229.135 99.8533H231.199ZM234.011 101.797C234.315 101.797 234.539 101.757 234.683 101.677C234.833 101.597 234.907 101.469 234.907 101.293C234.907 101.112 234.835 100.968 234.691 100.861C234.547 100.755 234.31 100.635 233.979 100.501C233.819 100.437 233.665 100.373 233.515 100.309C233.371 100.24 233.246 100.16 233.139 100.069C233.033 99.9787 232.947 99.8693 232.883 99.7413C232.819 99.6133 232.787 99.456 232.787 99.2693C232.787 98.9013 232.923 98.6107 233.195 98.3973C233.467 98.1787 233.838 98.0693 234.307 98.0693C234.425 98.0693 234.542 98.0773 234.659 98.0933C234.777 98.104 234.886 98.12 234.987 98.1413C235.089 98.1573 235.177 98.176 235.251 98.1973C235.331 98.2187 235.393 98.2373 235.435 98.2533L235.299 98.8933C235.219 98.8507 235.094 98.808 234.923 98.7653C234.753 98.7173 234.547 98.6933 234.307 98.6933C234.099 98.6933 233.918 98.736 233.763 98.8213C233.609 98.9013 233.531 99.0293 233.531 99.2053C233.531 99.296 233.547 99.376 233.579 99.4453C233.617 99.5147 233.67 99.5787 233.739 99.6373C233.814 99.6907 233.905 99.7413 234.011 99.7893C234.118 99.8373 234.246 99.888 234.395 99.9413C234.593 100.016 234.769 100.091 234.923 100.165C235.078 100.235 235.209 100.317 235.315 100.413C235.427 100.509 235.513 100.627 235.571 100.765C235.63 100.899 235.659 101.064 235.659 101.261C235.659 101.645 235.515 101.936 235.227 102.133C234.945 102.331 234.539 102.429 234.011 102.429C233.643 102.429 233.355 102.397 233.147 102.333C232.939 102.275 232.798 102.229 232.723 102.197L232.859 101.557C232.945 101.589 233.081 101.637 233.267 101.701C233.454 101.765 233.702 101.797 234.011 101.797ZM237.582 101.797C237.886 101.797 238.11 101.757 238.254 101.677C238.403 101.597 238.478 101.469 238.478 101.293C238.478 101.112 238.406 100.968 238.262 100.861C238.118 100.755 237.88 100.635 237.55 100.501C237.39 100.437 237.235 100.373 237.086 100.309C236.942 100.24 236.816 100.16 236.71 100.069C236.603 99.9787 236.518 99.8693 236.454 99.7413C236.39 99.6133 236.358 99.456 236.358 99.2693C236.358 98.9013 236.494 98.6107 236.766 98.3973C237.038 98.1787 237.408 98.0693 237.878 98.0693C237.995 98.0693 238.112 98.0773 238.23 98.0933C238.347 98.104 238.456 98.12 238.558 98.1413C238.659 98.1573 238.747 98.176 238.822 98.1973C238.902 98.2187 238.963 98.2373 239.006 98.2533L238.87 98.8933C238.79 98.8507 238.664 98.808 238.494 98.7653C238.323 98.7173 238.118 98.6933 237.878 98.6933C237.67 98.6933 237.488 98.736 237.334 98.8213C237.179 98.9013 237.102 99.0293 237.102 99.2053C237.102 99.296 237.118 99.376 237.15 99.4453C237.187 99.5147 237.24 99.5787 237.31 99.6373C237.384 99.6907 237.475 99.7413 237.582 99.7893C237.688 99.8373 237.816 99.888 237.966 99.9413C238.163 100.016 238.339 100.091 238.494 100.165C238.648 100.235 238.779 100.317 238.886 100.413C238.998 100.509 239.083 100.627 239.142 100.765C239.2 100.899 239.23 101.064 239.23 101.261C239.23 101.645 239.086 101.936 238.798 102.133C238.515 102.331 238.11 102.429 237.582 102.429C237.214 102.429 236.926 102.397 236.718 102.333C236.51 102.275 236.368 102.229 236.294 102.197L236.43 101.557C236.515 101.589 236.651 101.637 236.838 101.701C237.024 101.765 237.272 101.797 237.582 101.797ZM243.284 102.413C242.825 102.403 242.5 102.304 242.308 102.117C242.116 101.931 242.02 101.64 242.02 101.245V96.2533L242.764 96.1253V101.125C242.764 101.248 242.774 101.349 242.796 101.429C242.817 101.509 242.852 101.573 242.9 101.621C242.948 101.669 243.012 101.707 243.092 101.733C243.172 101.755 243.27 101.773 243.388 101.789L243.284 102.413ZM247.895 100.253C247.895 100.584 247.847 100.883 247.751 101.149C247.655 101.416 247.519 101.645 247.343 101.837C247.172 102.029 246.967 102.179 246.727 102.285C246.487 102.387 246.226 102.437 245.943 102.437C245.66 102.437 245.399 102.387 245.159 102.285C244.919 102.179 244.711 102.029 244.535 101.837C244.364 101.645 244.231 101.416 244.135 101.149C244.039 100.883 243.991 100.584 243.991 100.253C243.991 99.928 244.039 99.632 244.135 99.3653C244.231 99.0933 244.364 98.8613 244.535 98.6693C244.711 98.4773 244.919 98.3307 245.159 98.2293C245.399 98.1227 245.66 98.0693 245.943 98.0693C246.226 98.0693 246.487 98.1227 246.727 98.2293C246.967 98.3307 247.172 98.4773 247.343 98.6693C247.519 98.8613 247.655 99.0933 247.751 99.3653C247.847 99.632 247.895 99.928 247.895 100.253ZM247.119 100.253C247.119 99.784 247.012 99.4133 246.799 99.1413C246.591 98.864 246.306 98.7253 245.943 98.7253C245.58 98.7253 245.292 98.864 245.079 99.1413C244.871 99.4133 244.767 99.784 244.767 100.253C244.767 100.723 244.871 101.096 245.079 101.373C245.292 101.645 245.58 101.781 245.943 101.781C246.306 101.781 246.591 101.645 246.799 101.373C247.012 101.096 247.119 100.723 247.119 100.253ZM251.55 101.917C251.486 101.96 251.36 102.016 251.174 102.085C250.992 102.149 250.779 102.181 250.534 102.181C250.283 102.181 250.046 102.141 249.822 102.061C249.603 101.981 249.411 101.859 249.246 101.693C249.08 101.523 248.95 101.312 248.854 101.061C248.758 100.811 248.71 100.512 248.71 100.165C248.71 99.8613 248.755 99.584 248.846 99.3333C248.936 99.0773 249.067 98.8587 249.238 98.6773C249.414 98.4907 249.627 98.3467 249.878 98.2453C250.128 98.1387 250.411 98.0853 250.726 98.0853C251.072 98.0853 251.374 98.112 251.63 98.1653C251.891 98.2133 252.11 98.2587 252.286 98.3013V102.013C252.286 102.653 252.12 103.117 251.79 103.405C251.459 103.693 250.958 103.837 250.286 103.837C250.024 103.837 249.776 103.816 249.542 103.773C249.312 103.731 249.112 103.68 248.942 103.621L249.078 102.973C249.227 103.032 249.408 103.083 249.622 103.125C249.84 103.173 250.067 103.197 250.302 103.197C250.744 103.197 251.062 103.109 251.254 102.933C251.451 102.757 251.55 102.477 251.55 102.093V101.917ZM251.542 98.8293C251.467 98.808 251.366 98.7893 251.238 98.7733C251.115 98.752 250.947 98.7413 250.734 98.7413C250.334 98.7413 250.024 98.872 249.806 99.1333C249.592 99.3947 249.486 99.7413 249.486 100.173C249.486 100.413 249.515 100.619 249.574 100.789C249.638 100.96 249.72 101.101 249.822 101.213C249.928 101.325 250.048 101.408 250.182 101.461C250.32 101.515 250.462 101.541 250.606 101.541C250.803 101.541 250.984 101.515 251.15 101.461C251.315 101.403 251.446 101.336 251.542 101.261V98.8293ZM254.311 102.333H253.567V98.1733H254.311V102.333ZM253.935 97.4213C253.801 97.4213 253.687 97.3787 253.591 97.2933C253.5 97.2027 253.455 97.0827 253.455 96.9333C253.455 96.784 253.5 96.6667 253.591 96.5813C253.687 96.4907 253.801 96.4453 253.935 96.4453C254.068 96.4453 254.18 96.4907 254.271 96.5813C254.367 96.6667 254.415 96.784 254.415 96.9333C254.415 97.0827 254.367 97.2027 254.271 97.2933C254.18 97.3787 254.068 97.4213 253.935 97.4213ZM257.398 102.429C257.062 102.429 256.766 102.376 256.51 102.269C256.26 102.163 256.046 102.013 255.87 101.821C255.7 101.629 255.572 101.403 255.486 101.141C255.401 100.875 255.358 100.581 255.358 100.261C255.358 99.9413 255.404 99.648 255.494 99.3813C255.59 99.1147 255.724 98.8853 255.894 98.6933C256.065 98.496 256.273 98.344 256.518 98.2373C256.769 98.1253 257.046 98.0693 257.35 98.0693C257.537 98.0693 257.724 98.0853 257.91 98.1173C258.097 98.1493 258.276 98.2 258.446 98.2693L258.278 98.9013C258.166 98.848 258.036 98.8053 257.886 98.7733C257.742 98.7413 257.588 98.7253 257.422 98.7253C257.006 98.7253 256.686 98.856 256.462 99.1173C256.244 99.3787 256.134 99.76 256.134 100.261C256.134 100.485 256.158 100.691 256.206 100.877C256.26 101.064 256.34 101.224 256.446 101.357C256.558 101.491 256.7 101.595 256.87 101.669C257.041 101.739 257.249 101.773 257.494 101.773C257.692 101.773 257.87 101.755 258.03 101.717C258.19 101.68 258.316 101.64 258.406 101.597L258.51 102.221C258.468 102.248 258.406 102.275 258.326 102.301C258.246 102.323 258.156 102.341 258.054 102.357C257.953 102.379 257.844 102.395 257.726 102.405C257.614 102.421 257.505 102.429 257.398 102.429Z" fill="black"/>
<path d="M344.267 0.999939L343.993 82" stroke="#0C8CE9" stroke-opacity="0.3" stroke-width="2" stroke-linecap="round" stroke-dasharray="5 5"/>
<path d="M344 123L344 197" stroke="#0C8CE9" stroke-opacity="0.3" stroke-width="2" stroke-linecap="round" stroke-dasharray="5 5"/>
<path d="M368.265 96.2652C368.412 96.1187 368.412 95.8813 368.265 95.7348L365.879 93.3483C365.732 93.2019 365.495 93.2019 365.348 93.3483C365.202 93.4948 365.202 93.7322 365.348 93.8787L367.47 96L365.348 98.1213C365.202 98.2678 365.202 98.5052 365.348 98.6517C365.495 98.7981 365.732 98.7981 365.879 98.6517L368.265 96.2652ZM320 96.375H368V95.625H320V96.375Z" fill="#0C8CE9"/>
<path d="M319.735 107.735C319.588 107.881 319.588 108.119 319.735 108.265L322.121 110.652C322.268 110.798 322.505 110.798 322.652 110.652C322.798 110.505 322.798 110.268 322.652 110.121L320.53 108L322.652 105.879C322.798 105.732 322.798 105.495 322.652 105.348C322.505 105.202 322.268 105.202 322.121 105.348L319.735 107.735ZM320 108.375H344V107.625H320V108.375ZM344 108.375H368V107.625H344V108.375Z" fill="#0C8CE9"/>
<path d="M122.261 1L122 82" stroke="#0C8CE9" stroke-opacity="0.3" stroke-width="2" stroke-linecap="round" stroke-dasharray="5 5"/>
<path d="M122 123L122 197" stroke="#0C8CE9" stroke-opacity="0.3" stroke-width="2" stroke-linecap="round" stroke-dasharray="5 5"/>
<path d="M146.265 96.2653C146.412 96.1188 146.412 95.8814 146.265 95.7349L143.879 93.3484C143.732 93.202 143.495 93.202 143.348 93.3484C143.202 93.4949 143.202 93.7323 143.348 93.8788L145.47 96.0001L143.348 98.1214C143.202 98.2679 143.202 98.5053 143.348 98.6517C143.495 98.7982 143.732 98.7982 143.879 98.6517L146.265 96.2653ZM98 96.3751H146V95.6251H98V96.3751Z" fill="#0C8CE9"/>
<path d="M97.7348 107.735C97.5884 107.881 97.5884 108.119 97.7348 108.265L100.121 110.652C100.268 110.798 100.505 110.798 100.652 110.652C100.798 110.505 100.798 110.268 100.652 110.121L98.5303 108L100.652 105.879C100.798 105.732 100.798 105.495 100.652 105.348C100.505 105.202 100.268 105.202 100.121 105.348L97.7348 107.735ZM98 108.375H122V107.625H98V108.375ZM122 108.375H146V107.625H122V108.375Z" fill="#0C8CE9"/>
</svg>
